<svg xmlns="http://www.w3.org/2000/svg" width="144" height="144" viewBox="0 0 144 144">
    <g fill="none" fill-rule="evenodd">
        <path d="M0 0h144v144H0z"/>
        <ellipse cx="87.101" cy="110.694" fill="#000" fill-rule="nonzero" opacity=".22" rx="45.336" ry="11.206"/>
        <path fill="#FFF" d="M89.875 57.93c4.574 2.692 3.373 9.092 8.119 13.244 4.745 4.152 7.215 25.243 1.082 43.146-4.34 1.982-7.515 1.966-13.364 1.907-3.192-.032-7.373.514-12.53 0-.756-.076-2.178 2.96-2.987 2.864-5.16 1.815-12.575-.887-12.575-.887l.652-1.977c-.59.254-1.83.564-3.725.93-.781.151-2.852-.019-6.213-.51l-2.59-2.327-2.462-2.082c-1.434-2.021-2.152-4.324-2.152-6.907 0-2.584-.268-5.316-.805-8.196.137-6.732 1.122-14.424 2.957-23.077 2.752-12.98 2.805-19.23 4.789-21.39 1.983-2.16 42.817 1.643 41.804 5.262z"/>
        <path fill="#D8D8D8" d="M93.964 46.208c1.573 7.898 5.004 18.015 10.292 30.35 2.447 3.503 3.806 9.09 4.077 16.763.406 11.51-5.504 18.893-9.257 21.267-1.109.7-6.7 2.163-14.432 2.373-2.35.064-6.17-.227-11.462-.872l-2.202 2.679c-2.166.22-3.714.327-4.644.323-.93-.004-2.36-.112-4.29-.323 13.45-14.725 21.254-25.74 23.413-33.049 3.238-10.961-15.756-15.466-16.284-19.706-.528-4.24 4.905-10.45 7.468-12.834 3.365-3.128 14.962-18.818 17.321-6.971z"/>
        <path stroke="#000" stroke-linecap="round" stroke-linejoin="round" stroke-width="1.5" d="M58.044 116.481c-3.39 1.142-7.444.677-12.163-1.393-1.412-1-2.723-2.46-3.932-4.38-1.815-2.88-1.319-6.83-1.319-11.132 0-10.604 6.109-45.781 6.026-46.036M93.964 47.035c3.677 13.84 10.292 26.843 13.573 38.591 2.407 8.617.932 20.212-4.834 26.523-2.094 2.293-6.015 3.547-8.739 4.19-.425.1-5.476.901-10.4.88-2.176-.008-5.637-.302-10.382-.88"/>
        <path fill="#1D3443" fill-rule="nonzero" d="M45.984 62.089s3.139-.124 8.562-.124c1.95 0 5.724.041 11.32.124h14.612c5.214 1.24 9.18 1.24 11.899 0 2.718-1.24 4.392-2.702 5.02-4.386-1.837-8.661-2.815-12.985-2.933-12.97-2.45.303-4.904 1.177-7.363 2.622-1.866 2.33-4.288 4.272-7.266 5.824-2.978 1.552-7.454 3.205-13.429 4.96l-11.114-.165-7.097-2.752c-3.282 4.578-4.02 6.867-2.211 6.867z"/>
        <path stroke="#000" stroke-linecap="round" stroke-linejoin="round" stroke-width="1.5" d="M42.67 65.279c6.326-8.203 23.347-3.043 23.347-3.043"/>
        <path fill="#1D3443" fill-rule="nonzero" d="M46.586 62.089l1.657-7.898c-3.905 3.51-6.767 6.144-8.585 7.898-.564.544-.966 1.911-1.206 4.101L26.826 97.507c.191 1.625.643 3.094 1.356 4.405.713 1.31 1.968 2.982 3.766 5.012l1.355-10.48 4.232 3.044 3.495-.852V91.57l5.556-29.481z"/>
        <path fill="#020B11" fill-rule="nonzero" d="M46.586 62.089l-6.175 5.164-8.737 34.198 5.744-1.963 3.95-.852-.338-6.44 5.556-30.107z"/>
        <path fill-rule="nonzero" stroke="#000" stroke-width="1.5" d="M47.942 54.19c-4.72 3.95-7.531 6.481-8.435 7.595-1.356 1.671-1.055 3.039-1.055 5.013 0 1.316-3.852 11.42-11.558 30.312 1.708 5.266 3.516 8.304 5.424 9.114.208-2.864.626-6.125 1.254-9.78 1.194-6.954 3.625-16.836 7.291-29.646M32.427 101.451c3.627-2.686 6.495-3.625 8.603-2.815"/>
        <g>
            <path fill="#FFF" d="M63.805 77.276s-3.308 7.599-10.045 11c-6.737 3.4-9.272 4.475-14.99 4.618-10.933.273-25.376-5.389-28.792-9.435-7.113-8.425-2.693-14.291 3.606-12.034 4.935 1.768 15.97 5.273 23.25 4.095 1.434-.555 2.808-1.356 4.123-2.4.608-.484 2.117-1.977 4.528-4.478l1.773 12.19c5.35.473 8.512.958 9.487 1.455.976.497 3.329-1.173 7.06-5.01z"/>
            <path fill="#D8D8D8" d="M56.566 116.089c-2.471-9.42-4.813-14.815-7.025-16.186-2.373-1.47-5.14-2.393-8.302-2.768.534-3.232.694-4.845.48-4.838-10.926.368-28.111-4.64-31.506-8.663-4.042-4.793-3.7-8.734-2.42-10.923 1.557 5.82 1.82 9.288 15.89 13.369 3.864 1.12 10.327 1.644 16.473 1.796 2.167.053 9.99-.197 9.385-12.444-.439-5.044 5.584.224 8.092 2.068 2.323 1.707 4.735 5.897 7.237 12.569-.062 5.712-.59 10.632-1.584 14.76-.501 2.084-1.706 5.837-3.612 11.26h-3.108z"/>
            <path stroke="#000" stroke-linecap="round" stroke-linejoin="round" stroke-width="1.5" d="M52.632 89.818c-3.429 1.877-11.026 3.005-13.862 3.076-10.933.273-25.376-5.389-28.792-9.435-7.113-8.425-2.693-14.291 3.606-12.034 4.48 1.605 13.984 4.64 21.145 4.307.728-.034 5.415.062 8.887-6.177"/>
            <path fill="#858C93" stroke="#000" stroke-linecap="round" stroke-linejoin="round" stroke-width="1.5" d="M25.207 79.102c.211-2.126-4.4-4.087-7.112-4.579-2.711-.492-5.489-.1-4.85 2.403.64 2.505 2.94 4.322 6.197 4.67 3.256.348 5.555-.367 5.765-2.494z"/>
            <g fill-rule="nonzero">
                <path fill="#0E0E0E" stroke="#000" stroke-width="1.5" d="M5.287 67.468c4.26.688 6.88 1.081 7.89 1.185.85.086 2.152.548 2.55.806 3.522 2.297 8.59 5.562 15.2 9.794a.25.25 0 0 1 .096.115l-.265.298-.039.202c-.003.017-.122.094-.517.163-4.647-.122-7.252-.176-7.863-.164a1.625 1.625 0 0 1-.531-.1 4.563 4.563 0 0 1-.836-.4c-.1-.058-.198-.12-.303-.187l-.236-.155c-3.528-2.298-8.723-5.675-15.586-10.13-.085-.057-.128-.159-.127-.185l.31-1.039a.25.25 0 0 1 .257-.203z"/>
                <path fill="#9E9E9E" d="M5.94 68.194c-.612-.374-1.054-.342-1.325.097a1 1 0 0 0 .436 1.03l16.2 10.412a1 1 0 0 0 1.528-.647l-.144-.589"/>
            </g>
        </g>
        <path stroke="#000" stroke-linecap="round" stroke-linejoin="round" stroke-width="1.5" d="M88.067 95.311c-3.001 6.413-17.156 23.539-17.156 23.539-5.717 1.938-12.867-.535-12.867-.535s8.74-18.863 6.586-34"/>
        <path fill-rule="nonzero" stroke="#000" stroke-linecap="round" stroke-linejoin="round" stroke-width="1.5" d="M47.286 101.953c5.927-2.577 11.265-2.239 16.012 1.014"/>
        <g fill-rule="nonzero">
            <path fill="#1D3443" d="M92.22 53.906l-2.862-7.477c4.401 2.828 7.636 4.96 9.704 6.393.642.445 1.25 1.72 1.827 3.828 2.101 3.55 4.452 8.323 7.052 14.322 2.6 5.998 6.02 14.54 10.262 25.622v4.908c-1.82 1.607-5.241 3.665-10.262 6.176-5.021 2.51-10.745 3.313-17.172 2.41l3.917-7.381c-1.378-22.71-2.636-35.324-3.773-37.839-4.374-9.675 1.306-10.962 1.306-10.962z"/>
            <path fill="#0E2636" d="M92.22 53.906l-2.862-7.477c4.401 2.828 7.636 4.96 9.704 6.393.642.445 1.25 1.72 1.827 3.828 2.101 3.55 4.452 8.323 7.052 14.322 2.6 5.998 6.02 14.54 10.262 25.622l-1.124 4.857c-1.04 1.5-2.295 2.693-3.766 3.578-1.471.886-3.262 1.768-5.372 2.649-1.163-10.514-3.188-19.67-6.075-27.47-1.673-4.522-4.889-8.1-9.647-10.736-.782-2.873-1.217-4.408-1.306-4.604-4.374-9.675 1.306-10.962 1.306-10.962z"/>
            <path stroke="#000" stroke-width="1.5" d="M95.46 49.146c1.134 2.87 3.16 2.87 3.705 3.355 1.598 1.424 1.512 2.811 1.819 4.744.113.717 3.88 6.397 7.369 14.841 1.858 4.5 5.068 13.35 9.63 26.55-1.378 3.804-3.32 6.265-5.826 7.384-11.078 4.945-15.212 5.875-21.388 4.068 5.798-7.532 5.48-24.702-.953-51.512"/>
        </g>
        <g>
            <path fill="#D8D8D8" d="M61.122 60.875c-2.044.832-2.297 1.66-.758 2.48 2.308 1.233-4.024-.743-4.872.082-.49.475-.673 1.473-1.048 2.454-.276.721-.96 1.45-.403 1.87.876.66-.377.257-3.76-1.21l-3.548 1.468-2.025-2.937c-3.17 2.674-5.58 4.142-7.233 4.403-2.48.393 2.492-3.842 1.741-4.412-.75-.57-3.113 1.372-5.295 1.717-2.181.346-4.582.343-5.128-.066-.546-.408 1.597-.873 2.534-1.874.937-1.001 3.716-2.468 2.804-3.001-.912-.533-4.373.942-6.25.99-1.875.048-3.372-.456-3.223-1.096.149-.64 2.439-.78 3.814-1.438.916-.438 2.103-1.135 3.558-2.09-1.355-.427-2.284-.838-2.788-1.234-.505-.396-1.056-1.148-1.654-2.255l5.046.243c-1.625-.937-2.699-1.67-3.22-2.202-.784-.798-1.768-2.119-1.205-2.304.564-.185 2.163 1.364 3.378 1.59.81.152 2.094.071 3.851-.24-1.374-2.258-1.813-3.426-1.317-3.505.496-.079 2.18.432 5.05 1.531-.91-3.48-1.346-5.102-1.308-4.866.037.236 1.996 1.617 5.876 4.142l4.936.232 1.263 2.881c1.914-.175 3.33-.4 4.248-.673.918-.273 1.987-.79 3.207-1.55l.389 2.455.41 2.59 3.518-1.536 1.26 3.357c3.672-.582 5.546-.879 5.622-.89.114-.019.16 2.198.274 2.923.115.726 2.703 1.987 2.295 2.051l-5.208.825c1.475 2.061 2.2 3.012 2.174 2.85-.026-.16-1.53-1.115-4.51-2.864l-2.495-.891z"/>
            <path fill="#929292" d="M61.122 60.875c-2.044.832-2.297 1.66-.758 2.48 2.308 1.233-4.024-.743-4.872.082-.49.475-.673 1.473-1.048 2.454-.276.721-.96 1.45-.403 1.87.876.66-.377.257-3.76-1.21l-3.548 1.468-2.47-2.946c-4.13 2.88-6.393 4.35-6.788 4.412-2.48.393 2.492-3.842 1.741-4.412-.75-.57-3.113 1.372-5.295 1.717-2.181.346-4.582.343-5.128-.066-.546-.408 1.597-.873 2.534-1.874.937-1.001 3.716-2.468 2.804-3.001-.912-.533-4.373.942-6.25.99-1.875.048-3.372-.456-3.223-1.096.149-.64 2.439-.78 3.814-1.438.916-.438 2.103-1.135 3.558-2.09-1.355-.427-2.284-.838-2.788-1.234-.505-.396-1.056-1.148-1.654-2.255l5.046.243c-1.625-.937-2.699-1.67-3.22-2.202-.784-.798-1.768-2.119-1.205-2.304.564-.185 2.163 1.364 3.378 1.59.81.152 2.094.071 3.851-.24-1.374-2.258-1.813-3.426-1.317-3.505.744-.118 5.514 4.205 4.7 4.64-2.893 1.541-2.268 2.667-1.158 3.342 2.762 1.68-3.71 2.608-4.306 3.242-2.17 2.308 4.11 1.493 3.673 2.33-.53 1.017 4.337-2.958 4.736-3.286.398-.328 2.918 4.502 4.268 3.389.312-.258.485-.794.518-1.61 2.33.564 3.786.657 4.365.28.868-.568-1.592.358-4.365-2.946-2.773-3.304-3.026-7.012-2.289-7.226 1.255-.364 8.72 5.852 9.033 5.676 1.872-1.056 2.893-1.535 3.064-1.438 2.364 1.346 12.47 3.971 12.506 4.203.115.726 2.703 1.987 2.295 2.051l-5.208.825c1.475 2.061 2.2 3.012 2.174 2.85-.026-.16-1.53-1.115-4.51-2.864l-2.495-.891z"/>
            <path stroke="#000" stroke-width="1.5" d="M61.122 60.875c-2.044.832-2.297 1.66-.758 2.48 2.308 1.233-4.024-.743-4.872.082-.49.475-.673 1.473-1.048 2.454-.276.721-.96 1.45-.403 1.87.876.66-.377.257-3.76-1.21l-3.548 1.468-2.025-2.937c-3.17 2.674-5.58 4.142-7.233 4.403-2.48.393 2.492-3.842 1.741-4.412-.75-.57-3.113 1.372-5.295 1.717-2.181.346-4.582.343-5.128-.066-.546-.408 1.597-.873 2.534-1.874.937-1.001 3.716-2.468 2.804-3.001-.912-.533-4.373.942-6.25.99-1.875.048-3.372-.456-3.223-1.096.149-.64 2.439-.78 3.814-1.438.916-.438 2.103-1.135 3.558-2.09-1.355-.427-2.284-.838-2.788-1.234-.505-.396-1.056-1.148-1.654-2.255l5.046.243c-1.625-.937-2.699-1.67-3.22-2.202-.784-.798-1.768-2.119-1.205-2.304.564-.185 2.163 1.364 3.378 1.59.81.152 2.094.071 3.851-.24-1.374-2.258-1.813-3.426-1.317-3.505.496-.079 2.18.432 5.05 1.531-.91-3.48-1.346-5.102-1.308-4.866.037.236 1.996 1.617 5.876 4.142l4.936.232 1.263 2.881c1.914-.175 3.33-.4 4.248-.673.918-.273 1.987-.79 3.207-1.55l.389 2.455.41 2.59 3.518-1.536 1.26 3.357c3.672-.582 5.546-.879 5.622-.89.114-.019.16 2.198.274 2.923.115.726 2.703 1.987 2.295 2.051l-5.208.825c1.475 2.061 2.2 3.012 2.174 2.85-.026-.16-1.53-1.115-4.51-2.864l-2.495-.891z"/>
        </g>
        <g>
            <path fill="#D8D8D8" d="M42.053 32.695s-3.273-16.365 2.512-20.77c1.664-1.268 5.56 1.552 11.686 8.457"/>
            <path fill="#FFF" d="M41.615 32.094s-1.82-18.056 2.55-20.4c1.092-.585 3.342 2.805 6.752 10.17"/>
            <path fill="#D8D8D8" d="M91.44 23.618c0 1.235-2.817-21.146-5.608-21.609-2.722-.445-14.839 15.746-14.336 15.123l19.944 6.486z"/>
            <path fill="#FFF" d="M79.258 16.948c0 1.22 3.578-9.133 6.739-14.94-2.753-.439-15.01 15.555-14.5 14.94h7.761z"/>
            <path fill="#FFF" d="M52.63 56.782c.284-1.102-5.926-2.447-5.675-3.408-4.886-3.966-8.484-10.888-6.245-18.644.642-2.225 6.245-10.849 14.987-14.688 3.774-1.656 3.892-1.58 8.318-2.599 4.427-1.02 1.97-.74 9.628-1.534s16.844 5.857 16.844 5.857 2.04 3.12 3.008 6.134c2.182 6.8 0 15.612 0 15.612l.653 2.32c-9.94 5.841-16.97 9.405-21.093 10.69-12.666 3.948-20.915 2.154-20.426.26z"/>
            <path fill="#D8D8D8" d="M52.63 56.782C97.396 48.4 90.486 21.766 90.486 21.766s2.04 3.12 3.008 6.134c2.182 6.8 0 15.612 0 15.612l.653 2.32c-9.94 5.841-16.97 9.405-21.093 10.69-12.666 3.948-20.915 2.154-20.426.26z"/>
            <path fill="#FFF" d="M79.87 24.27c.552 2.856-1.77 7.431-7.596 8.659-4.237.893-8.283.088-9.866-1.612 1.77-1.583 4.185-2.936 7.242-4.06 3.058-1.123 6.464-2.12 10.22-2.988z"/>
            <g fill-rule="nonzero">
                <path fill="#000" d="M57.424 76.16h5.564v-5.538h-5.564v5.537zM57.424 69.472h5.564v-5.537h-5.564v5.537zM64.144 69.472h5.564v-5.537h-5.564z"/>
                <path fill="#D8D8D8" d="M61.85 68.34h-3.306v-3.29h3.306zM61.85 75.027h-3.306v-3.29h3.306zM68.57 68.34h-3.306v-3.29h3.306z"/>
                <path fill="#000" d="M59.61 66.11h1.174v1.168H59.61zM66.33 66.11h1.174v1.168H66.33zM59.61 72.798h1.174v1.168H59.61zM68.481 73.913h1.174v1.167H68.48zM64.161 73.913h1.174v1.167H64.16zM66.33 71.825h1.174v3.361H66.33zM64.161 70.657h1.174v1.168H64.16zM68.535 70.604h1.084v2.3h-1.084z"/>
                <path fill="#000" d="M64.161 74.939h5.494v1.167H64.16z"/>
            </g>
            <path fill="#000" fill-rule="nonzero" d="M69.175 32.695c-1.32-.168-2.31-.155-2.97.039a4.565 4.565 0 0 1-.495-1.073c-.406-1.437-.018-2.82.902-3.093.92-.273 1.98.655 2.404 2.092.124.418.16 1.53.16 1.219v.816zM46.05 36.89c-.102-1.13.295-2.094 1.047-2.317.807-.24 1.724.447 2.222 1.592.07.158-3.246.977-3.269.724z"/>
            <path stroke="#000" stroke-linecap="round" stroke-linejoin="round" stroke-width="1.5" d="M79.894 24.27c.54 2.843-2.99 6.315-7.855 7.78-3.891 1.17-7.476.698-9.026-.994M42.449 36.705c2.045 1.56 2.698.52 7.458-.33 4.161-.745 5.025-.884 6.453-3.052 0 0-.97-2.012-.97-3.035M41.525 32.695s-1.542-16.437 2.54-20.693c2.304-2.4 11.085 7.593 11.085 7.593M49.102 20.056s-2.796-6.358-4.839-7.824M90.835 21.862S88.381 2.475 85.54 2.01c-2.772-.447-13.948 13.986-13.436 13.36M81.158 14.037S84.218 4.175 85.997 2"/>
            <path fill="#000" fill-rule="nonzero" d="M60.332 33.905c-.483.168-2.86 1.008-2.86 1.008s-2.361.84-2.861 1.009c-.483.168 1.792 2.823 3.998 2.05 2.223-.773 2.205-4.235 1.723-4.067"/>
            <path stroke="#000" stroke-linecap="round" stroke-linejoin="round" stroke-width="1.5" d="M88.067 45.835S81.42 54.224 70.543 57.21c-5.083 1.404-12.867 2.861-21.096-1.884-8.353-4.816-16.013-18.891-.338-31.598 4.124-3.341 12.299-5.67 18.733-6.807 6.007-1.066 20.243-1.315 25.77 10.202 2.115 4.39.729 17.398.729 17.398l.728 4.194"/>
            <path stroke="#000" stroke-linecap="round" stroke-linejoin="round" stroke-width="1.5" d="M59.384 39.316c-2.108 2.553-3.836 5.408-3.836 5.408s-4.148.37-6.446-3.644M72.086 34.501c-1.592 5.274-8.889 8.59-13.307 3.453M61.804 46.36s-3.71.81-6.049-1.025M41.844 37.51c6.501-6.122 15.12-3.767 15.12-3.767M81.158 23.384c-2.628.433-12.806 2.093-19.685 7.506 0 0-1.746-4.457-.317-8.426M64.777 61.965s18.897-2.592 23.733-10.886"/>
        </g>
        <g>
            <path fill="#D8D8D8" d="M75.506 61.369c2.15.502 2.528 1.28 1.137 2.332-2.086 1.578 3.858-1.364 4.825-.682.558.393.895 1.35 1.419 2.26.385.669 1.174 1.281.69 1.783-.761.79.414.196 3.524-1.783l3.734.895 1.542-3.218c3.548 2.146 6.159 3.218 7.832 3.218 2.51 0-3.063-3.405-2.41-4.085.653-.68 3.29.867 5.498.867 2.21 0 4.58-.378 5.056-.867.475-.489-1.715-.612-2.797-1.455-1.081-.842-4.056-1.856-3.239-2.525.818-.669 4.467.246 6.328 0 1.86-.246 3.26-.978 3.012-1.587-.247-.61-2.53-.388-3.991-.823-.975-.29-2.255-.793-3.842-1.508 1.271-.634 2.125-1.185 2.56-1.655.437-.47.864-1.299 1.282-2.486l-4.946 1.029c1.458-1.179 2.404-2.072 2.836-2.679.65-.91 1.415-2.369.829-2.463-.586-.095-1.923 1.685-3.088 2.099-.776.276-2.057.397-3.84.364 1.003-2.445 1.254-3.667.752-3.667s-2.085.767-4.748 2.302c.354-3.58.53-5.25.53-5.01 0 .238-1.718 1.909-5.156 5.01l-4.838 1-.797 3.044c-1.918.127-3.352.127-4.301 0-.95-.127-2.086-.47-3.41-1.029v5.106l-3.715-.965-.719 3.512h-5.693c-.115 0 .187 2.197.187 2.931 0 .735-2.359 2.385-1.945 2.385h5.272c-1.134 2.266-1.7 3.318-1.7 3.155 0-.163 1.335-1.34 4.006-3.535l2.324-1.27z"/>
            <path fill="#929292" d="M75.506 61.369c2.15.502 2.528 1.28 1.137 2.332-2.086 1.578 3.858-1.364 4.825-.682.558.393.895 1.35 1.419 2.26.385.669 1.174 1.281.69 1.783-.761.79.414.196 3.524-1.783l3.734.895 1.542-3.218c3.548 2.146 6.159 3.218 7.832 3.218 2.51 0-3.063-3.405-2.41-4.085.653-.68 3.29.867 5.498.867 2.21 0 4.58-.378 5.056-.867.475-.489-1.715-.612-2.797-1.455-1.081-.842-4.056-1.856-3.239-2.525.818-.669 4.467.246 6.328 0 1.86-.246 3.26-.978 3.012-1.587-.247-.61-2.53-.388-3.991-.823-.975-.29-2.255-.793-3.842-1.508 1.271-.634 2.125-1.185 2.56-1.655.437-.47.864-1.299 1.282-2.486l-4.946 1.029c1.458-1.179 2.404-2.072 2.836-2.679.65-.91 1.415-2.369.829-2.463-.586-.095-1.923 1.685-3.088 2.099-.776.276-2.057.397-3.84.364 1.003-2.445 1.254-3.667.752-3.667-.321 0-1.039 2.016-4.259 2.39-1.41.163.34-4.498-.49-4.236-.683.216-2.225 1.628-4.625 4.235L85.997 48.4v2.679l2.513-1.029c1.524.677 2.3 1.02 2.325 1.029.579.2 1.788-.143 3.63-1.029l2.932 1.029c.606 1.198.794 1.895.563 2.091-2.466 2.091-3.454 2.137-2.89 2.897.91 1.226-.842 2.063-5.254 2.509-2.235 2.703-3.774 4.184-4.616 4.443-1.931.593-3.239-2.067-3.732-1.65-1.202 1.016-2.924-4.634-3.573-4.115-2.124 1.699-3.695 2.826-4.713 3.38-2.707 1.475-5.633-.235-5.633 0 0 .735-2.359 2.385-1.945 2.385h5.272c-1.134 2.266-1.7 3.318-1.7 3.155 0-.163 1.335-1.34 4.006-3.535l2.324-1.27z"/>
            <path stroke="#000" stroke-width="1.5" d="M75.506 61.369c2.15.502 2.528 1.28 1.137 2.332-2.086 1.578 3.858-1.364 4.825-.682.558.393.895 1.35 1.419 2.26.385.669 1.174 1.281.69 1.783-.761.79.414.196 3.524-1.783l3.734.895 1.542-3.218c3.548 2.146 6.159 3.218 7.832 3.218 2.51 0-3.063-3.405-2.41-4.085.653-.68 3.29.867 5.498.867 2.21 0 4.58-.378 5.056-.867.475-.489-1.715-.612-2.797-1.455-1.081-.842-4.056-1.856-3.239-2.525.818-.669 4.467.246 6.328 0 1.86-.246 3.26-.978 3.012-1.587-.247-.61-2.53-.388-3.991-.823-.975-.29-2.255-.793-3.842-1.508 1.271-.634 2.125-1.185 2.56-1.655.437-.47.864-1.299 1.282-2.486l-4.946 1.029c1.458-1.179 2.404-2.072 2.836-2.679.65-.91 1.415-2.369.829-2.463-.586-.095-1.923 1.685-3.088 2.099-.776.276-2.057.397-3.84.364 1.003-2.445 1.254-3.667.752-3.667s-2.085.767-4.748 2.302c.354-3.58.53-5.25.53-5.01 0 .238-1.718 1.909-5.156 5.01l-4.838 1-.797 3.044c-1.918.127-3.352.127-4.301 0-.95-.127-2.086-.47-3.41-1.029v5.106l-3.715-.965-.719 3.512h-5.693c-.115 0 .187 2.197.187 2.931 0 .735-2.359 2.385-1.945 2.385h5.272c-1.134 2.266-1.7 3.318-1.7 3.155 0-.163 1.335-1.34 4.006-3.535l2.324-1.27z"/>
        </g>
    </g>
</svg>
