<?xml version="1.0" encoding="UTF-8"?>
<svg width="208px" height="208px" viewBox="0 0 208 208" version="1.1" xmlns="http://www.w3.org/2000/svg" xmlns:xlink="http://www.w3.org/1999/xlink">
    <g id="Page-1" stroke="none" stroke-width="1" fill="none" fill-rule="evenodd">
        <g id="Card-Monobank-Tariff-Description" transform="translate(-84.000000, -64.000000)">
            <g id="Card-Cat" transform="translate(84.000000, 64.000000)">
                <g id="cat25" transform="translate(14.000000, 18.000000)">
                    <path d="M88.7091269,64.7377758 L81.3718969,64.3529846 C78.2819911,57.6424926 73.5467562,47.0593973 70.916622,44.5862856 C63.4825548,37.5729374 51.9584727,39.986128 49.2023615,51.087909 C48.7874471,52.7592089 48.571244,54.6274211 48.5976213,56.6900278 C48.6097457,57.6381081 50.1562066,60.2536215 51.8239222,62.803382 L33.880521,61.8623624 C31.8700066,61.7569237 30.1548486,63.3004517 30.0496084,65.3099289 L29.7687321,70.6730393 C29.394807,70.6391867 29.0210439,70.6159583 28.6576983,70.6077877 C17.7717857,70.4060586 16.7638308,81.8757953 18.4053573,90.4925071 L28.4624398,95.6156514 L27.7629585,108.971691 C27.6577183,110.981168 29.2022483,112.695646 31.2127628,112.801085 L63.4266398,114.490499 C65.6635035,118.583339 68.0397049,122.758192 70.3210947,126.451127 L69.9641767,126.743473 C66.7003228,129.048947 63.4368439,131.642606 60.17374,134.52445 C-19.0238392,115.504283 4.27431773,170.259308 4.27431773,170.259308 C4.27431773,170.259308 32.8714374,152.132513 80.5909009,152.651245 C139.599459,176.051813 157.713848,157.233376 157.713848,157.233376 C198.348829,112.824169 169.463722,45.2449413 169.463722,45.2449413 L169.354893,45.3340817 L169.398274,45.2894655 C168.872179,42.402596 167.885697,39.8207082 166.557171,37.5142925 C162.084449,26.6374383 150.639119,0.0688817424 145.531923,0.000128018678 C141.384909,-0.0575088492 132.687698,19.3661156 132.687698,19.3661156 L132.910163,19.5075842 C132.772955,19.4934639 132.63858,19.4803287 132.507125,19.4681487 C126.098626,18.8767584 120.246772,18.7831365 114.503452,19.7269056 L115.205838,19.3467986 C115.205838,19.3467986 85.341575,3.17965712 82.4041066,7.30069318 C80.2154046,10.3554472 87.6742706,34.2459289 87.6742706,34.2459289 L88.9194395,33.5720867 C83.8612853,40.1283417 82.9067051,47.6831121 84.3268825,54.4249091 C85.1422535,58.2325797 86.6986374,61.7778661 88.7091267,64.7377762 L88.7091269,64.7377758 Z" id="Combined-Shape" fill="#FFFFFF"></path>
                    <path d="M158.839861,157.426725 C158.839861,157.426725 140.755332,176.085135 81.8986625,152.873927 C34.3017647,152.379841 5.77540107,170.343273 5.77540107,170.343273 C5.77540107,170.343273 13.8398691,141.771345 73.055815,141.771345 C74.2090232,141.771345 86.4202211,143.611388 109.689409,147.291475 C131.889344,144.697984 146.426595,140.685115 153.30116,135.25287 C156.49087,132.732377 158.839861,121.283422 143.42246,119.358289 C141.06825,119.064324 127.300405,114.068615 127.300405,108.048128 C128.144771,108.228964 138.090982,104.298483 157.139037,96.2566845 C158.987785,102.292992 161.15356,105.101495 163.636364,104.682192 C167.517823,104.02668 168.574402,99.7961823 169.171123,96.2566845 C170.549281,88.082024 169.756231,76.3217047 166.791974,60.9757264 C162.911914,43.39576 156.966996,32.2951168 148.957219,27.6737968 C140.947442,23.0524768 125.466159,22.08991 102.513369,24.7860963 C97.5217302,15.6187189 90.6501614,9.68289001 81.8986625,6.97860963 C97.8219855,8.24385899 116.095037,20.3797305 116.54773,20.5986369 L131.871658,20.5986369 C135.240642,13.9572193 139.717025,0.962566845 144.986241,0.962566845 C150.255456,0.962566845 169.171123,46.4429103 169.171123,46.4429103 C169.171123,46.4429103 193.475936,112.379679 158.839861,157.426725 Z" id="Combined-Shape-Copy-93" fill="#D8D8D8"></path>
                    <path d="M33.4053072,72.527942 C33.4053072,72.527942 30.2900395,71.7201023 27.6988355,71.6623994 C16.6934972,71.4604395 15.6744844,82.9433039 17.3340195,91.5698779 L33.4053072,99.6771264" id="Shape-Copy-17" stroke="#000000" stroke-width="2" fill="#FFFFFF" stroke-linecap="round" stroke-linejoin="round"></path>
                    <path d="M82.4356775,70.0433861 C80.0133252,65.2978244 73.3468675,49.1053927 70.041069,45.9704459 C62.684559,38.9710798 51.2807041,41.3794594 48.5533466,52.4591073 C48.1427609,54.1270753 47.9288134,55.9915629 47.9549154,58.0500575 C47.9810175,60.1085521 55.1934742,70.0433861 55.1934742,70.0433861" id="Shape-Copy-18" stroke="#000000" stroke-width="2" fill="#FFFFFF" stroke-linecap="round" stroke-linejoin="round"></path>
                    <g id="Group-Copy" transform="translate(69.504591, 90.248209) rotate(3.000000) translate(-69.504591, -90.248209) translate(28.017354, 64.655433)">
                        <path d="M3.65526312,0 L79.3192097,0 C81.3379558,0 82.9744728,1.63689657 82.9744728,3.65611081 L82.9744728,47.5294406 C82.9744728,49.5486548 81.3379558,51.1855514 79.3192097,51.1855514 L3.65526312,51.1855514 C1.63651704,51.1855514 0,49.5486548 0,47.5294406 L0,3.65611081 C0,1.63689657 1.63651704,0 3.65526312,0 Z" id="Combined-Shape" fill="#000000"></path>
                        <path d="M7.96745267,31.2431288 L19.9119702,31.2431288 C20.6462299,31.2431288 21.241465,31.8383639 21.241465,32.5726236 L21.241465,32.5726236 C21.241465,33.3068833 20.6462299,33.9021185 19.9119702,33.9021185 L7.96745267,33.9021185 C7.23319294,33.9021185 6.63795782,33.3068833 6.63795782,32.5726236 L6.63795782,32.5726236 C6.63795782,31.8383639 7.23319294,31.2431288 7.96745267,31.2431288 Z" id="Rectangle-3" fill="#6C6C6C"></path>
                        <path d="M34.519284,38.5553504 L51.7741678,38.5553504 C52.5084275,38.5553504 53.1036626,39.1505855 53.1036626,39.8848453 L53.1036626,39.8848453 C53.1036626,40.619105 52.5084275,41.2143401 51.7741678,41.2143401 L34.519284,41.2143401 C33.7850242,41.2143401 33.1897891,40.619105 33.1897891,39.8848453 L33.1897891,39.8848453 C33.1897891,39.1505855 33.7850242,38.5553504 34.519284,38.5553504 Z" id="Rectangle-3-Copy-4" fill="#6C6C6C"></path>
                        <path d="M25.8899388,31.2431288 L37.8344563,31.2431288 C38.568716,31.2431288 39.1639512,31.8383639 39.1639512,32.5726236 L39.1639512,32.5726236 C39.1639512,33.3068833 38.568716,33.9021185 37.8344563,33.9021185 L25.8899388,33.9021185 C25.1556791,33.9021185 24.560444,33.3068833 24.560444,32.5726236 L24.560444,32.5726236 C24.560444,31.8383639 25.1556791,31.2431288 25.8899388,31.2431288 Z" id="Rectangle-3-Copy" fill="#6C6C6C"></path>
                        <path d="M44.4762207,31.2431288 L56.4207382,31.2431288 C57.154998,31.2431288 57.7502331,31.8383639 57.7502331,32.5726236 L57.7502331,32.5726236 C57.7502331,33.3068833 57.154998,33.9021185 56.4207382,33.9021185 L44.4762207,33.9021185 C43.741961,33.9021185 43.1467259,33.3068833 43.1467259,32.5726236 L43.1467259,32.5726236 C43.1467259,31.8383639 43.741961,31.2431288 44.4762207,31.2431288 Z" id="Rectangle-3-Copy-2" fill="#6C6C6C"></path>
                        <path d="M63.0625026,31.2431288 L75.0070201,31.2431288 C75.7412799,31.2431288 76.336515,31.8383639 76.336515,32.5726236 L76.336515,32.5726236 C76.336515,33.3068833 75.7412799,33.9021185 75.0070201,33.9021185 L63.0625026,33.9021185 C62.3282429,33.9021185 61.7330078,33.3068833 61.7330078,32.5726236 L61.7330078,32.5726236 C61.7330078,31.8383639 62.3282429,31.2431288 63.0625026,31.2431288 Z" id="Rectangle-3-Copy-3" fill="#6C6C6C"></path>
                        <ellipse id="Oval-3-Copy-4" fill="#EB6F6F" cx="65.7157825" cy="41.2143401" rx="5.31036626" ry="5.31797937"></ellipse>
                        <ellipse id="Oval-3-Copy-5" fill="#FFD102" cx="72.3537403" cy="41.2143401" rx="5.31036626" ry="5.31797937"></ellipse>
                        <path d="M69.0347614,37.2258556 C70.2546961,38.1938058 71.0261487,39.6217156 71.0261487,41.2143401 C71.0261487,42.8069646 70.2546961,44.2348744 69.0347614,45.2028246 C67.8148266,44.2348744 67.043374,42.8069646 67.043374,41.2143401 C67.043374,39.6217156 67.8148266,38.1938058 69.0347614,37.2258556 L69.0347614,37.2258556 Z" id="Combined-Shape" fill="#F08D7A"></path>
                    </g>
                    <path d="M68.8865861,127.638341 C65.6227322,129.953496 62.3592533,132.558046 59.0961494,135.45199 C-20.1014297,116.351958 3.19672718,171.336898 3.19672718,171.336898 C3.19672718,171.336898 31.7938468,153.133989 79.5133103,153.654899 C138.521868,177.153726 156.636257,158.256271 156.636257,158.256271 C197.271238,113.66059 168.386131,45.7975986 168.386131,45.7975986" id="Shape-Copy-19" stroke="#000000" stroke-width="2" stroke-linecap="round" stroke-linejoin="round"></path>
                    <path d="M86.5260069,35.0216931 C86.5260069,35.0216931 79.0218904,11.2515647 81.2238705,8.21219964 C84.1791596,4.11192417 114.224599,20.1976202 114.224599,20.1976202" id="Shape-Copy-20" stroke="#000000" stroke-width="2" stroke-linecap="round" stroke-linejoin="round"></path>
                    <path d="M99.6771264,19.39663 C99.6771264,19.39663 87.3212281,8.60547552 82.4356775,7.54313389" id="Shape-Copy-21" stroke="#000000" stroke-width="2" stroke-linecap="round" stroke-linejoin="round"></path>
                    <path d="M166.487741,39.8708506 C166.487741,39.8708506 150.623458,0.625685353 144.237655,0.53892375 C140.114087,0.481082681 131.466048,19.9735229 131.466048,19.9735229" id="Shape-Copy-28" stroke="#000000" stroke-width="2" stroke-linecap="round" stroke-linejoin="round"></path>
                    <path d="M149.785087,20.4742206 C149.785087,20.4742206 146.158271,5.04766103 143.858339,1.61638583" id="Shape-Copy-29" stroke="#000000" stroke-width="2" stroke-linecap="round" stroke-linejoin="round"></path>
                    <path d="M168.642922,46.2781423 C165.129477,26.9447272 141.082535,21.2516289 131.751745,20.3846596 C121.758585,19.4598923 113.118965,19.7488821 104.133761,23.3034562 C85.4145846,30.7015941 81.2099697,44.197416 83.5714657,55.4391178 C84.8674087,61.5079029 88.0352693,66.9120114 91.9230982,70.3509896 C92.0094944,70.4376865 92.0958906,70.5243835 92.1822868,70.5821814" id="Shape-Copy-30" stroke="#000000" stroke-width="2" stroke-linecap="round" stroke-linejoin="round"></path>
                    <path d="M95.9055595,73.2533504 C124.004791,92.376291 152.479064,71.659772 152.479064,71.659772" id="Shape-Copy-31" stroke="#000000" stroke-width="2" stroke-linecap="round" stroke-linejoin="round"></path>
                    <path d="M125.5393,112.88738 C125.5393,112.88738 105.709277,113.868753 89.395625,118.948801 C89.395625,118.948801 84.178715,101.284089 80.0282451,91.297177 C77.6647831,85.6109872 68.527985,77.9620516 51.7243467,95.1649407 C51.7243467,95.1649407 71.4102557,135.834187 78.4718189,139.297856 C88.1562486,144.031537 107.784512,147.091111 107.784512,147.091111" id="Shape-Copy-32" stroke="#000000" stroke-width="2" fill="#FFFFFF" stroke-linecap="round" stroke-linejoin="round"></path>
                    <path d="M156.789426,96.9079901 C156.789426,96.9079901 144.119412,115.108733 131.793381,110.12901 C119.381354,105.120165 98.3124406,95.4228094 93.9266667,94.1705982 C93.9266667,94.1705982 91.232139,76.3775515 106.911997,78.911095" id="Shape-Copy-33" stroke="#000000" stroke-width="2" fill="#FFFFFF" stroke-linecap="round" stroke-linejoin="round"></path>
                    <path d="M104.526284,114.763394 C105.992394,111.92763 108.074269,104.951649 108.836646,101.832308 L104.526284,114.763394 Z" id="Shape-Copy-34" stroke="#000000" stroke-width="2" stroke-linecap="round" stroke-linejoin="round"></path>
                    <g id="Group-20-Copy" transform="translate(88.362426, 32.327717)">
                        <path d="M24.0251144,14.6114743 C23.2748166,14.8767504 19.5769199,16.2031312 19.5769199,16.2031312 C19.5769199,16.2031312 15.9058195,17.5295119 15.1287253,17.7947881 C14.3784274,18.0600642 17.915546,22.2514274 21.3454792,21.0311571 C24.8022087,19.8108868 24.7754123,14.3461981 24.0251144,14.6114743" id="Shape" fill="#000000" fill-rule="nonzero" transform="translate(19.729899, 17.927746) rotate(19.000000) translate(-19.729899, -17.927746) "></path>
                        <path d="M19.7692407,20.6322305 C16.5000856,24.6644279 13.8204503,29.1741225 13.8204503,29.1741225 C13.8204503,29.1741225 7.38932565,29.75773 3.82541072,23.41763" id="Shape" stroke="#000000" stroke-width="2" stroke-linecap="round" stroke-linejoin="round" transform="translate(11.797326, 24.910230) rotate(19.000000) translate(-11.797326, -24.910230) "></path>
                        <path d="M39.4875802,18.8106903 C37.1027048,26.9546681 26.1697928,32.0744978 19.5510937,24.1427409" id="Shape" stroke="#000000" stroke-width="2" stroke-linecap="round" stroke-linejoin="round" transform="translate(29.519337, 23.457645) rotate(19.000000) translate(-29.519337, -23.457645) "></path>
                        <path d="M21.129998,32.5984141 C21.129998,32.5984141 15.3955785,33.7921567 11.7780709,31.08634" id="Shape" stroke="#000000" stroke-width="2" stroke-linecap="round" stroke-linejoin="round" transform="translate(16.454034, 31.973526) rotate(19.000000) translate(-16.454034, -31.973526) "></path>
                        <path d="M1.40562812,14.2355531 C4.38712578,10.8345365 11.9880606,8.24357247 20.1304599,8.33969945 C19.3214338,6.71809578 18.5348302,5.54295685 17.7706491,4.81428267 C17.0064681,4.08560849 15.9555733,3.50862646 14.6179647,3.08333659" id="Shape" stroke="#000000" stroke-width="2" stroke-linecap="round" stroke-linejoin="round" transform="translate(10.768044, 8.659445) rotate(19.000000) translate(-10.768044, -8.659445) "></path>
                        <path d="M58.608272,6.29871067 C54.6156155,6.93537343 39.1541199,9.37591401 28.7035422,17.3341985 C28.7035422,17.3341985 26.0507033,10.7818776 28.2212079,4.9458023" id="Shape" stroke="#000000" stroke-width="2" stroke-linecap="round" stroke-linejoin="round" transform="translate(42.987867, 11.140000) rotate(19.000000) translate(-42.987867, -11.140000) "></path>
                    </g>
                </g>
            </g>
        </g>
    </g>
</svg>
