<svg xmlns="http://www.w3.org/2000/svg" width="214" height="208" viewBox="0 0 214 208">
    <g fill="none" fill-rule="evenodd">
        <g transform="translate(0 23)">
            <ellipse cx="114.614" cy="144.988" fill="#000" fill-rule="nonzero" opacity=".44" rx="99.067" ry="11.247"/>
            <path fill="#69998D" fill-rule="nonzero" stroke="#000" stroke-width="2" d="M142.763 155.015l-22.055-.24a.915.915 0 0 1-.802-1.335l1.535-2.963a.915.915 0 0 1 .812-.494h20.755a.915.915 0 0 1 .912.981l-.235 3.204a.915.915 0 0 1-.922.847z"/>
            <path fill="#69998D" fill-rule="nonzero" stroke="#000" stroke-width="2" d="M158.13 152.04l-21.378-.232a1 1 0 0 1-.835-.466l-1.755-2.782a1 1 0 0 1 .846-1.534h20.072a1 1 0 0 1 .702.288l3.06 3.015a1 1 0 0 1-.713 1.712z"/>
            <path fill="#69998D" fill-rule="nonzero" stroke="#000" stroke-width="2" d="M180.078 152.955l-21.377-.232a1 1 0 0 1-.835-.466l-1.755-2.783a1 1 0 0 1 .845-1.533h20.073a1 1 0 0 1 .701.287l3.06 3.015a1 1 0 0 1-.712 1.712zM195.037 138.536l-21.377-.232a1 1 0 0 1-.834-.467l-1.756-2.782a1 1 0 0 1 .846-1.534h20.072a1 1 0 0 1 .702.288l3.06 3.015a1 1 0 0 1-.713 1.712zM2.478 144.938l21.377-.233a1 1 0 0 0 .835-.466l1.755-2.782a1 1 0 0 0-.846-1.534H5.527a1 1 0 0 0-.702.288l-3.06 3.015a1 1 0 0 0 .713 1.712zM11.623 136.92L33 136.688a1 1 0 0 0 .835-.466l1.755-2.783a1 1 0 0 0-.845-1.533H14.673a1 1 0 0 0-.702.287l-3.06 3.015a1 1 0 0 0 .712 1.712zM25.929 155.699l21.377-.232a1 1 0 0 0 .835-.467l1.755-2.782a1 1 0 0 0-.846-1.534H28.978a1 1 0 0 0-.702.288l-3.06 3.015a1 1 0 0 0 .713 1.712zM54.28 151.126l21.376-.232a1 1 0 0 0 .835-.466l1.755-2.783a1 1 0 0 0-.845-1.533H57.329a1 1 0 0 0-.702.287l-3.06 3.015a1 1 0 0 0 .712 1.712z"/>
            <path fill="#69998D" fill-rule="nonzero" stroke="#000" stroke-width="2" d="M10.382 152.955l21.377-.232a1 1 0 0 0 .835-.466l1.755-2.783a1 1 0 0 0-.846-1.533H13.431a1 1 0 0 0-.702.287l-3.06 3.015a1 1 0 0 0 .713 1.712z"/>
            <path fill="#FFF" d="M130.386 138.308c22.529 1.69 37.014 1.69 43.454 0 25.512-6.69 20.736-24.911 20.736-24.911s-8.41 4.487-29.05 7.92c-4.985.829-14.102.829-27.35 0"/>
            <path fill="#D8D8D8" d="M130.386 139.497c28.917 5.782 51.769-1.698 51.769-5.547-32.381 3.85-46.068-2.205-44.443-11.445-2.38 7.51-10.618 21.627-7.326 16.992z"/>
            <path stroke="#000" stroke-linecap="round" stroke-linejoin="round" stroke-width="2" d="M130.088 139.617c70.691 11.354 64.935-26.524 64.935-26.524s-32.835 11.752-57.78 9.528"/>
            <path fill="#FFF" d="M147.436 116.083c-2.984 0-3.533 19.868-12.954 30.498 0 0-72.073-1.006-72.073-2.757-6.937-15.808-10.132-27.741-10.206-33.663-.074-5.922 3.334-23.33 6.154-34.264.402-1.559 3.7-6.563 4.052-7.923 25.589-7.18 52.52-6.784 52.52-6.784l12.278 3.553c14.266 15.185 21.009 23.308 20.229 24.368 2.5 10.474 2.5 18.9 0 26.972z"/>
            <path fill="#D8D8D8" d="M149.575 114.074s-3.54 21.35-12.978 32.076c0 0-68.302-.393-72.183 0-1.331-5.655-2.402-4.343-7.825-18.691-5.422-14.348 61.887-3.925 62.072-4.344 5.046-11.414 8.217-43.023-11.095-52.205-2.856-1.358-2.008-5.18 2.544-11.47 17.658 4.591 28.799 11.475 33.424 20.652 8.923 17.706 6.04 30.44 6.04 33.982z"/>
            <path stroke="#000" stroke-linecap="round" stroke-linejoin="round" stroke-width="2" d="M63.836 71.096s-13.023 14.84-11.726 43.486c0 0 1.507 17.771 11.726 31.519 0 0 4.564 2.513 10.035 1.05M111.194 59.44s45.994 8.321 36.935 55.457c0 0-3.541 21.21-12.986 31.864 0 0-14.64-.132-19.154-.611M92.93 146.736c.329.026 2.341.222 4.764.16"/>
            <path fill="#FFF" fill-rule="nonzero" d="M125.507 64.277c-.154.236-.311.472-.471.706l-.492-3.705.11-.857c.096-.786.196-1.666.294-2.62.322-3.126.244-5.916.31-8.872.114-5.064.059-9.317-.936-11.655-1.015-2.396-3.697-6.322-3.609-6.33.515-.05.534-4.143.41-5.244a203.43 203.43 0 0 0-1.25-9.243c-.595-3.704-1.238-6.818-1.93-9.162-.841-2.847-1.708-4.54-2.917-4.994a.952.952 0 0 0-.493-.114c-2.14-.19-5.95 3.065-11.495 8.974a192.01 192.01 0 0 0-5.533 6.177c-.625.727-5.759 4.096-7.56 4.361-5.536.811-10.886 2.046-15.453 3.616-.017-.177-1.241-1.805-1.626-2.267a80.558 80.558 0 0 0-3.439-3.887 49.908 49.908 0 0 0-2.436-2.412c-1.519-1.394-2.88-2.417-4.066-3-1.051-.517-2.008-.703-2.814-.47-.43-.265-1.512.797-1.437 1.063-2.05 2.469-3.248 7.125-3.843 13.427-.37 3.918-.47 8.109-.39 12.124.011.628.028 1.207.046 1.73-2.552 4.702-3.455 9.615-2.793 14.55.33 2.466 1.15 4.779 2.293 6.97a27.687 27.687 0 0 0 6.663 9.038c.28.305.56.61.843.911-.02.067 11.844 6.892 32.027 1.39 22.996-6.27 33.339-12.274 31.987-10.205z"/>
            <path fill="#D7D7D7" d="M59.597 13.493c.804-.233 1.76-.046 2.809.47 1.184.581 2.542 1.603 4.058 2.995a49.823 49.823 0 0 1 2.432 2.409 80.426 80.426 0 0 1 3.433 3.88c.384.462.732.89 1.04 1.276.041.052.397.403 1.737.06 2.671-.681 13.45-3.474 11.099-1.95-2.351 1.523-13.571 4.922-18.37 7.993-4.797 3.07-6.16 4.251-6.13 3.433.028-.818 4.989-6.525 4.442-8.033-3.372-9.305-6.967-12.789-6.55-12.533zm54.592-11.318a.95.95 0 0 1 .492.113c1.206.454 2.071 2.144 2.91 4.987.692 2.34 2.169 6.477 2.756 12.084.391 3.738.634 8.014.728 12.828 2.74 2.974 4.125 6.844 4.154 11.609.009 1.4-.14 5.663-.446 12.787l.01 8.114c-.571-2.077 9.853 23.144-17.777 27.767-6.674 1.117-16.817-8.233-21.395-15.062-5.179.526-14.446.526-19.393-2.394-1.886-1.113-4.247-2.932-7.081-5.457 7.722 1.335 13.743 1.85 18.064 1.545 21.425-1.513 27.215-6.921 30.899-9.566 4.826-3.465 12.122-14.883 10.85-20.585-2.326-10.426-6.09-18.282-10.164-19.31-1.587-.4-1.016.11-2.645-.092-3.996-.496 6.048-17.356 8.038-19.368zm-40.82 56.78c2.036 1.335 3.448 1.88 4.234 1.638 2.043-.63 6.015-3.59 7.114-7.097.13-.412.805-.389 2.029.071.072.141 4.232-1.065 6.972-4.514.597-.753.666-2.72.206-5.904 1.827 2.446 2.509 4.694 2.045 6.743 3.628 3.502.516 8.37-2.673 11.25-3.19 2.878-17.011 8.546-21.515 2.731-.83-1.073-3.361-2.92-7.591-5.54 3.995 1.032 6.427 1.548 7.297 1.55.586.001 1.886-.826 1.881-.928z"/>
            <path stroke="#000" stroke-linecap="round" stroke-linejoin="round" stroke-width="2" d="M57.607 48.886c-.102-3.224 1.891-5.303 5.98-6.237 4.084-.932 7.33-.818 9.741.34.072-2.069-.113-3.83-.555-5.284"/>
            <path fill="#000" fill-rule="nonzero" d="M78.585 43.89c-.668.223-3.96 1.337-3.96 1.337s-3.268 1.115-3.96 1.337c-.668.222 2.305 4.21 5.358 3.186 3.077-1.024 3.23-6.082 2.562-5.86"/>
            <path stroke="#000" stroke-linecap="round" stroke-linejoin="round" stroke-width="2" d="M77.54 52.209c-3.036 3.67-5.564 7.804-5.564 7.804s-9.353.456-8.694-5.694M94.289 43.235c2.323 9.634-12.346 14.349-17.969 6.788M73.25 58.182c1.545 6.06 12.335-.418 11.507-4.527M107.736 34.48c-6.6-2.842-11.841-3.64-15.726-2.397-3.886 1.244-7.743 3.883-11.573 7.916-1.75-3.553-2.487-7.042-2.21-10.467"/>
            <path fill-rule="nonzero" stroke="#000" stroke-width="2" d="M125.036 64.983l-.492-3.705.11-.857c.096-.786.196-1.666.294-2.62.322-3.126.244-5.916.31-8.872.114-5.064.059-9.317-.936-11.655-1.015-2.396-3.697-6.322-3.609-6.33.515-.05.534-4.143.41-5.244a203.43 203.43 0 0 0-1.25-9.243c-.595-3.704-1.238-6.818-1.93-9.162-.841-2.847-1.708-4.54-2.917-4.994a.952.952 0 0 0-.493-.114c-2.14-.19-5.95 3.065-11.495 8.974a192.01 192.01 0 0 0-5.533 6.177c-.625.727-5.759 4.096-7.56 4.361-5.536.811-10.886 2.046-15.453 3.616-.017-.177-1.241-1.805-1.626-2.267a80.558 80.558 0 0 0-3.439-3.887 49.908 49.908 0 0 0-2.436-2.412c-1.519-1.394-2.88-2.417-4.066-3-1.051-.517-2.008-.703-2.814-.47-.43-.265-1.512.797-1.437 1.063-2.05 2.469-3.248 7.125-3.843 13.427-.37 3.918-.47 8.109-.39 12.124.011.628.028 1.207.046 1.73-2.552 4.702-3.455 9.615-2.793 14.55.33 2.466 1.15 4.779 2.293 6.97a27.687 27.687 0 0 0 6.663 9.038c.28.305.56.61.843.911"/>
            <path stroke="#000" stroke-linecap="round" stroke-linejoin="round" stroke-width="2" d="M55.871 66.372c5.222 8.637 14.758 12.375 28.607 11.215 13.85-1.16 24.583-5.365 32.2-12.614"/>
            <g>
                <g fill-rule="nonzero">
                    <path fill="#000" d="M73.329 100.186h7.697v-7.697H73.33v7.697zM73.329 90.89h7.697v-7.697H73.33v7.697zM82.625 90.89h7.697v-7.697h-7.697z"/>
                    <path fill="#D8D8D8" d="M79.452 89.316h-4.574v-4.574h4.574zM79.452 98.612h-4.574v-4.574h4.574zM88.748 89.316h-4.574v-4.574h4.574z"/>
                    <path fill="#000" d="M76.354 86.217h1.623v1.624h-1.623zM85.65 86.217h1.623v1.624H85.65zM76.354 95.513h1.623v1.623h-1.623zM88.625 97.063h1.623v1.623h-1.623zM82.65 97.063h1.622v1.623H82.65zM85.65 94.16h1.623v4.673H85.65zM82.65 92.538h1.622v1.623H82.65zM88.699 92.464h1.5v3.197h-1.5z"/>
                    <path fill="#000" d="M82.65 98.49h7.598v1.622H82.65z"/>
                </g>
                <path stroke="#000" stroke-linecap="round" stroke-linejoin="round" stroke-width="2" d="M90.577 83.368s19.646-2.364 26.434-7.48M62.907 79.971c9.247 4.599 20.142 4.254 20.142 4.254"/>
            </g>
            <g fill-rule="nonzero">
                <path fill="#4F8277" stroke="#000" stroke-linecap="round" stroke-linejoin="round" stroke-width="2" d="M21.5 116.758h151.898a1 1 0 0 1 1 1v4.484l-2.742.53 2.742 1.858v2.034l-2.302 1.327 2.414 2.565-.071 11.41-3.111.708 3.101.885-.024 3.871a1 1 0 0 1-1.019.994l-25.69-.483-7.086 3.212-19.33-.469-15.42-2.929-14.605-.146-22.894.834h-46.85a1 1 0 0 1-1-1.011l.08-7.15.029-2.65 2.24-1.226.401-2.046-1.611-1.971.176-2.452 2.961-.707.919-2.212h5.22H20.5v-2.388l2.556-.442.279-1.592H20.5v-4.838a1 1 0 0 1 1-1z"/>
                <path fill="#8EE2CF" d="M21.936 117.007h151.422a1 1 0 0 0 .767-1.643l-7.43-8.863a1 1 0 0 0-.766-.358H29.365a1 1 0 0 0-.766.358l-7.43 8.863a1 1 0 0 0 .767 1.643z"/>
                <path fill="#69998D" d="M30.568 115.431l24.399-.265 3.013-4.777H35.685z"/>
                <path fill="#75C1B0" d="M27.03 113.308l24.399-.265 3.013-4.777H32.147zM51.796 113.308l24.4-.265 3.013-4.777H56.914zM165.539 113.308l-24.4-.265-3.013-4.777h22.296z"/>
                <path stroke="#000" stroke-width="2" d="M21.936 117.007h151.422a1 1 0 0 0 .767-1.643l-7.43-8.863a1 1 0 0 0-.766-.358H29.365a1 1 0 0 0-.766.358l-7.43 8.863a1 1 0 0 0 .767 1.643z"/>
                <path stroke="#000" stroke-linecap="round" stroke-linejoin="round" stroke-width="2" d="M21.916 131.972h21.1M36.776 136.217h56.481M67.911 132.325h56.482M138.673 133.387h21.1M152.826 130.556h21.1M152.826 125.957h21.1M151.41 142.586h21.101M96.216 124.542h21.1M21.916 122.773h21.1M21.916 137.102h21.1M150.703 122.773h21.1M21.32 140.728h21.1M21.208 144.001h57.19M116.737 138.34h57.19"/>
                <path fill="#75C1B0" d="M171.2 115.431l-24.4-.265-3.013-4.777h22.296z"/>
                <path fill="#69998D" d="M171.2 115.431l-24.4-.265-3.013-4.777h22.296z"/>
                <path fill="#75C1B0" d="M145.018 114.723l-26.522-.265-.89-4.776H139.9z"/>
                <path fill="#8EE2CF" d="M156.34 114.723l-24.4-.265-3.013-4.776h22.295z"/>
            </g>
            <ellipse cx="131.951" cy="111.376" fill="#000" fill-rule="nonzero" opacity=".5" rx="25.828" ry="3.11"/>
            <ellipse cx="63.312" cy="111.376" fill="#000" fill-rule="nonzero" opacity=".5" rx="25.828" ry="3.11"/>
            <g fill-rule="nonzero">
                <path fill="#FFF" d="M69.592 103.996c0-6.25-6.272-12.9-16.521-12.9-10.25 0-16.295 6.65-16.295 12.9 0 4.93 2.49 8.826 10.382 8.471 1.386 1.034 5.913 2.392 12.59 0 9.052 0 9.844-5.511 9.844-8.471z"/>
                <path fill="#D8D8D8" d="M69.592 103.996c0-3.719-2.22-7.579-6.177-10.096 1.049 4.033 1.049 6.474-3.102 7.38-.566 3.281-1.938 5.545-4.3 7.129-3.072 2.06-6.023 2.362-8.855.905v3.153c3.942 1.595 8.138 1.595 12.59 0 9.052 0 9.844-5.511 9.844-8.471z"/>
                <path stroke="#000" stroke-linecap="round" stroke-width="2" d="M47.526 112.143c-2.113-4.904-2.641-8.374-1.585-10.411M58.992 112.143c2.113-4.904 2.641-8.374 1.585-10.411"/>
                <path stroke="#000" stroke-width="2" d="M69.592 103.996c0-6.25-6.272-12.9-16.521-12.9-10.25 0-16.295 6.65-16.295 12.9 0 4.93 2.49 8.826 10.382 8.471 1.386 1.034 5.913 2.392 12.59 0 9.052 0 9.844-5.511 9.844-8.471z"/>
            </g>
            <g fill-rule="nonzero">
                <path fill="#FFF" d="M138.232 104.184c0-6.25-6.272-12.9-16.522-12.9-10.25 0-16.295 6.65-16.295 12.9 0 4.93 2.49 8.826 10.383 8.471 1.386 1.034 5.912 2.392 12.589 0 9.052 0 9.845-5.511 9.845-8.471z"/>
                <path fill="#D8D8D8" d="M138.232 104.184c0-3.719-2.22-7.579-6.178-10.096 1.05 4.033 1.05 6.474-3.101 7.38-.566 3.281-1.938 5.545-4.3 7.129-3.072 2.06-6.024 2.361-8.855.905v3.153c3.941 1.595 8.138 1.595 12.589 0 9.052 0 9.845-5.511 9.845-8.471z"/>
                <path stroke="#000" stroke-linecap="round" stroke-width="2" d="M116.165 112.331c-2.113-4.904-2.64-8.374-1.584-10.411M127.632 112.331c2.113-4.904 2.64-8.374 1.584-10.411"/>
                <path stroke="#000" stroke-width="2" d="M138.232 104.184c0-6.25-6.272-12.9-16.522-12.9-10.25 0-16.295 6.65-16.295 12.9 0 4.93 2.49 8.826 10.383 8.471 1.386 1.034 5.912 2.392 12.589 0 9.052 0 9.845-5.511 9.845-8.471z"/>
            </g>
            <path fill="#69998D" fill-rule="nonzero" stroke="#000" stroke-width="2" d="M208.755 142.194l-21.377-.232a1 1 0 0 1-.835-.466l-1.755-2.783a1 1 0 0 1 .846-1.534h20.072a1 1 0 0 1 .702.288l3.06 3.015a1 1 0 0 1-.713 1.712zM202.353 155.912l-21.376-.232a1 1 0 0 1-.835-.467l-1.756-2.782a1 1 0 0 1 .846-1.534h20.072a1 1 0 0 1 .702.288l3.06 3.015a1 1 0 0 1-.713 1.712zM118.905 158.673l-21.836-.238a1 1 0 0 1-.877-1.46l1.447-2.794a1 1 0 0 1 .888-.54h20.611a1 1 0 0 1 .997 1.073l-.222 3.032a1 1 0 0 1-1.008.927zM85.982 161.416l-21.836-.237a1 1 0 0 1-.877-1.46l1.447-2.794a1 1 0 0 1 .888-.54h20.61a1 1 0 0 1 .998 1.073l-.222 3.031a1 1 0 0 1-1.008.927z"/>
        </g>
    </g>
</svg>
