<svg xmlns="http://www.w3.org/2000/svg" width="208" height="208" viewBox="0 0 208 208">
    <g fill="none" fill-rule="evenodd">
        <g transform="translate(12 17)">
            <ellipse cx="95.45" cy="155.25" fill="#000" fill-rule="nonzero" opacity=".11" rx="88.55" ry="18.783"/>
            <path fill="#D8D8D8" d="M3.61 43.7s-4.647-23.229 3.566-29.482c2.362-1.798 7.892 2.203 16.59 12.005"/>
            <path fill="#FFF" d="M3.603 43.7S1.007 17.319 7.239 13.894c1.557-.855 4.766 4.098 9.628 14.86"/>
            <path fill="#D8D8D8" d="M75.9 31.362c0 1.792-4.004-30.678-7.97-31.349-3.869-.645-21.09 22.843-20.375 21.94L75.9 31.362z"/>
            <path fill="#FFF" d="M58.624 22.087c0 1.803 5.102-13.494 9.61-22.074-3.926-.65-21.404 22.983-20.679 22.074h11.07z"/>
            <path fill="#FFF" d="M98.66 121.414s-3.606 21.655-13.222 32.534c0 0-7.442 4.121-14.782-1.1l-.545.07c-5.914 2.013-17.966 1.601-21.125 1.465-5.982 9.067-18.612 3.242-18.612 3.242a80.742 80.742 0 0 1-2.579-4.345c-.309-.558-.666-.885-1.07-.98-7.34 5.222-14.782 1.101-14.782 1.101-10.409-14.078-3.7-45.861-5.235-44.337-1.534 1.524 2.29-18.334 5.168-29.522 2.878-11.189-.36-4.647 0-6.039-7.034-5.74-12.215-15.762-8.992-26.991.925-3.222 8.992-14.941 21.582-20.499 3.622-1.599 6.966-2.795 10.034-3.588 2.306-.64 7.135-1.342 14.486-2.108 11.027-1.15 25.575 7.424 25.575 7.424s2.938 4.517 4.331 8.882c3.142 9.846 0 22.603 0 22.603l.941 3.357c1.63 2.014 2.972 2.387 4.025 1.12 6.932-7.722 4.287-25.475 4.287-25.475 13.222-10.086 21.432 2.073 21.432 2.073 4.73 10.649.94 22.708-1.669 29.466-2.315 6-14.714 22.906-15.908 24.533 2.552 10.719 4.803 19.58 6.66 27.114z"/>
            <path fill="#D8D8D8" d="M9.967 71.73c17.34 6.784 32.362 4.555 45.067-6.688 19.057-16.864 19.52-39.009-14.798-43.021 17.712-5.127 34.318 6.326 34.318 6.326s2.942 4.507 4.337 8.862c3.147 9.824 0 22.553 0 22.553l2.376 6.84-2.376 5.127c-8.127 6.997-14.734 10.935-19.822 11.815-5.783 1-15.022 1.783-23.542-2.452-9.554 0-18.075-3.121-25.56-9.363z"/>
            <path fill="#FF7929" d="M98.66 121.497s-3.606 21.608-13.222 32.463c0 0-7.442 4.112-14.782-1.098l-.545.071c-5.914 2.008-17.966 1.597-21.125 1.461-5.982 9.047-18.612 3.235-18.612 3.235a80.527 80.527 0 0 1-2.579-4.335c-.309-.557-.666-.883-1.07-.978-7.34 5.21-14.782 1.098-14.782 1.098C1.534 139.367 0 121.207 0 121.207c2.672-6.77.064-7.96 2.672-11.674 4.492-6.399 5.257-14.006 4.492-21.254-.15-1.417 3.264-2.814 3.601-4.096.456-1.732.854-3.39 1.178-4.967 12.934 5.722 27.424 7.74 40.608 5.035 12.146-2.492 23.336-9.215 27.765-15.735 9.237-13.598 7.83-30.023 7.83-30.023 13.221-10.064 21.43 2.069 21.43 2.069 4.732 10.625 1.305 21.914-1.304 28.657-2.315 5.987-15.032 23.336-16.226 24.96a3634.818 3634.818 0 0 0 6.614 27.318z"/>
            <path fill="#604F60" d="M10.737 84.297c.232-2.204.675-2.779 1.08-4.738 10.42 4.58 24.798 7.155 35.979 5.874C63.1 83.68 74.416 76.068 79.733 69c-13.735 31.529-69.541 20.49-68.996 15.297z"/>
            <path fill="#B6A0B6" d="M18.22 82.033l8.613 3.337-1.012 5.097-8.954-2.369z"/>
            <path fill="#C75815" d="M98.611 121.616s-3.619 21.617-13.27 32.476c0 0-7.47 4.113-14.836-1.099l-.547.072c-1.93.653 11.26-20.149 15.383-31.449 4.124-11.3 2.797-23.342 2.326-30.7 10.863-12.49 20.592-39.026 14.724-55.65 4.15 1.682 7.177 5.384 7.177 5.384 4.749 10.63 1.31 21.923-1.31 28.669-2.323 5.989-15.086 23.345-16.285 24.968"/>
            <path fill="#C75815" d="M98.133 121.428s-3.589 21.647-13.16 32.522c0 0-7.407 4.12-14.713-1.1l-.542.071c-5.888 2.011-17.883 1.6-21.027 1.464-5.954 9.063-18.526 3.24-18.526 3.24a80.789 80.789 0 0 1-2.567-4.342c-.307-.558-.662-.885-1.065-.98-2.037 1.456-3.864 2.579-7.8 2.977-2.901-12.327-3.945-23.61-3.133-33.852l22.63-14.99c6.307 21.72 16.983 29.046 32.03 21.979 14.856-6.978 22.284-17.328 22.284-31.05 3.726 11.396 5.59 19.417 5.59 24.06z"/>
            <path fill="#FF7929" d="M9.967 95.067s8.88 43.455 21.234 62.581c0 0 12.685 5.786 18.632-3.284 0 0-10.326-49.848-11.858-59.297"/>
            <path fill="#FFF" d="M58.92 32.2c.796 4.124-2.554 10.73-10.956 12.501-6.112 1.29-11.947.128-14.23-2.327 2.553-2.284 6.035-4.238 10.445-5.86 4.41-1.623 9.324-3.06 14.74-4.314z"/>
            <g fill-rule="nonzero">
                <path fill="#000" d="M34.662 103.123h8.061v-8.06h-8.06v8.06zM34.662 93.388h8.061v-8.06h-8.06v8.06zM44.397 93.388h8.061v-8.06h-8.06z"/>
                <path fill="#B6A0B6" d="M41.075 91.74h-4.79v-4.79h4.79zM41.075 101.475h-4.79v-4.79h4.79zM50.81 91.74h-4.79v-4.79h4.79z"/>
                <path fill="#000" d="M37.83 88.495h1.7v1.7h-1.7zM47.565 88.495h1.7v1.7h-1.7zM37.83 98.23h1.7v1.7h-1.7zM50.681 99.853h1.7v1.7h-1.7zM44.423 99.853h1.7v1.7h-1.7zM47.565 96.814h1.7v4.893h-1.7zM44.423 95.114h1.7v1.7h-1.7zM50.759 95.037h1.57v3.348h-1.57z"/>
                <path fill="#000" d="M44.423 101.346h7.958v1.7h-7.958z"/>
            </g>
            <path fill="#000" fill-rule="nonzero" d="M12.267 45.418c.815-.205 1.604-.411 2.419-.591.789-.155 1.578-.257 2.34-.36.158.283.263.591.368.926.605 2.032.027 3.987-1.34 4.373-1.368.386-2.946-.926-3.577-2.958a8.45 8.45 0 0 1-.21-1.39M43.705 35.745a272.67 272.67 0 0 0 4.392-1.245c.288.45.55.98.732 1.562.601 2.092.026 4.105-1.333 4.502-1.36.397-2.928-.953-3.556-3.045a5.36 5.36 0 0 1-.235-1.774"/>
            <path stroke="#000" stroke-linecap="round" stroke-linejoin="round" stroke-width="2" d="M58.957 32.2c.758 4.14-4.197 9.194-11.024 11.327-5.46 1.702-10.492 1.016-12.666-1.447M5.367 50.936c2.93 2.32 3.865.773 10.686-.49 5.963-1.108 7.2-1.314 9.247-4.536 0 0-1.39-2.99-1.39-4.51M3.476 44.467s-2.21-23.93 3.64-30.125C10.417 10.847 23 25.395 23 25.395M15.333 25.3s-4.43-8.722-7.666-10.733M75.133 28.367S71.621.679 67.553.015c-3.967-.639-19.961 19.974-19.229 19.08M60.567 16.867S64.929 3.048 67.467 0"/>
            <path fill="#000" fill-rule="nonzero" d="M31.801 46.009c-.734.244-4.35 1.467-4.35 1.467s-3.591 1.223-4.352 1.468c-.733.245 2.726 4.11 6.081 2.984 3.381-1.125 3.355-6.164 2.621-5.92"/>
            <path stroke="#000" stroke-linecap="round" stroke-linejoin="round" stroke-width="2" d="M71.22 62.95s-9.536 12.06-25.142 16.352c-7.292 2.018-18.46 4.113-30.267-2.708-11.984-6.924-22.974-27.158-.484-45.425 5.916-4.803 17.645-8.15 26.876-9.785 8.618-1.533 29.043-1.89 36.973 14.664 3.034 6.31 1.045 25.012 1.045 25.012l1.046 6.03"/>
            <path stroke="#000" stroke-linecap="round" stroke-linejoin="round" stroke-width="2" d="M29.9 53.667c-3.144 3.974-5.721 8.42-5.721 8.42s-6.185.574-9.612-5.675M47.533 46.767c-2.292 8.061-12.803 13.13-19.166 5.278M33.733 63.407s-5.64 1.031-9.2-1.307M3.833 51.367C13.063 42.453 25.3 45.88 25.3 45.88M61.333 31.24c-3.821.63-18.619 3.047-28.62 10.927 0 0-2.54-6.488-.463-12.267M75.133 73.407c6.853-6.232 9.973-13.026 10.766-15.145 2.838-7.612 2.25-19.77 2.25-19.77 13.22-10.062 21.428 2.07 21.428 2.07 4.73 10.625 1.304 21.914-1.304 28.657-2.43 6.283-16.314 25.081-16.314 25.081M10.733 106.567s7.268 32.43 19.653 51.823c0 0 12.718 5.866 18.68-3.33 0 0-6.346-30.152-7.881-39.732"/>
            <path stroke="#000" stroke-linecap="round" stroke-linejoin="round" stroke-width="2" d="M12.847 74.367s-1.112 4.213-2.77 9.792c-.678 2.282-2.901 2.336-2.901 6.272 0 .665 1.053 5.65 0 11.123-.531 2.762-3.437 5.203-4.478 8.2-1.34 3.857.783 5.246-1.77 12.084-.893 4.24 1.77 17.197 11.92 32.252 0 0 7.427 4.118 14.752-1.1M92.17 94.3s2.95 11.655 6.73 27.23c0 0-3.554 21.671-13.031 32.558 0 0-7.335 4.124-14.569-1.102M49.067 154.71c1.182.05 15.024.78 21.466-1.41 0 0-3.8-11.386 0-19.9M52.133 85.1S64.21 81.934 71.3 76.667M14.567 81.267c9.503 4.965 20.7 4.593 20.7 4.593M10.733 84.333c6.113 4.6 14.29 6.9 24.534 6.9M52.7 89.956c15.48-5.01 24.618-12.092 27.414-21.244"/>
            <g fill-rule="nonzero" transform="translate(78.2 88.167)">
                <path fill="#939393" stroke="#000" stroke-width="2" d="M38.168 75.997c19.28 0 34.908-5.67 34.908-11.29 0-5.618-15.629-10.173-34.908-10.173-19.28 0-34.91 4.555-34.91 10.174 0 5.618 15.63 11.289 34.91 11.289z"/>
                <path fill="#D8D8D8" d="M37.133 71.373c14.017 0 25.732-2.83 31.114-7.922 5.48-5.186 4.5-12.724 4.5-22.598 0-19.567-15.945-34.729-35.614-34.729-19.67 0-35.614 15.162-35.614 34.73 0 11.909.046 19.906 8.548 24.906 5.467 3.215 15.993 5.613 27.066 5.613z"/>
                <ellipse cx="29.71" cy="27.574" fill="#FFF" rx="24.657" ry="16.553" transform="rotate(-31 29.71 27.574)"/>
                <path fill="#D2B974" stroke="#000" stroke-width="2" d="M53.405 66.844C72.83 64.165 72.83 55.57 72.83 40.21c0-15.36-11.895-32.962-27.28-32.962-15.384 0-29.44 13.164-31.313 32.962 3.938 19.869 19.741 29.314 39.167 26.635z"/>
                <path stroke="#000" stroke-width="2" d="M37.133 71.373c14.017 0 25.732-2.83 31.114-7.922 5.48-5.186 4.5-12.724 4.5-22.598 0-19.567-15.945-34.729-35.614-34.729-19.67 0-35.614 15.162-35.614 34.73 0 11.909.046 19.906 8.548 24.906 5.467 3.215 15.993 5.613 27.066 5.613z"/>
                <path fill="#3D3D3E" d="M53.854 64.165C70.459 62.38 72.83 56.462 72.83 41.102S61.609 10.464 46.224 10.464c-15.384 0-25.886 10.84-31.986 30.638 9.547 18.152 23.01 24.85 39.616 23.063z"/>
                <path fill="#000" d="M53.854 64.165C70.459 62.38 72.83 56.462 72.83 41.102S61.609 10.464 46.224 10.464c10.321 16.644 11.893 34.06 7.63 53.701z"/>
                <path fill="#5C5C5C" d="M17.093 46.013a64.65 64.65 0 0 1-2.855-4.91c6.068-19.696 16.493-30.526 31.748-30.638 2.043 1.051 3.72 2.54 4.88 4.462 4.724 7.82-.92 19.822-12.604 26.807-7.245 4.33-15.111 5.716-21.169 4.28z" opacity=".34"/>
                <path stroke="#000" stroke-width="2" d="M53.854 64.165C70.459 62.38 72.83 56.462 72.83 41.102S61.609 10.464 46.224 10.464c-15.384 0-25.886 10.84-31.986 30.638 9.547 18.152 23.01 24.85 39.616 23.063z"/>
                <path fill="#000" d="M16.156 50.771c4.461 0 8.078-4.397 8.078-9.822 0-5.425-3.617-9.822-8.078-9.822-4.461 0-8.078 4.397-8.078 9.822 0 5.425 3.617 9.822 8.078 9.822z" opacity=".2"/>
                <ellipse cx="14.81" cy="40.056" fill="#D8D8D8" stroke="#000" stroke-width="2" rx="6.732" ry="8.036"/>
                <path fill="#D8D8D8" stroke="#000" stroke-linecap="round" stroke-linejoin="round" stroke-width="2" d="M10.77 40.056c0 2.959 1.81 5.358 4.04 5.358s4.039-2.399 4.039-5.358c0-2.959-1.809-5.358-4.04-5.358"/>
            </g>
            <g fill-rule="nonzero">
                <path fill="#604F60" d="M85.387 61.25c3.755 3.05 7.37 5.007 10.846 5.872 3.476.864 7.538 1.107 12.187.728l-3.913 6.772c-5.206-.567-9.16-1.382-11.863-2.448-2.703-1.065-6.016-3.113-9.94-6.145l2.683-4.78z"/>
                <path fill="#B6A0B6" d="M88.294 63.252l6.217 3.187-3.589 5.053-5.31-3.46z"/>
                <path stroke="#000" stroke-linecap="round" stroke-linejoin="round" stroke-width="2" d="M86.506 62.388c2.386 2.063 5.666 3.641 9.84 4.734 4.173 1.092 8.198 1.396 12.074.91M82.704 65.483c3.728 3.642 7.679 6.009 11.852 7.101 4.174 1.093 7.975 1.373 11.404.842"/>
            </g>
            <g fill-rule="nonzero">
                <path fill="#604F60" d="M24.787 145.529c4.124-2.195 7.96-3.502 11.508-3.92 3.549-.418 6.672-.3 9.37.352l-.92-5.41c-4.796-.905-8.598-1.003-11.404-.295-2.806.707-6.335 2.297-10.586 4.77l2.032 4.503z"/>
                <path fill="#B6A0B6" d="M27.97 143.967l4.688-1.728-2.954-5.354-3.824 2.105"/>
                <path stroke="#000" stroke-linecap="round" stroke-linejoin="round" stroke-width="2" d="M24.301 145.031c2.612-1.717 6.052-2.853 10.319-3.409 4.267-.555 8.179-.554 11.735.002M22.274 141.4c3.812-2.985 7.851-4.755 12.119-5.31 4.267-.555 7.602-.474 10.937.46"/>
            </g>
            <path stroke="#000" stroke-linecap="round" stroke-linejoin="round" stroke-width="2" d="M51.25 105.8c.155 4.68.155 10.296 0 16.846-.155 6.55-1.138 15.246-2.95 26.087"/>
            <path fill="#4E4545" fill-rule="nonzero" d="M77.022 28.691c3.212-.565 6.614 3.501 7.599 9.083.985 5.583-.82 10.567-4.032 11.133l-3.323.585c-3.212.566-6.614-3.5-7.599-9.083-.985-5.582.82-10.566 4.032-11.132l3.323-.586z"/>
            <path fill="#A58787" fill-rule="nonzero" d="M77.022 28.691c1.536-.27-.918 5.763 0 10.578 1 5.25-6.37 6.722-7.355 1.14-.985-5.582.82-10.566 4.032-11.132l3.323-.586z"/>
            <path stroke="#000" stroke-width="2" d="M77.022 28.691c3.212-.565 6.614 3.501 7.599 9.083.985 5.583-.82 10.567-4.032 11.133l-3.323.585c-3.212.566-6.614-3.5-7.599-9.083-.985-5.582.82-10.566 4.032-11.132l3.323-.586z"/>
            <path stroke="#000" stroke-linecap="round" stroke-linejoin="round" stroke-width="2" d="M77.485 31.433c-.819 1.54-1.023 3.968-.613 7.284.41 3.315 1.619 5.743 3.628 7.283"/>
            <path fill="#D8D8D8" fill-rule="nonzero" d="M47.778 64.551c2.093-.294 4.041 1.248 4.35 3.445.309 2.196-1.138 4.215-3.231 4.51l-5.687.798c-2.093.294-4.04-1.249-4.35-3.445-.309-2.197 1.138-4.215 3.232-4.51l5.686-.798z"/>
            <path fill="#A58787" fill-rule="nonzero" stroke="#000" stroke-width="2" d="M44.464 62.864c1.536-.216 2.975.994 3.215 2.703.24 1.708-.81 3.268-2.345 3.483l-4.17.586c-1.535.216-2.974-.995-3.214-2.703-.24-1.708.81-3.268 2.344-3.484l4.17-.585z"/>
            <path stroke="#000" stroke-linecap="round" stroke-linejoin="round" stroke-width="2" d="M76.667 46c-6.368 10.748-16.335 17.137-29.9 19.167"/>
        </g>
    </g>
</svg>
