<svg xmlns="http://www.w3.org/2000/svg" width="218" height="208" viewBox="0 0 218 208">
    <g fill="none" fill-rule="evenodd" transform="translate(1)">
        <path d="M0 0h216v216H0z"/>
        <ellipse cx="101.305" cy="105.826" fill="#52657A" rx="61.299" ry="61.945"/>
        <path fill="#FFF" fill-rule="nonzero" d="M98.506 102.314v19.464"/>
        <path fill="#EDB43F" stroke="#000" stroke-linecap="round" stroke-linejoin="round" stroke-width="2" d="M45.168 117.853c4.515-4.193 7.028-6.558 7.537-7.096 2.607-2.757 4.793-3.727 6.558-2.912 1.842-3.952 2.634-7.902 7.638-9.746 5.004-1.843 6.32 0 8.955 1.844 2.5-2.897 9.744-6.585 13.958-6.585 2.81 0 6.585 1.58 11.326 4.741l2.705-.54c6.778-2.8 13.46-4.2 20.046-4.2 4.672 0 9.332.704 13.98 2.114 1.268.384 7.792.384 19.572 0l10.324 10.66-16.453 36.473s-23.557 22.915-25.49 22.915c-1.289 0-11.397.75-30.326 2.25l-42.793-21.472-7.537-15.734v-12.712z"/>
        <ellipse cx="104.564" cy="114.956" stroke="#000" stroke-linecap="round" stroke-linejoin="round" stroke-width="2" rx="6.058" ry="2.897"/>
        <ellipse cx="82.966" cy="106.133" stroke="#000" stroke-linecap="round" stroke-linejoin="round" stroke-width="2" rx="5.268" ry="2.502"/>
        <ellipse cx="86.127" cy="120.355" stroke="#000" stroke-linecap="round" stroke-linejoin="round" stroke-width="2" rx="5.268" ry="2.502"/>
        <ellipse cx="67.427" cy="124.043" stroke="#000" stroke-linecap="round" stroke-linejoin="round" stroke-width="2" rx="5.268" ry="2.502"/>
        <ellipse cx="94.819" cy="148.801" stroke="#000" stroke-linecap="round" stroke-linejoin="round" stroke-width="2" rx="5.268" ry="2.502"/>
        <ellipse cx="61.632" cy="197.791" fill="#FFF255" stroke="#000" stroke-linecap="round" stroke-linejoin="round" stroke-width="2" rx="5.268" ry="2.502"/>
        <ellipse cx="77.699" cy="203.848" fill="#FFF255" stroke="#000" stroke-linecap="round" stroke-linejoin="round" stroke-width="2" rx="5.268" ry="2.502"/>
        <path fill="#B9C9DA" stroke="#000" stroke-linecap="round" stroke-linejoin="round" stroke-width="2" d="M101.305 172.288c-36.705 0-66.461-29.756-66.461-66.462S64.6 39.364 101.305 39.364c36.706 0 66.462 29.756 66.462 66.462s-29.756 66.462-66.462 66.462zm0-9.68c31.004 0 56.138-25.422 56.138-56.782 0-31.36-25.134-56.783-56.138-56.783-31.003 0-56.137 25.423-56.137 56.783 0 31.36 25.134 56.783 56.137 56.783z"/>
        <path fill="#FFF" d="M180.092 118.31c6.664-6.185 9.697-12.928 10.468-15.032 2.76-7.554 2.188-19.62 2.188-19.62 12.856-9.988 20.838 2.053 20.838 2.053 4.6 10.546 1.268 21.75-1.269 28.442-2.362 6.236-15.864 24.893-15.864 24.893"/>
        <path fill="#D8D8D8" d="M109.786 88.423s-4.538-22.91 3.482-29.078c2.307-1.774 7.707 2.173 16.2 11.84"/>
        <path fill="#FFF" d="M109.786 88.423s-2.485-25.737 3.482-29.078c1.49-.834 4.563 3.998 9.218 14.496"/>
        <path fill="#D8D8D8" d="M180.092 76.135c0 1.741-3.942-29.814-7.848-30.467-3.809-.627-20.764 22.2-20.06 21.322l27.908 9.145z"/>
        <path fill="#FFF" d="M163.072 66.97c0 1.74 5.019-13.023 9.452-21.302-3.861-.626-21.054 22.179-20.34 21.302h10.888z"/>
        <path fill="#FFF" d="M202.067 164.722s-3.515 21.151-12.888 31.777c0 0-7.253 4.025-14.408-1.076l-.53.07c-5.766 1.966-17.512 1.563-20.591 1.43-5.831 8.856-18.142 3.167-18.142 3.167a78.896 78.896 0 0 1-2.513-4.243c-.302-.546-.65-.865-1.043-.957-7.154 5.1-14.408 1.075-14.408 1.075-10.145-13.75-11.641-31.527-11.641-31.527 3.727-15.683 8.77-30.728 11.576-41.656.4-1.558-.351-3.495 0-4.854-6.857-5.607-11.907-15.395-8.765-26.363.902-3.146 8.765-15.341 21.035-20.77 5.296-2.342 5.462-2.233 11.675-3.675 6.213-1.442 2.764-1.047 13.512-2.17 10.748-1.122 23.642 8.283 23.642 8.283s2.863 4.411 4.22 8.674c3.063 9.617 0 22.077 0 22.077l.918 3.279c1.59 1.967 2.897 2.331 3.923 1.093 6.756-7.542 4.18-24.881 4.18-24.881 12.886-9.85 20.888 2.025 20.888 2.025 4.612 10.4 1.271 21.45-1.271 28.05-2.257 5.86-14.652 22.843-15.816 24.432a3570.508 3570.508 0 0 0 6.447 26.74z"/>
        <path fill="#D8D8D8" d="M202.067 164.722s-3.515 21.151-12.888 31.777c0 0-7.253 4.025-14.408-1.076l-.53.07c-1.876.64 10.934-19.714 14.938-30.77 4.005-11.057 2.716-22.84 2.26-30.04 10.55-12.22 19.997-38.186 14.298-54.451 4.03 1.645 6.97 5.268 6.97 5.268 4.612 10.4 1.271 21.45-1.271 28.05-2.257 5.86-14.652 22.843-15.816 24.432M115.722 115.699c16.875 6.64 31.494 4.459 43.859-6.546 18.546-16.508 18.997-38.186-14.402-42.113 17.238-5.02 33.399 6.193 33.399 6.193s2.863 4.411 4.22 8.674c3.063 9.617 0 22.077 0 22.077l2.312 6.696-2.311 5.019c-7.91 6.849-14.34 10.704-19.29 11.564-5.63.98-14.62 1.746-22.912-2.4-9.298 0-17.59-3.055-24.875-9.164z"/>
        <path fill="#D8D8D8" d="M201.912 164.464s-3.519 21.298-12.901 31.997c0 0-7.262 4.053-14.424-1.082l-.532.07c-5.771 1.979-17.53 1.574-20.613 1.44-5.837 8.917-18.162 3.188-18.162 3.188a79.547 79.547 0 0 1-2.515-4.272c-.302-.55-.65-.87-1.045-.964-1.997 1.432-3.788 2.537-7.646 2.929-2.844-12.128-3.868-23.23-3.072-33.306l22.185-14.748c6.182 21.37 16.649 28.577 31.4 21.624 14.564-6.864 21.846-17.047 21.846-30.548 3.653 11.213 5.479 19.103 5.479 23.672z"/>
        <ellipse cx="203.221" cy="97.152" fill="#858C93" rx="6.546" ry="7.855" transform="rotate(.881 203.221 97.152)"/>
        <path fill="#FFF" d="M115.504 139.046s8.75 42.405 20.92 61.068c0 0 12.497 5.646 18.356-3.205 0 0-10.173-48.642-11.682-57.863"/>
        <path fill="#000" fill-rule="nonzero" d="M140.194 145.51h7.811v-7.812h-7.811v7.812zM140.194 136.076h7.811v-7.811h-7.811v7.811zM149.627 136.076h7.812v-7.811h-7.812z"/>
        <path fill="#D8D8D8" fill-rule="nonzero" d="M146.408 134.479h-4.642v-4.642h4.642zM146.408 143.913h-4.642v-4.642h4.642zM155.842 134.479H151.2v-4.642h4.642z"/>
        <path fill="#000" fill-rule="nonzero" d="M143.263 131.334h1.648v1.648h-1.648zM152.697 131.334h1.647v1.648h-1.647zM143.263 140.768h1.648v1.647h-1.648zM155.717 142.34h1.647v1.648h-1.647zM149.652 142.34h1.648v1.648h-1.648zM152.697 139.396h1.647v4.741h-1.647zM149.652 137.748h1.648v1.648h-1.648zM155.792 137.673h1.522v3.245h-1.522z"/>
        <path fill="#000" fill-rule="nonzero" d="M149.652 143.788h7.712v1.647h-7.712z"/>
        <path stroke="#000" stroke-linecap="round" stroke-linejoin="round" stroke-width="2" d="M109.746 89.106s-2.122-23.235 3.494-29.25c3.17-3.394 15.249 10.732 15.249 10.732M120.427 70.513s-4.167-8.66-7.212-10.657M179.352 73.583s-3.47-27.054-7.488-27.703c-3.918-.624-19.716 19.517-18.992 18.644M165.326 62.452s4.118-13.577 6.514-16.572"/>
        <path stroke="#000" stroke-linecap="round" stroke-linejoin="round" stroke-width="2" d="M175.184 106.901s-9.334 11.78-24.608 15.973c-7.138 1.971-18.07 4.018-29.625-2.646-11.73-6.763-22.486-26.53-.474-44.374 5.79-4.692 17.27-7.961 26.305-9.559 8.436-1.497 28.427-1.846 36.189 14.326 2.97 6.164 1.023 24.433 1.023 24.433l1.023 5.89"/>
        <path stroke="#000" stroke-linecap="round" stroke-linejoin="round" stroke-width="2" d="M179.377 117.807c6.688-6.09 9.733-12.728 10.507-14.8 2.77-7.437 2.196-19.316 2.196-19.316 12.903-9.833 20.914 2.021 20.914 2.021 4.617 10.383 1.273 21.414-1.273 28.002-2.37 6.14-15.922 24.509-15.922 24.509"/>
        <path stroke="#000" stroke-linecap="round" stroke-linejoin="round" stroke-width="2" d="M203.445 104.007c3.638.055 6.64-3.33 6.706-7.56.065-4.231-2.832-7.707-6.47-7.763-3.64-.056-6.642 3.329-6.707 7.56-.065 4.231 2.832 7.707 6.47 7.763zM116.484 149.603s7.088 31.596 19.167 50.489c0 0 12.404 5.715 18.22-3.245 0 0-6.19-29.374-7.688-38.708"/>
        <path stroke="#000" stroke-linecap="round" stroke-linejoin="round" stroke-width="2" d="M118.43 118.481s-4.766 17.42-11.654 46.321c0 0 1.497 17.745 11.655 31.471 0 0 7.262 4.018 14.425-1.073M195.824 138.248s2.92 11.355 6.663 26.53c0 0-3.519 21.113-12.903 31.72 0 0-7.262 4.018-14.425-1.073M153.87 196.822c1.173.05 14.9.774 21.289-1.397 0 0-3.769-11.28 0-19.717M156.566 129.163s11.73-3.12 18.618-8.31M120.278 124.995c9.384 4.667 20.44 4.318 20.44 4.318"/>
        <path fill="#D7D7D7" d="M131.829 104.79c.008.097-1.205.93-1.764.948-.83.028-3.167-.384-7.012-1.234 4.122 2.358 6.597 4.035 7.426 5.03 4.489 5.396 17.483-.47 20.43-3.322 2.946-2.852 5.751-7.6 2.174-10.819.374-1.97-.35-4.09-2.175-6.362.545 3.02.545 4.9 0 5.637-2.498 3.382-6.426 4.67-6.5 4.538-1.182-.398-1.827-.398-1.937 0-.93 3.382-4.62 6.336-6.548 7.006-.742.258-2.107-.216-4.094-1.422z"/>
        <path stroke="#000" stroke-linecap="round" stroke-linejoin="round" stroke-width="2" d="M115.52 95.67c-.206-3.071 1.627-5.12 5.496-6.147 3.863-1.025 6.964-1.025 9.301 0 0-1.976-.235-3.65-.705-5.022"/>
        <path fill="#000" fill-rule="nonzero" d="M135.362 90.207c-.63.235-3.733 1.407-3.733 1.407s-3.08 1.172-3.732 1.407c-.63.234 2.338 3.939 5.216 2.86 2.9-1.078 2.878-5.908 2.249-5.674"/>
        <path stroke="#000" stroke-linecap="round" stroke-linejoin="round" stroke-width="2" d="M134.643 98.176c-2.775 3.601-5.048 7.63-5.048 7.63s-8.905.746-8.482-5.142M150.318 89.06c2.537 9.111-11.297 14.096-16.912 7.072M130.749 104.016c1.676 5.728 11.752-.81 10.824-4.7M162.852 80.261c-6.388-2.49-11.415-3.078-15.08-1.762-3.664 1.315-7.255 3.96-10.773 7.935-1.788-3.33-2.607-6.634-2.457-9.91"/>
        <path fill="#B9C9DA" stroke="#000" stroke-linecap="round" stroke-linejoin="round" stroke-width="2" d="M24.886 169.74c-6.821-.138-10.727-.206-11.717-.206-7.273 0-13.169-28.61-13.169-63.9s5.896-63.899 13.17-63.899h13.169"/>
        <ellipse cx="26.075" cy="105.606" fill="#8796A6" stroke="#000" stroke-linecap="round" stroke-linejoin="round" stroke-width="2" rx="13.169" ry="63.871" transform="matrix(-1 0 0 1 52.15 0)"/>
    </g>
</svg>
