<svg xmlns="http://www.w3.org/2000/svg" width="208" height="209" viewBox="0 0 208 209">
    <g fill="none" fill-rule="evenodd" transform="translate(-4 -5)">
        <g transform="scale(-1 1) rotate(11 -91.098 -936.807)">
            <ellipse cx="91.312" cy="91.312" fill="#52657A" rx="84.22" ry="85.106"/>
            <path fill="#FFF" fill-rule="nonzero" d="M87.466 86.486v26.742"/>
            <path fill="#EDB43F" stroke="#000" stroke-linecap="round" stroke-linejoin="round" stroke-width="2" d="M14.184 107.836c6.204-5.76 9.656-9.01 10.355-9.75 3.582-3.787 6.585-5.12 9.01-4 2.532-5.43 3.619-10.857 10.494-13.39 6.876-2.533 8.684 0 12.304 2.533 3.435-3.98 13.387-9.046 19.177-9.046 3.86 0 9.047 2.17 15.56 6.513l3.717-.743c9.313-3.847 18.493-5.77 27.541-5.77 6.42 0 12.822.968 19.207 2.905 1.743.528 10.706.528 26.89 0l14.185 14.645-22.605 50.111s-32.365 31.483-35.02 31.483c-1.771 0-15.66 1.03-41.666 3.091l-58.794-29.5-10.355-21.617v-17.465z"/>
            <ellipse cx="95.789" cy="103.856" stroke="#000" stroke-linecap="round" stroke-linejoin="round" stroke-width="2" rx="8.323" ry="3.981"/>
            <ellipse cx="66.116" cy="91.733" stroke="#000" stroke-linecap="round" stroke-linejoin="round" stroke-width="2" rx="7.237" ry="3.438"/>
            <ellipse cx="70.458" cy="111.274" stroke="#000" stroke-linecap="round" stroke-linejoin="round" stroke-width="2" rx="7.237" ry="3.438"/>
            <ellipse cx="44.766" cy="116.34" stroke="#000" stroke-linecap="round" stroke-linejoin="round" stroke-width="2" rx="7.237" ry="3.438"/>
            <ellipse cx="82.4" cy="150.356" stroke="#000" stroke-linecap="round" stroke-linejoin="round" stroke-width="2" rx="7.237" ry="3.438"/>
            <path fill="#B9C9DA" stroke="#000" stroke-linecap="round" stroke-linejoin="round" stroke-width="2" d="M91.312 182.624C40.882 182.624 0 141.742 0 91.312S40.882 0 91.312 0s91.312 40.882 91.312 91.312-40.882 91.312-91.312 91.312zm0-13.298c42.597 0 77.128-34.928 77.128-78.014s-34.531-78.014-77.128-78.014c-42.596 0-77.128 34.928-77.128 78.014s34.532 78.014 77.128 78.014z"/>
        </g>
        <path fill="#FFF" d="M90.395 105.635c17.234-4.3 20.673-31.383 20.673-31.383 2.265-.624 3.518 4.585 5.613 4.623 2.272.042 7.885-5.62 10.98-4.695 2.122.635 4.763 4.102 7.924 10.402.051 7.448-1.678 14.334-5.187 20.658-5.263 9.487-28.164 26.718-29.626 28.211-15.494 7.07-27.612-23.517-10.377-27.816z"/>
        <path fill="#D8D8D8" d="M97.55 104.065c15.669 14.835 37.873-7.93 34.314-25.978 3.794 4.54 3.452 5.159 3.452 5.159 3.29 11.683-4.278 20.065-7.926 26.673-2.158 3.912-11.024 11.392-26.595 22.44-7.506-13.158-10.582-21.521-9.228-25.09.65-1.713 4.524-2.03 5.983-3.204z"/>
        <path stroke="#000" stroke-linecap="round" stroke-linejoin="round" stroke-width="2" d="M90.368 106.775c8.887-4.16 14.157-10.039 15.618-11.93 2.607-3.38 3.437-12.13 3.553-19.694 2.748-2.714 6.545.507 7.142 3.724 4.456-4.79 7.303-6.516 10.03-5.935 2.128.454 4.264 1.655 4.169 4.367 1.225 1.318 3.994 3.357 4.626 7.029 1.518 12.166-5.453 22.478-10.188 28.465-4.41 5.578-24.325 20.222-24.325 20.222"/>
        <path fill="#858C93" stroke="#000" stroke-linecap="round" stroke-linejoin="round" stroke-width="2" d="M119.336 101.11c3.78 1.215 8.852-2.214 10.25-6.53 1.4-4.315-.532-8.797-4.312-10.011-3.78-1.215-7.978 1.3-9.376 5.615-1.399 4.315-.342 9.712 3.438 10.926z"/>
        <path fill="#000" fill-rule="nonzero" d="M141.23 160.94c15.142-2.91 27.375 4.387 33.025 13.906 9.679 16.311 10.075 23.683 3.668 32.436-34.55-4.118-22.543-12.855-38.34-12.855l-.434-.001c-1.795 9.839-18.453 17.157-25.798 17.26-8.552.118-14.423-4.404-14.423-4.404-53.34-2.213-77.221-95.007-77.221-95.007-.753-.907 7.653 12.113 41.256-2.968 5.69 4.373 9.453 7.477 11.288 9.313 9.794-2.593 26.728-2.269 40.227 2.022 1.51-.776 6.962 3.521 13.55 12.555.06-.41.12-.835.18-1.273 1.144 2.098 2.076 3.923 2.8 5.579 1.483 2.253 3 4.725 4.521 7.412-.699 1.61 6.398 14.515 5.7 16.025z" opacity=".22"/>
        <g>
            <path fill="#FFF" d="M112.542 192.823s21.912.749 44.397-51.02c-9.602-16.956-18.993-25.331-21.052-24.273-13.499-4.291-30.433-4.615-40.226-2.022-1.836-1.836-5.598-4.94-11.289-9.313-33.602 15.08-50.027 23.074-49.275 23.98 0 0 24.105 60.435 77.445 62.648z"/>
            <g fill-rule="nonzero">
                <path fill="#FFF" d="M147.765 139.536c3.183-4.251 5.358-6.524 6.527-6.818 1.753-.44 8.414-3.352 16.884.183.381.159 9.551 5.344 10.458 12.28.406 3.097-.413 7.258-2.256 7.613-2.956.57-14.395-1.531-16.81-2.517a31.408 31.408 0 0 1-8.748-5.383l-6.055-5.358z"/>
                <path fill="#D7D7D7" d="M153.082 143.831c.214-5.14 10.804-4.906 12.087-5.005 3.375-.26 15.092.718 16 7.654.405 3.098.65 5.84-1.192 6.195 3.563 4.315-27.108-3.703-26.895-8.844z"/>
                <path stroke="#000" stroke-linecap="round" stroke-linejoin="round" stroke-width="2" d="M147.765 139.536c3.183-4.251 5.358-6.524 6.527-6.818 1.753-.44 8.414-3.352 16.884.183.381.159 9.551 5.344 10.458 12.28.406 3.097-.413 7.258-2.256 7.613-2.956.57-14.395-1.531-16.81-2.517a31.408 31.408 0 0 1-8.748-5.383"/>
            </g>
            <path fill="#D8D8D8" d="M112.542 192.823s5.87 4.522 14.423 4.404c7.345-.103 16.849-3.884 24.254-13.959 1.714-2.332-3.206-13.502-6.637-16.402 2.082-9.115 4.44-8.733 8.238-17.478 2.747-7.39 1.83-11.35-3.203-20.577-1.602 11.857-3.671 13.186-12.127 19.662-4.383 3.357-10.162 4.964-17.339 4.821l6.814 9.61 5.078 7.51c4.096-.267 5.912.28 5.447 1.642-2.318 6.779-12.196 14.16-14.503 16.018-4.11 3.309-11.979-6.407-17.254-3.89-5.276 2.517-25.288-13.195-14.842-25.856 1.347-1.633-9.88 6.585-12.626 8.538-2.862 2.035-3.699 1.856-6.308 0-9.039-6.431-19.715-23.046-25.272-29.868-5.558-6.822-11.588-6.822-11.588-6.822s24.105 60.434 77.445 62.647z"/>
            <path stroke="#110B09" stroke-linecap="round" stroke-linejoin="round" stroke-width="2" d="M132.043 117.53c-.155.355 7.735 0 15.294 9.222 7.916 9.658 8.445 18.386 8.229 18.866-4.871 10.84-9.762 17.257-14.419 23.823m-30.139 23.052c-53.34-2.213-77.445-62.647-77.445-62.647"/>
            <path fill="#FFF" fill-rule="nonzero" d="M33.17 130.134c.222.107.446.211.672.314l-1.291-2.993a113.608 113.608 0 0 1-1.865-2.415c-1.647-2.192-2.84-4.312-4.217-6.492-2.358-3.733-4.225-6.937-4.523-9.136-.309-2.252-.046-6.404-.116-6.37-.41.196-2.262-2.855-2.662-3.735a175.673 175.673 0 0 1-3.206-7.476c-1.212-3.039-2.124-5.659-2.653-7.725-.643-2.51-.748-4.169-.04-5.057a.847.847 0 0 1 .322-.308c1.53-1.114 5.867-.41 12.706 1.488 2.292.637 4.677 1.366 6.949 2.105.798.26 6.186.447 7.665-.172 4.544-1.908 9.137-3.413 13.29-4.313-.067-.14.127-1.913.21-2.433a70.55 70.55 0 0 1 .852-4.467c.236-1.04.488-2.015.757-2.91.52-1.73 1.089-3.113 1.723-4.087.562-.864 1.2-1.438 1.914-1.63.206-.393 1.5-.09 1.562.143 2.655.915 5.65 3.851 8.926 8.291 2.038 2.761 3.994 5.848 5.736 8.886.273.475.52.915.741 1.314 4.038 2.356 6.924 5.619 8.639 9.608.857 1.993 1.276 4.094 1.397 6.252.37 3.41-.038 6.808-.976 9.78-.073.355-.15.71-.227 1.064.04.036-7.28 8.645-19.618 13.705-14.239 5.84-33.712 8.27-32.668 8.77z"/>
            <path fill="#D7D7D7" fill-rule="nonzero" d="M39.951 125.018c.254.014 1.474.02 1.771.075 12.691.362 23.563-3.136 32.616-10.494 8.917-7.248 10.135-11.814 12.385-17.863.557 4.727-.396 9.448-2.19 13.06-.075.155 2.457 4.622-19.22 18.7-14.696 9.544-25.362-3.478-25.362-3.478z"/>
            <path fill="#D7D7D7" d="M60.14 62.249c-.711.191-1.348.764-1.91 1.626-.632.973-1.2 2.353-1.719 4.082-.268.892-.52 1.866-.755 2.905a70.434 70.434 0 0 0-.85 4.459c-.083.52-.154.998-.213 1.425-.008.059-.12.482-1.285.835-2.322.703-11.713 3.509-9.254 3.58 2.458.072 12.455-2.481 17.455-2.365 5 .117 6.559.381 6.17-.217-.388-.598-6.695-2.612-6.959-3.987-1.63-8.487-.48-12.723-.68-12.343zM13.846 78.575a.845.845 0 0 0-.32.308c-.708.887-.602 2.543.04 5.05.528 2.062 1.27 5.825 3.343 10.282 1.382 2.972 3.117 6.279 5.206 9.92-.733 3.467-.042 6.988 2.074 10.563.622 1.051 2.647 4.17 6.075 9.356l3.634 6.07c-.418-1.511 19.613 17.832 18.126 13.789-3.84-10.436 6.916-13.846 7.154-13.789.697.168-23.62-6.225-22.841-5.992-6.54-3.177-9.351-8.93-10.95-13.77-2.922-8.848-1.351-17.071 1.264-19.69 1.019-1.019.817-.379 1.955-1.269 2.795-2.185-12.355-10.228-14.76-10.828zm56.3 23.909c-.939 1.923-1.76 2.972-2.462 3.147-1.826.456-6.152.048-8.556-2.075-.282-.25-.782.075-1.5.974.01.138-3.673 1.126-7.29-.209-.788-.29-1.723-1.73-2.804-4.319-.282 2.658.212 4.647 1.482 5.968-1.168 4.265 3.366 6.492 7.066 7.196 3.7.703 16.679-1.335 17.47-7.726.145-1.18 1.227-3.709 3.245-7.588-2.553 2.585-4.158 4.075-4.814 4.471-.442.267-1.795.24-1.837.16z"/>
            <path stroke="#000" stroke-linecap="round" stroke-linejoin="round" stroke-width="2" d="M77.526 87.802c-1.37-2.457-3.807-3.106-7.314-1.947-3.5 1.157-5.901 2.716-7.201 4.677-.983-1.514-1.634-2.915-1.953-4.202"/>
            <path fill="#000" fill-rule="nonzero" d="M59.446 93.592c.604-.137 3.59-.799 3.59-.799s2.968-.65 3.59-.799c.603-.137.149 4.194-2.616 4.814-2.782.632-5.168-3.08-4.564-3.216"/>
            <path stroke="#000" stroke-linecap="round" stroke-linejoin="round" stroke-width="2" d="M63.968 99.335c3.94 1.365 7.704 3.307 7.704 3.307s7.265-3.904 4.008-8.203M47.296 100.232c2.57 8.256 15.76 5.12 16.612-3.084M69.888 101.852c1.552 5.231-9.501 5.288-10.72 1.841M33.215 99.793c3.707-5.12 7.306-8.098 10.797-8.932 3.492-.834 7.588-.613 12.29.663-.273-3.45-1.283-6.393-3.029-8.827"/>
            <path fill-rule="nonzero" stroke="#000" stroke-linecap="round" stroke-linejoin="round" stroke-width="2" d="M33.842 130.448l-1.291-2.993a113.608 113.608 0 0 1-1.865-2.415c-1.647-2.192-2.84-4.312-4.217-6.492-2.358-3.733-4.225-6.937-4.523-9.136-.309-2.252-.046-6.404-.116-6.37-.41.196-2.262-2.855-2.662-3.735a175.673 175.673 0 0 1-3.206-7.476c-1.212-3.039-2.124-5.659-2.653-7.725-.643-2.51-.748-4.169-.04-5.057a.847.847 0 0 1 .322-.308c1.53-1.114 5.867-.41 12.706 1.488 2.292.637 4.677 1.366 6.949 2.105.798.26 6.186.447 7.665-.172 4.544-1.908 9.137-3.413 13.29-4.313-.067-.14.127-1.913.21-2.433a70.55 70.55 0 0 1 .852-4.467c.236-1.04.488-2.015.757-2.91.52-1.73 1.089-3.113 1.723-4.087.562-.864 1.2-1.438 1.914-1.63.206-.393 1.5-.09 1.562.143 2.655.915 5.65 3.851 8.926 8.291 2.038 2.761 3.994 5.848 5.736 8.886.273.475.52.915.741 1.314 4.038 2.356 6.924 5.619 8.639 9.608.857 1.993 1.276 4.094 1.397 6.252.37 3.41-.038 6.808-.976 9.78-.073.355-.15.71-.227 1.064"/>
            <path stroke="#000" stroke-linecap="round" stroke-linejoin="round" stroke-width="2" d="M87.024 99.424c-.067 8.826-5.589 15.95-16.565 21.37-10.977 5.421-20.968 7.151-29.972 5.191"/>
            <path stroke="#110B09" stroke-linecap="round" stroke-linejoin="round" stroke-width="2" d="M84.372 120.426c13.886-6.409 29.776-7.499 47.67-3.27"/>
            <g fill-rule="nonzero">
                <path fill="#FFF" d="M52.31 141.286c-.017-5.31.353-8.434 1.11-9.372 1.134-1.408 4.701-7.742 13.593-10.016.4-.102 10.844-1.48 15.743 3.513 2.188 2.23 4.038 6.046 2.78 7.439-2.018 2.233-12.418 7.44-14.94 8.106a31.408 31.408 0 0 1-10.226.965l-8.06-.635z"/>
                <path fill="#D7D7D7" d="M59.141 141.517c-2.923-4.234 5.676-10.42 6.64-11.271 2.54-2.24 12.486-8.51 17.385-3.516 2.188 2.23 4.034 4.272 2.777 5.664 5.442 1.302 8.06 4.692 9.19 5.984 2.207 2.526-3.266 12.687-18.183 10.201-6.609-1.101-14.885-2.829-17.809-7.062z"/>
                <path stroke="#000" stroke-linecap="round" stroke-linejoin="round" stroke-width="2" d="M52.31 141.286c-.017-5.31.353-8.434 1.11-9.372 1.134-1.408 4.701-7.742 13.593-10.016.4-.102 10.844-1.48 15.743 3.513 2.188 2.23 4.038 6.046 2.78 7.439-2.018 2.233-12.418 7.44-14.94 8.106a31.408 31.408 0 0 1-10.226.965"/>
            </g>
            <path stroke="#110B09" stroke-linecap="round" stroke-linejoin="round" stroke-width="2" d="M86.122 108.344c3.18.472 6.36 2.86 9.539 7.164M88.833 164.403c10.213-7.152 14.163-14.018 25.376-11.958 11.213 2.06 13.845 10.663 18.94 19.611 0 0 2.173-1.6 8.917-.228 6.744 1.373 12.35 10.542 7.55 14.187-1.377 1.047-10.906 9.318-16.466 11.1-5.56 1.78-8.386 1.78-14.616 0-6.625-1.895-10.992-7.619-10.992-7.619M135.887 172.056c-2.06 0-15.1 3.548-19.824 11.212"/>
            <path fill="#D8D8D8" d="M141.587 151.464c21.071-11.786 39.059-3.248 46.282 8.924 9.68 16.31 8.883 35.866 2.477 44.618-34.551-4.118-27.375-35.565-43.17-35.565-3.85 0-7.089-.25-9.714-.751"/>
            <path fill="#FFF" d="M141.587 151.464c21.071-11.786 40.65-4.231 46.282 8.924 7.74 18.076 7.74 32.72-5.303 32.72-13.042 0-15.298-18.192-24.94-26.314-3.266-2.751-12.995-4.772-17.973-8.008-2.815-1.83-2.17-4.271 1.934-7.322z"/>
            <path stroke="#000" stroke-linecap="round" stroke-linejoin="round" stroke-width="2" d="M141.587 151.464c21.071-11.786 39.059-3.248 46.282 8.924 9.68 16.31 8.883 35.866 2.477 44.618-34.551-4.118-27.375-35.565-43.17-35.565-3.85 0-7.089-.25-9.714-.751"/>
        </g>
    </g>
</svg>
