<svg xmlns="http://www.w3.org/2000/svg" width="343" height="208" viewBox="0 0 343 208">
    <defs>
        <linearGradient id="a" x1="50%" x2="50%" y1="0%" y2="100%">
            <stop offset="0%" stop-color="#9DEE99" stop-opacity="0"/>
            <stop offset="100%" stop-color="#64D960"/>
        </linearGradient>
        <linearGradient id="b" x1="50%" x2="50%" y1="0%" y2="100%">
            <stop offset="0%" stop-color="#9DEE99" stop-opacity="0"/>
            <stop offset="100%" stop-color="#64D960"/>
        </linearGradient>
        <linearGradient id="c" x1="50%" x2="50%" y1="0%" y2="100%">
            <stop offset="0%" stop-color="#FFA8DC"/>
            <stop offset="100%" stop-color="#FF6FB6" stop-opacity="0"/>
        </linearGradient>
    </defs>
    <g fill="none" fill-rule="evenodd">
        <path d="M0 0h343v208H0z" opacity=".1"/>
        <path fill="url(#a)" d="M24 6h56a8 8 0 0 1 8 8v88H16V14a8 8 0 0 1 8-8z" opacity=".2"/>
        <path fill="url(#b)" d="M255 6h64a8 8 0 0 1 8 8v88h-80V14a8 8 0 0 1 8-8z" opacity=".2"/>
        <path fill="url(#c)" d="M88 102h159v88a8 8 0 0 1-8 8H96a8 8 0 0 1-8-8v-88z" opacity=".2"/>
        <path fill="#FFF" fill-rule="nonzero" d="M66.598 170v-6.07h-.078l-1.792 1.3v-.928l1.875-1.348h.874V170h-.88zm7.876 0h-2.24v-5.264h2.23c.997 0 1.578.542 1.578 1.372 0 .523-.366 1.02-.86 1.123v.079c.67.092 1.094.561 1.094 1.176 0 .918-.669 1.514-1.802 1.514zm-1.401-4.56v1.523h1.147c.684 0 .992-.264.992-.767 0-.454-.264-.757-.855-.757h-1.284zm0 2.226v1.63h1.382c.644 0 .986-.292.986-.824 0-.557-.39-.806-1.147-.806h-1.221zm6.587-2.28c-.84 0-1.426.615-1.489 1.548h2.9c-.02-.933-.576-1.548-1.41-1.548zm1.387 3.252h.84c-.244.898-1.065 1.455-2.217 1.455-1.46 0-2.373-1.055-2.373-2.72 0-1.655.928-2.73 2.373-2.73 1.42 0 2.285 1.011 2.285 2.647v.322h-3.784v.04c.044 1.04.625 1.699 1.519 1.699.678 0 1.137-.25 1.357-.713zm4.78-3.994c1.343 0 2.212 1.069 2.212 2.724 0 1.646-.874 2.725-2.212 2.725-.751 0-1.357-.327-1.645-.884h-.078v2.549h-.84v-7.022h.8v.88h.079a1.898 1.898 0 0 1 1.684-.972zm-.2 4.692c.967 0 1.543-.737 1.543-1.968 0-1.23-.576-1.968-1.538-1.968-.952 0-1.553.757-1.553 1.968 0 1.206.601 1.968 1.548 1.968zm5.82-3.95c-.839 0-1.425.615-1.488 1.548h2.9c-.02-.933-.576-1.548-1.411-1.548zm1.388 3.252h.84c-.245.898-1.065 1.455-2.217 1.455-1.46 0-2.373-1.055-2.373-2.72 0-1.655.927-2.73 2.373-2.73 1.42 0 2.285 1.011 2.285 2.647v.322h-3.784v.04c.044 1.04.625 1.699 1.518 1.699.679 0 1.138-.25 1.358-.713zm6.572-2.29h-.85c-.136-.523-.6-.948-1.357-.948-.947 0-1.543.757-1.543 1.949 0 1.215.606 1.987 1.543 1.987.708 0 1.201-.327 1.358-.923h.85c-.152.967-.938 1.68-2.203 1.68-1.475 0-2.417-1.07-2.417-2.744 0-1.641.938-2.705 2.412-2.705 1.28 0 2.06.766 2.207 1.704zM104.1 170v-2.383h-2.627V170h-.84v-5.264h.84v2.178h2.627v-2.178h.84V170h-.84zm4.214-2.588h.991v-1.973h-.991c-.693 0-1.138.381-1.138 1.021 0 .557.45.952 1.138.952zm.991 2.588v-1.885h-.903L107.059 170h-1l1.469-2.041c-.742-.21-1.192-.757-1.192-1.48 0-1.083.772-1.743 1.978-1.743h1.831V170h-.84zm-43.308 9.563h-3.203v-.795h3.203v.795zm1.392-2.622c0-1.254.967-2.153 2.314-2.153 1.23 0 2.173.835 2.173 1.978 0 .81-.351 1.396-1.62 2.71l-1.602 1.655v.078h3.34V182h-4.561v-.605l2.383-2.579c.898-.971 1.162-1.337 1.162-1.958 0-.747-.503-1.303-1.333-1.303-.845 0-1.406.551-1.406 1.386h-.85zm11.036 5.225c-1.333 0-2.29-.82-2.368-2.026h.864c.078.752.683 1.255 1.514 1.255.922 0 1.533-.665 1.533-1.65 0-.953-.61-1.593-1.5-1.593-.668 0-1.196.308-1.474.83h-.825l.405-4.028h3.911v.786h-3.222l-.22 2.295h.078c.342-.425.864-.64 1.567-.64 1.182 0 2.159.928 2.159 2.325 0 1.45-.982 2.446-2.422 2.446zm6.104 0c-1.587 0-2.5-1.348-2.5-3.691 0-2.325.922-3.687 2.5-3.687 1.567 0 2.49 1.367 2.49 3.701 0 2.34-.908 3.677-2.49 3.677zm0-.767c1.04 0 1.606-1.035 1.606-2.924 0-1.87-.576-2.915-1.606-2.915-1.03 0-1.617 1.054-1.617 2.915 0 1.884.576 2.924 1.617 2.924zm6.191.767c-1.587 0-2.5-1.348-2.5-3.691 0-2.325.923-3.687 2.5-3.687 1.568 0 2.49 1.367 2.49 3.701 0 2.34-.908 3.677-2.49 3.677zm0-.767c1.04 0 1.607-1.035 1.607-2.924 0-1.87-.577-2.915-1.607-2.915s-1.616 1.054-1.616 2.915c0 1.884.576 2.924 1.616 2.924zm9.957-3.96h-2.53V182h-.84v-5.264h3.37v.703zm3.735-.795c1.343 0 2.212 1.069 2.212 2.724 0 1.646-.874 2.725-2.212 2.725-.751 0-1.357-.327-1.645-.884h-.078v2.549h-.84v-7.022h.8v.88h.079a1.898 1.898 0 0 1 1.684-.972zm-.2 4.692c.967 0 1.543-.737 1.543-1.968 0-1.23-.576-1.968-1.538-1.968-.952 0-1.553.757-1.553 1.968 0 1.206.601 1.968 1.548 1.968zm7.183.664v-2.383h-2.627V182h-.84v-5.264h.84v2.178h2.627v-2.178h.84V182h-.84zM225.81 126.753V126h.834c.81 0 1.387-.518 1.387-1.25 0-.66-.503-1.196-1.353-1.196s-1.4.434-1.474 1.225h-.855c.088-1.147.962-1.992 2.388-1.992 1.392 0 2.192.879 2.188 1.865-.005.85-.533 1.411-1.255 1.621v.079c.913.146 1.518.766 1.518 1.748 0 1.181-1.079 2.065-2.48 2.065-1.43 0-2.417-.786-2.48-1.982h.849c.078.742.713 1.215 1.621 1.215.928 0 1.587-.532 1.587-1.323 0-.815-.61-1.323-1.602-1.323h-.874zm6.367 3.247v-6.07h-.078l-1.792 1.3v-.928l1.875-1.348h.874V130h-.88zm6.104 0h-1.05l2.27-2.773-2.192-2.49h1.02l1.841 2.216h.313v-2.217h.82v2.217h.313l1.84-2.217h1.006l-2.177 2.471L244.57 130h-1.065l-1.89-2.412h-.312V130h-.82v-2.412h-.313L238.28 130zm9.292.093c-1.499 0-2.427-1.035-2.427-2.725 0-1.694.928-2.724 2.427-2.724 1.5 0 2.427 1.03 2.427 2.724 0 1.69-.928 2.725-2.427 2.725zm0-.757c.996 0 1.558-.723 1.558-1.968 0-1.25-.562-1.968-1.558-1.968s-1.558.718-1.558 1.968c0 1.245.562 1.968 1.558 1.968zm5.972.664h-2.241v-5.264h2.231c.996 0 1.577.542 1.577 1.372 0 .523-.366 1.02-.859 1.123v.079c.669.092 1.094.561 1.094 1.176 0 .918-.67 1.514-1.802 1.514zm-1.401-4.56v1.523h1.147c.684 0 .991-.264.991-.767 0-.454-.263-.757-.854-.757h-1.284zm0 2.226v1.63h1.382c.644 0 .986-.292.986-.824 0-.557-.39-.806-1.148-.806h-1.22zm7.954-2.93v.703h-1.709V130h-.84v-4.56h-1.709v-.704h4.258zm4.585 5.264v-2.383h-2.627V130h-.84v-5.264h.84v2.178h2.627v-2.178h.84V130h-.84zm4.214-2.588h.992v-1.973h-.992c-.693 0-1.137.381-1.137 1.021 0 .557.449.952 1.137.952zm.992 2.588v-1.885h-.904L267.643 130h-1.001l1.47-2.041c-.743-.21-1.192-.757-1.192-1.48 0-1.083.771-1.743 1.977-1.743h1.832V130h-.84zm-45.098 9.617v2.06h-.79v-2.06h-1.964v-.79H224v-2.061h.791v2.06h1.963v.791h-1.963zm3.482-2.676c0-1.254.967-2.153 2.314-2.153 1.23 0 2.173.835 2.173 1.978 0 .81-.351 1.396-1.621 2.71l-1.602 1.655v.078h3.34V142h-4.56v-.605l2.383-2.579c.898-.971 1.162-1.337 1.162-1.958 0-.747-.503-1.303-1.333-1.303-.845 0-1.407.551-1.407 1.386h-.85zm11.036 5.225c-1.333 0-2.29-.82-2.369-2.026h.865c.078.752.683 1.255 1.513 1.255.923 0 1.533-.665 1.533-1.65 0-.953-.61-1.593-1.499-1.593-.668 0-1.196.308-1.474.83h-.825l.405-4.028h3.911v.786h-3.223l-.22 2.295h.079c.342-.425.864-.64 1.567-.64 1.182 0 2.158.928 2.158 2.325 0 1.45-.981 2.446-2.421 2.446zm6.103 0c-1.587 0-2.5-1.348-2.5-3.691 0-2.325.923-3.687 2.5-3.687 1.568 0 2.49 1.367 2.49 3.701 0 2.34-.908 3.677-2.49 3.677zm0-.767c1.04 0 1.607-1.035 1.607-2.924 0-1.87-.576-2.915-1.607-2.915-1.03 0-1.616 1.054-1.616 2.915 0 1.884.576 2.924 1.616 2.924zm6.192.767c-1.587 0-2.5-1.348-2.5-3.691 0-2.325.923-3.687 2.5-3.687 1.567 0 2.49 1.367 2.49 3.701 0 2.34-.908 3.677-2.49 3.677zm0-.767c1.04 0 1.606-1.035 1.606-2.924 0-1.87-.576-2.915-1.606-2.915-1.03 0-1.616 1.054-1.616 2.915 0 1.884.576 2.924 1.616 2.924zm9.957-3.96h-2.53V142h-.84v-5.264h3.37v.703zm3.735-.795c1.343 0 2.212 1.069 2.212 2.724 0 1.646-.874 2.725-2.212 2.725-.752 0-1.357-.327-1.645-.884h-.078v2.549h-.84v-7.022h.8v.88h.079a1.898 1.898 0 0 1 1.684-.972zm-.2 4.692c.967 0 1.543-.737 1.543-1.968 0-1.23-.576-1.968-1.538-1.968-.952 0-1.553.757-1.553 1.968 0 1.206.6 1.968 1.548 1.968zm7.183.664v-2.383h-2.627V142h-.84v-5.264h.84v2.178h2.627v-2.178h.84V142h-.84z"/>
        <path stroke="#FFF" stroke-dasharray="6" stroke-linecap="round" d="M32 102h279" opacity=".1"/>
        <path stroke="#FF6FB6" stroke-linecap="round" stroke-width="6" d="M32 102h2.411a24 24 0 0 1 20.58 11.652l10.018 16.696A24 24 0 0 0 85.589 142h90.822a24 24 0 0 0 20.58-11.652l10.018-16.696A24 24 0 0 1 227.589 102H311"/>
        <path stroke="#64D960" stroke-linecap="round" stroke-width="6" d="M16 102h18.411a24 24 0 0 1 20.58 11.652l10.018 16.696A24 24 0 0 0 85.589 142m166-40H327"/>
        <path stroke="#FFF" stroke-linecap="round" d="M88 50v104M247 50v64" opacity=".4"/>
        <g transform="translate(72 126)">
            <circle cx="16" cy="16" r="16" fill="#ED4899"/>
            <g opacity=".9">
                <path d="M8 8h16v16H8z"/>
                <path stroke="#FFF" stroke-linecap="round" stroke-width="2" d="M20.243 18L16 22.243 11.757 18M16 21V10"/>
            </g>
        </g>
        <g transform="translate(231 86)">
            <circle cx="16" cy="16" r="16" fill="#44BE40"/>
            <g opacity=".9">
                <path d="M8 24h16V8H8z"/>
                <path stroke="#FFF" stroke-linecap="round" stroke-width="2" d="M20.243 14L16 9.757 11.757 14M16 11v11"/>
            </g>
        </g>
        <g transform="translate(89 24)">
            <rect width="157" height="24" fill="#000" opacity=".05" rx="4"/>
            <path fill="#FFF" fill-rule="nonzero" d="M8.984 10.02c0-1.838 1.402-3.124 3.391-3.124 1.853 0 3.186 1.183 3.186 2.817 0 1.141-.5 1.948-2.229 3.657l-2.174 2.14v.116h4.553V17H9.066v-1.107l3.377-3.48c1.251-1.285 1.58-1.764 1.58-2.543 0-.936-.65-1.647-1.744-1.647-1.114 0-1.845.724-1.845 1.798h-1.45zM22.74 17H21.31V9.556h1.846l2.4 5.325h.116l2.406-5.325h1.798V17H28.44v-5.134h-.13L26.13 16.7h-1.08l-2.181-4.833h-.13V17zm9.208 0V9.556h1.463V17h-1.463zm.732-8.736c-.513 0-.93-.431-.93-.957 0-.534.417-.964.93-.964.513 0 .93.43.93.964 0 .526-.417.957-.93.957zm9.044 3.725h-1.428c-.171-.724-.773-1.264-1.757-1.264-1.23 0-1.983.943-1.983 2.529 0 1.613.76 2.577 1.983 2.577.93 0 1.565-.424 1.757-1.224h1.428c-.191 1.497-1.34 2.537-3.178 2.537-2.167 0-3.494-1.463-3.494-3.89 0-2.386 1.32-3.842 3.487-3.842 1.866 0 2.994 1.087 3.185 2.577zm4.28 1.279h1.333v-2.475h-1.333c-.889 0-1.456.485-1.456 1.271 0 .705.574 1.204 1.456 1.204zM47.336 17v-2.55h-1.107L44.424 17h-1.71l2.031-2.816c-1.025-.294-1.654-1.087-1.654-2.113 0-1.551 1.12-2.515 2.837-2.515h2.857V17h-1.45zm10.931 1.948H56.9V17h-6.002V9.556h1.47v6.207h3.267V9.556h1.47v6.207h1.162v3.185zm1.3-1.948V9.556h1.462V17h-1.463zm.73-8.736c-.512 0-.929-.431-.929-.957 0-.534.417-.964.93-.964.512 0 .93.43.93.964 0 .526-.418.957-.93.957z"/>
        </g>
    </g>
</svg>
