<svg xmlns="http://www.w3.org/2000/svg" width="343" height="302" viewBox="0 0 343 302">
    <defs>
        <linearGradient id="a" x1="50%" x2="50%" y1="0%" y2="100%">
            <stop offset="0%" stop-color="#FFA8DC"/>
            <stop offset="100%" stop-color="#FF6FB6" stop-opacity="0"/>
        </linearGradient>
        <linearGradient id="b" x1="50%" x2="50%" y1="0%" y2="100%">
            <stop offset="0%" stop-color="#9DEE99" stop-opacity="0"/>
            <stop offset="100%" stop-color="#64D960"/>
        </linearGradient>
        <linearGradient id="c" x1="50%" x2="50%" y1="0%" y2="100%">
            <stop offset="0%" stop-color="#9DEE99" stop-opacity="0"/>
            <stop offset="100%" stop-color="#64D960"/>
        </linearGradient>
    </defs>
    <g fill="none" fill-rule="evenodd">
        <path d="M0 0h343v302H0z" opacity=".1"/>
        <g transform="translate(58 24)">
            <rect width="188" height="24" fill="#000" opacity=".05" rx="4"/>
            <path fill="#FFF" fill-rule="nonzero" d="M8.984 10.02c0-1.838 1.402-3.124 3.391-3.124 1.853 0 3.186 1.183 3.186 2.817 0 1.141-.5 1.948-2.229 3.657l-2.174 2.14v.116h4.553V17H9.066v-1.107l3.377-3.48c1.251-1.285 1.58-1.764 1.58-2.543 0-.936-.65-1.647-1.744-1.647-1.114 0-1.845.724-1.845 1.798h-1.45zM22.74 17H21.31V9.556h1.846l2.4 5.325h.116l2.406-5.325h1.798V17H28.44v-5.134h-.13L26.13 16.7h-1.08l-2.181-4.833h-.13V17zm9.208 0V9.556h1.463V17h-1.463zm.732-8.736c-.513 0-.93-.431-.93-.957 0-.534.417-.964.93-.964.513 0 .93.43.93.964 0 .526-.417.957-.93.957zm9.044 3.725h-1.428c-.171-.724-.773-1.264-1.757-1.264-1.23 0-1.983.943-1.983 2.529 0 1.613.76 2.577 1.983 2.577.93 0 1.565-.424 1.757-1.224h1.428c-.191 1.497-1.34 2.537-3.178 2.537-2.167 0-3.494-1.463-3.494-3.89 0-2.386 1.32-3.842 3.487-3.842 1.866 0 2.994 1.087 3.185 2.577zm4.28 1.279h1.333v-2.475h-1.333c-.889 0-1.456.485-1.456 1.271 0 .705.574 1.204 1.456 1.204zM47.336 17v-2.55h-1.107L44.424 17h-1.71l2.031-2.816c-1.025-.294-1.654-1.087-1.654-2.113 0-1.551 1.12-2.515 2.837-2.515h2.857V17h-1.45zm10.931 1.948H56.9V17h-6.002V9.556h1.47v6.207h3.267V9.556h1.47v6.207h1.162v3.185zm1.3-1.948V9.556h1.462V17h-1.463zm.73-8.736c-.512 0-.929-.431-.929-.957 0-.534.417-.964.93-.964.512 0 .93.43.93.964 0 .526-.418.957-.93.957z"/>
        </g>
        <g transform="translate(185 52)">
            <rect width="125" height="24" fill="#000" opacity=".05" rx="4"/>
            <path fill="#FFF" fill-rule="nonzero" d="M8.984 10.02c0-1.838 1.402-3.124 3.391-3.124 1.853 0 3.186 1.183 3.186 2.817 0 1.141-.5 1.948-2.229 3.657l-2.174 2.14v.116h4.553V17H9.066v-1.107l3.377-3.48c1.251-1.285 1.58-1.764 1.58-2.543 0-.936-.65-1.647-1.744-1.647-1.114 0-1.845.724-1.845 1.798h-1.45zM22.74 17H21.31V9.556h1.846l2.4 5.325h.116l2.406-5.325h1.798V17H28.44v-5.134h-.13L26.13 16.7h-1.08l-2.181-4.833h-.13V17zm9.208 0V9.556h1.463V17h-1.463zm.732-8.736c-.513 0-.93-.431-.93-.957 0-.534.417-.964.93-.964.513 0 .93.43.93.964 0 .526-.417.957-.93.957zm9.044 3.725h-1.428c-.171-.724-.773-1.264-1.757-1.264-1.23 0-1.983.943-1.983 2.529 0 1.613.76 2.577 1.983 2.577.93 0 1.565-.424 1.757-1.224h1.428c-.191 1.497-1.34 2.537-3.178 2.537-2.167 0-3.494-1.463-3.494-3.89 0-2.386 1.32-3.842 3.487-3.842 1.866 0 2.994 1.087 3.185 2.577zm4.28 1.279h1.333v-2.475h-1.333c-.889 0-1.456.485-1.456 1.271 0 .705.574 1.204 1.456 1.204zM47.336 17v-2.55h-1.107L44.424 17h-1.71l2.031-2.816c-1.025-.294-1.654-1.087-1.654-2.113 0-1.551 1.12-2.515 2.837-2.515h2.857V17h-1.45zm10.931 1.948H56.9V17h-6.002V9.556h1.47v6.207h3.267V9.556h1.47v6.207h1.162v3.185zm1.3-1.948V9.556h1.462V17h-1.463zm.73-8.736c-.512 0-.929-.431-.929-.957 0-.534.417-.964.93-.964.512 0 .93.43.93.964 0 .526-.418.957-.93.957z"/>
        </g>
        <path stroke="#FFF" stroke-dasharray="6" stroke-linecap="round" d="M32 132h279" opacity=".1"/>
        <path stroke="#FFF" stroke-linecap="round" d="M57 80v104" opacity=".4"/>
        <path fill="#FFF" fill-rule="nonzero" d="M27.511 200v-6.07h-.078l-1.792 1.3v-.928l1.875-1.348h.874V200h-.879zm5.24.166c-1.587 0-2.5-1.348-2.5-3.691 0-2.325.922-3.687 2.5-3.687 1.567 0 2.49 1.367 2.49 3.701 0 2.34-.908 3.677-2.49 3.677zm0-.767c1.04 0 1.606-1.035 1.606-2.924 0-1.87-.576-2.915-1.606-2.915-1.03 0-1.617 1.054-1.617 2.915 0 1.884.577 2.924 1.617 2.924zm7.852-1.709c-.108 1.446-.454 2.354-1.548 2.354a.785.785 0 0 1-.308-.054v-.771c.044.014.142.039.264.039.522 0 .723-.61.79-1.587l.206-2.935h3.442V200h-.84v-4.56h-1.84l-.166 2.25zm5.249 2.31h-.84v-5.264h.84v3.926h.078l2.622-3.926h.84V200h-.84v-3.926h-.078L45.852 200zm9.463-3.652h-.85c-.136-.523-.6-.948-1.357-.948-.947 0-1.543.757-1.543 1.949 0 1.215.606 1.987 1.543 1.987.708 0 1.201-.327 1.358-.923h.85c-.152.967-.938 1.68-2.203 1.68-1.475 0-2.417-1.07-2.417-2.744 0-1.641.938-2.705 2.412-2.705 1.28 0 2.06.766 2.207 1.704zm4.795-1.612v.703h-1.709V200h-.84v-4.56h-1.708v-.704h4.257zm3.091 5.357c-1.499 0-2.426-1.035-2.426-2.725 0-1.694.927-2.724 2.426-2.724 1.5 0 2.427 1.03 2.427 2.724 0 1.69-.928 2.725-2.427 2.725zm0-.757c.997 0 1.558-.723 1.558-1.968 0-1.25-.561-1.968-1.558-1.968-.996 0-1.557.718-1.557 1.968 0 1.245.561 1.968 1.557 1.968zm7.15.664v-4.56h-2.579V200h-.84v-5.264h4.258V200h-.84zm3.872.093c-1.021 0-1.778-.606-1.778-1.568 0-.942.694-1.484 1.92-1.557l1.518-.093v-.479c0-.649-.406-1.005-1.192-1.005-.63 0-1.07.239-1.186.654h-.85c.112-.845.943-1.401 2.066-1.401 1.284 0 2.002.659 2.002 1.752V200h-.801v-.776h-.078c-.342.561-.918.869-1.621.869zm.156-.738c.864 0 1.504-.566 1.504-1.318v-.483l-1.416.092c-.801.054-1.153.333-1.153.86 0 .537.454.85 1.065.85zm4.004 2.037h-.791v-2.095h.44c.385-.254.576-.918.624-1.626l.205-2.935h3.59v4.56h.84v2.096h-.792V200h-4.116v1.392zm3.227-2.095v-3.858h-1.997l-.166 2.251c-.048.64-.185 1.202-.434 1.529v.078h2.597zm4.146.796c-1.02 0-1.777-.606-1.777-1.568 0-.942.693-1.484 1.919-1.557l1.518-.093v-.479c0-.649-.405-1.005-1.191-1.005-.63 0-1.07.239-1.186.654h-.85c.112-.845.942-1.401 2.065-1.401 1.285 0 2.002.659 2.002 1.752V200h-.8v-.776h-.079c-.341.561-.918.869-1.62.869zm.157-.738c.864 0 1.503-.566 1.503-1.318v-.483l-1.416.092c-.8.054-1.152.333-1.152.86 0 .537.454.85 1.065.85zm-49.784 10.208h-3.203v-.795h3.203v.795zM39.25 212v-6.07h-.077l-1.792 1.3v-.928l1.875-1.348h.874V212h-.88zm7.956.166c-1.587 0-2.5-1.348-2.5-3.691 0-2.325.922-3.687 2.5-3.687 1.567 0 2.49 1.367 2.49 3.701 0 2.34-.908 3.677-2.49 3.677zm0-.767c1.04 0 1.606-1.035 1.606-2.924 0-1.87-.576-2.915-1.606-2.915-1.03 0-1.617 1.054-1.617 2.915 0 1.884.576 2.924 1.617 2.924zm6.191.767c-1.587 0-2.5-1.348-2.5-3.691 0-2.325.923-3.687 2.5-3.687 1.568 0 2.49 1.367 2.49 3.701 0 2.34-.908 3.677-2.49 3.677zm0-.767c1.04 0 1.607-1.035 1.607-2.924 0-1.87-.577-2.915-1.607-2.915s-1.616 1.054-1.616 2.915c0 1.884.576 2.924 1.616 2.924zm6.192.767c-1.587 0-2.5-1.348-2.5-3.691 0-2.325.923-3.687 2.5-3.687 1.567 0 2.49 1.367 2.49 3.701 0 2.34-.908 3.677-2.49 3.677zm0-.767c1.04 0 1.606-1.035 1.606-2.924 0-1.87-.576-2.915-1.606-2.915-1.03 0-1.616 1.054-1.616 2.915 0 1.884.576 2.924 1.616 2.924zm9.957-3.96h-2.53V212h-.84v-5.264h3.37v.703zm3.735-.795c1.343 0 2.212 1.069 2.212 2.724 0 1.646-.874 2.725-2.212 2.725-.752 0-1.357-.327-1.645-.884h-.078v2.549h-.84v-7.022h.8v.88h.079a1.898 1.898 0 0 1 1.684-.972zm-.2 4.692c.967 0 1.543-.737 1.543-1.968 0-1.23-.576-1.968-1.538-1.968-.952 0-1.553.757-1.553 1.968 0 1.206.6 1.968 1.548 1.968zm7.183.664v-2.383h-2.627V212h-.84v-5.264h.84v2.178h2.627v-2.178h.84V212h-.84zM90.503 228.753V228h.835c.81 0 1.386-.518 1.386-1.25 0-.66-.503-1.196-1.352-1.196-.85 0-1.402.434-1.475 1.225h-.854c.088-1.147.962-1.992 2.387-1.992 1.392 0 2.193.879 2.188 1.865-.005.85-.532 1.411-1.255 1.621v.079c.913.146 1.519.766 1.519 1.748 0 1.181-1.08 2.065-2.48 2.065-1.432 0-2.418-.786-2.481-1.982h.85c.077.742.712 1.215 1.62 1.215.928 0 1.587-.532 1.587-1.323 0-.815-.61-1.323-1.601-1.323h-.874zm7.05 3.413c-1.586 0-2.5-1.348-2.5-3.691 0-2.325.924-3.687 2.5-3.687 1.568 0 2.491 1.367 2.491 3.701 0 2.34-.908 3.677-2.49 3.677zm0-.767c1.04 0 1.607-1.035 1.607-2.924 0-1.87-.576-2.915-1.606-2.915-1.03 0-1.616 1.054-1.616 2.915 0 1.884.576 2.924 1.616 2.924zm7.853-1.709c-.108 1.446-.454 2.354-1.548 2.354a.785.785 0 0 1-.308-.054v-.771c.044.014.142.039.264.039.523 0 .723-.61.791-1.587l.205-2.935h3.443V232h-.84v-4.56h-1.841l-.166 2.25zm5.25 2.31h-.84v-5.264h.84v3.926h.077l2.622-3.926h.84V232h-.84v-3.926h-.078L110.655 232zm9.462-3.652h-.85c-.136-.523-.6-.948-1.357-.948-.947 0-1.543.757-1.543 1.949 0 1.215.606 1.987 1.543 1.987.708 0 1.202-.327 1.358-.923h.85c-.152.967-.938 1.68-2.203 1.68-1.474 0-2.417-1.07-2.417-2.744 0-1.641.938-2.705 2.412-2.705 1.28 0 2.06.766 2.207 1.704zm4.796-1.612v.703h-1.71V232h-.84v-4.56h-1.708v-.704h4.258zm3.09 5.357c-1.498 0-2.426-1.035-2.426-2.725 0-1.694.928-2.724 2.427-2.724s2.426 1.03 2.426 2.724c0 1.69-.927 2.725-2.426 2.725zm0-.757c.997 0 1.558-.723 1.558-1.968 0-1.25-.561-1.968-1.557-1.968-.996 0-1.558.718-1.558 1.968 0 1.245.562 1.968 1.558 1.968zm7.15.664v-4.56h-2.579V232h-.84v-5.264h4.258V232h-.84zm4.028-.645c.864 0 1.504-.566 1.504-1.318v-.483l-1.416.092c-.8.054-1.152.333-1.152.86 0 .537.454.85 1.064.85zm-.156.738c-1.02 0-1.778-.606-1.778-1.568 0-.942.694-1.484 1.92-1.557l1.518-.093v-.479c0-.649-.405-1.005-1.192-1.005-.63 0-1.069.239-1.186.654h-.85c.113-.845.943-1.401 2.066-1.401 1.284 0 2.002.659 2.002 1.752V232h-.801v-.776h-.078c-.342.561-.918.869-1.621.869zm7.388-.796v-3.858h-1.997l-.166 2.251c-.05.64-.186 1.202-.435 1.529v.078h2.598zm-3.228 2.095h-.79v-2.095h.439c.385-.254.576-.918.625-1.626l.205-2.935h3.589v4.56h.84v2.096h-.792V232h-4.116v1.392zm7.53-2.037c.864 0 1.504-.566 1.504-1.318v-.483l-1.416.092c-.801.054-1.153.333-1.153.86 0 .537.454.85 1.065.85zm-.156.738c-1.021 0-1.778-.606-1.778-1.568 0-.942.694-1.484 1.92-1.557l1.518-.093v-.479c0-.649-.406-1.005-1.192-1.005-.63 0-1.07.239-1.186.654h-.85c.112-.845.943-1.401 2.066-1.401 1.284 0 2.002.659 2.002 1.752V232h-.801v-.776h-.078c-.342.561-.918.869-1.621.869zm-46.739 9.47h-3.203v-.795h3.203v.795zm3.78 2.603c-1.333 0-2.29-.82-2.368-2.026h.864c.078.752.683 1.255 1.513 1.255.923 0 1.534-.665 1.534-1.65 0-.953-.61-1.593-1.5-1.593-.668 0-1.196.308-1.474.83h-.825l.405-4.028h3.911v.786h-3.222l-.22 2.295h.078c.342-.425.864-.64 1.567-.64 1.182 0 2.159.928 2.159 2.325 0 1.45-.982 2.446-2.422 2.446zm6.104 0c-1.587 0-2.5-1.348-2.5-3.691 0-2.325.922-3.687 2.5-3.687 1.567 0 2.49 1.367 2.49 3.701 0 2.34-.908 3.677-2.49 3.677zm0-.767c1.04 0 1.606-1.035 1.606-2.924 0-1.87-.576-2.915-1.606-2.915-1.03 0-1.617 1.054-1.617 2.915 0 1.884.576 2.924 1.617 2.924zm6.191.767c-1.587 0-2.5-1.348-2.5-3.691 0-2.325.923-3.687 2.5-3.687 1.568 0 2.49 1.367 2.49 3.701 0 2.34-.908 3.677-2.49 3.677zm0-.767c1.04 0 1.607-1.035 1.607-2.924 0-1.87-.577-2.915-1.607-2.915s-1.616 1.054-1.616 2.915c0 1.884.576 2.924 1.616 2.924zm9.957-3.96h-2.53V244h-.84v-5.264h3.37v.703zm3.735-.795c1.343 0 2.212 1.069 2.212 2.724 0 1.646-.874 2.725-2.212 2.725-.752 0-1.357-.327-1.645-.884h-.078v2.549h-.84v-7.022h.8v.88h.079a1.898 1.898 0 0 1 1.684-.972zm-.2 4.692c.967 0 1.543-.737 1.543-1.968 0-1.23-.576-1.968-1.538-1.968-.952 0-1.553.757-1.553 1.968 0 1.206.601 1.968 1.548 1.968zm7.183.664v-2.383h-2.627V244h-.84v-5.264h.84v2.178h2.627v-2.178h.84V244h-.84zM167.357 264.166c-1.333 0-2.29-.82-2.368-2.026h.864c.079.752.684 1.255 1.514 1.255.923 0 1.533-.665 1.533-1.65 0-.953-.61-1.593-1.499-1.593-.669 0-1.196.308-1.474.83h-.826l.406-4.028h3.91v.786h-3.222l-.22 2.295h.079c.341-.425.864-.64 1.567-.64 1.182 0 2.158.928 2.158 2.325 0 1.45-.981 2.446-2.422 2.446zm9.869-4.727h-2.53V264h-.84v-5.264h3.37v.703zm3.736-.795c1.342 0 2.212 1.069 2.212 2.724 0 1.646-.874 2.725-2.212 2.725-.752 0-1.358-.327-1.646-.884h-.078v2.549h-.84v-7.022h.8v.88h.08a1.898 1.898 0 0 1 1.684-.972zm-.2 4.692c.966 0 1.542-.737 1.542-1.968 0-1.23-.576-1.968-1.538-1.968-.952 0-1.552.757-1.552 1.968 0 1.206.6 1.968 1.547 1.968zm3.974 2.568c-.112 0-.258-.01-.376-.029v-.718c.103.02.235.025.352.025.483 0 .747-.23.967-.865l.097-.312-1.948-5.269h.908l1.446 4.331h.078l1.44-4.33h.894l-2.056 5.585c-.45 1.221-.87 1.582-1.802 1.582zm8.12-2.607v-3.858h-1.996l-.166 2.251c-.05.64-.186 1.202-.435 1.529v.078h2.598zm-3.227 2.095h-.79v-2.095h.439c.385-.254.576-.918.625-1.626l.205-2.935h3.589v4.56h.84v2.096h-.792V264h-4.116v1.392zM199 264v-2.383h-2.626V264h-.84v-5.264h.84v2.178H199v-2.178h.84V264H199zm4.215-2.588h.99v-1.973h-.99c-.694 0-1.138.381-1.138 1.021 0 .557.45.952 1.138.952zm.99 2.588v-1.885h-.902L201.959 264h-1.001l1.47-2.041c-.743-.21-1.192-.757-1.192-1.48 0-1.083.772-1.743 1.978-1.743h1.83V264h-.84zm-40.763 9.563h-3.203v-.795h3.203v.795zm1.392-2.622c0-1.254.967-2.153 2.314-2.153 1.23 0 2.173.835 2.173 1.978 0 .81-.351 1.396-1.62 2.71l-1.602 1.655v.078h3.34V276h-4.561v-.605l2.383-2.579c.898-.971 1.162-1.337 1.162-1.958 0-.747-.503-1.303-1.333-1.303-.845 0-1.407.551-1.407 1.386h-.85zm11.06 5.225c-1.587 0-2.5-1.348-2.5-3.691 0-2.325.923-3.687 2.5-3.687 1.567 0 2.49 1.367 2.49 3.701 0 2.34-.908 3.677-2.49 3.677zm0-.767c1.04 0 1.606-1.035 1.606-2.924 0-1.87-.576-2.915-1.606-2.915-1.03 0-1.616 1.054-1.616 2.915 0 1.884.576 2.924 1.616 2.924zm6.192.767c-1.587 0-2.5-1.348-2.5-3.691 0-2.325.923-3.687 2.5-3.687 1.567 0 2.49 1.367 2.49 3.701 0 2.34-.908 3.677-2.49 3.677zm0-.767c1.04 0 1.606-1.035 1.606-2.924 0-1.87-.576-2.915-1.606-2.915-1.03 0-1.617 1.054-1.617 2.915 0 1.884.577 2.924 1.617 2.924zm6.191.767c-1.587 0-2.5-1.348-2.5-3.691 0-2.325.923-3.687 2.5-3.687 1.568 0 2.49 1.367 2.49 3.701 0 2.34-.908 3.677-2.49 3.677zm0-.767c1.04 0 1.607-1.035 1.607-2.924 0-1.87-.576-2.915-1.607-2.915-1.03 0-1.616 1.054-1.616 2.915 0 1.884.576 2.924 1.616 2.924zm9.957-3.96h-2.53V276h-.84v-5.264h3.37v.703zm3.736-.795c1.342 0 2.212 1.069 2.212 2.724 0 1.646-.874 2.725-2.212 2.725-.752 0-1.358-.327-1.646-.884h-.078v2.549h-.84v-7.022h.8v.88h.079a1.898 1.898 0 0 1 1.685-.972zm-.2 4.692c.966 0 1.542-.737 1.542-1.968 0-1.23-.576-1.968-1.538-1.968-.952 0-1.552.757-1.552 1.968 0 1.206.6 1.968 1.547 1.968zm7.182.664v-2.383h-2.627V276h-.84v-5.264h.84v2.178h2.627v-2.178h.84V276h-.84zM227.174 196.753V196h.835c.81 0 1.386-.518 1.386-1.25 0-.66-.503-1.196-1.352-1.196-.85 0-1.402.434-1.475 1.225h-.854c.087-1.147.962-1.992 2.387-1.992 1.392 0 2.193.879 2.188 1.865-.005.85-.532 1.411-1.255 1.621v.079c.913.146 1.518.766 1.518 1.748 0 1.181-1.079 2.065-2.48 2.065-1.43 0-2.417-.786-2.48-1.982h.85c.077.742.712 1.215 1.62 1.215.928 0 1.587-.532 1.587-1.323 0-.815-.61-1.323-1.601-1.323h-.874zM233.54 200v-6.07h-.078l-1.792 1.3v-.928l1.875-1.348h.874V200h-.879zm9.004-4.56h-2.529V200h-.84v-5.264h3.37v.703zm3.736-.796c1.343 0 2.212 1.069 2.212 2.724 0 1.646-.874 2.725-2.212 2.725-.752 0-1.357-.327-1.645-.884h-.079v2.549h-.84v-7.022h.801v.88h.079a1.898 1.898 0 0 1 1.684-.972zm-.2 4.692c.967 0 1.543-.737 1.543-1.968 0-1.23-.576-1.968-1.538-1.968-.952 0-1.553.757-1.553 1.968 0 1.206.6 1.968 1.548 1.968zm3.975 2.568c-.113 0-.259-.01-.376-.029v-.718c.102.02.234.025.351.025.484 0 .747-.23.967-.865l.098-.312-1.948-5.269h.908l1.445 4.331h.078l1.44-4.33h.894l-2.055 5.585c-.45 1.221-.87 1.582-1.802 1.582zm8.12-2.607v-3.858h-1.997l-.166 2.251c-.049.64-.185 1.202-.434 1.529v.078h2.597zm-3.227 2.095h-.791v-2.095h.44c.385-.254.575-.918.624-1.626l.205-2.935h3.589v4.56h.84v2.096h-.791V200h-4.116v1.392zm9.37-1.392v-2.383h-2.627V200h-.84v-5.264h.84v2.178h2.627v-2.178h.84V200h-.84zm4.214-2.588h.991v-1.973h-.99c-.694 0-1.138.381-1.138 1.021 0 .557.449.952 1.137.952zm.991 2.588v-1.885h-.903L267.278 200h-1l1.47-2.041c-.743-.21-1.192-.757-1.192-1.48 0-1.083.771-1.743 1.977-1.743h1.831V200h-.84zm-43.544 9.617v2.06h-.791v-2.06h-1.963v-.79h1.963v-2.061h.79v2.06h1.963v.791h-1.962zm5.21 2.383v-6.07h-.078l-1.792 1.3v-.928l1.875-1.348h.874V212h-.88zm7.93.166c-1.333 0-2.29-.82-2.368-2.026h.864c.078.752.684 1.255 1.514 1.255.923 0 1.533-.665 1.533-1.65 0-.953-.61-1.593-1.499-1.593-.669 0-1.196.308-1.475.83h-.825l.405-4.028h3.912v.786h-3.223l-.22 2.295h.078c.342-.425.865-.64 1.568-.64 1.181 0 2.158.928 2.158 2.325 0 1.45-.982 2.446-2.422 2.446zm6.104 0c-1.587 0-2.5-1.348-2.5-3.691 0-2.325.923-3.687 2.5-3.687 1.567 0 2.49 1.367 2.49 3.701 0 2.34-.908 3.677-2.49 3.677zm0-.767c1.04 0 1.606-1.035 1.606-2.924 0-1.87-.576-2.915-1.606-2.915-1.03 0-1.616 1.054-1.616 2.915 0 1.884.576 2.924 1.616 2.924zm6.192.767c-1.587 0-2.5-1.348-2.5-3.691 0-2.325.922-3.687 2.5-3.687 1.567 0 2.49 1.367 2.49 3.701 0 2.34-.908 3.677-2.49 3.677zm0-.767c1.04 0 1.606-1.035 1.606-2.924 0-1.87-.576-2.915-1.606-2.915-1.03 0-1.617 1.054-1.617 2.915 0 1.884.576 2.924 1.617 2.924zm9.956-3.96h-2.53V212h-.839v-5.264h3.37v.703zm3.736-.795c1.343 0 2.212 1.069 2.212 2.724 0 1.646-.874 2.725-2.212 2.725-.752 0-1.358-.327-1.646-.884h-.078v2.549h-.84v-7.022h.801v.88h.078a1.898 1.898 0 0 1 1.685-.972zm-.2 4.692c.966 0 1.543-.737 1.543-1.968 0-1.23-.577-1.968-1.539-1.968-.952 0-1.552.757-1.552 1.968 0 1.206.6 1.968 1.548 1.968zm7.182.664v-2.383h-2.626V212h-.84v-5.264h.84v2.178h2.626v-2.178h.84V212h-.84zM291.24 155.753V155h.836c.81 0 1.387-.518 1.387-1.25 0-.66-.503-1.196-1.353-1.196s-1.401.434-1.475 1.225h-.854c.088-1.147.962-1.992 2.388-1.992 1.391 0 2.192.879 2.187 1.865-.005.85-.532 1.411-1.255 1.621v.079c.913.146 1.519.766 1.519 1.748 0 1.181-1.08 2.065-2.48 2.065-1.431 0-2.418-.786-2.481-1.982h.85c.078.742.712 1.215 1.62 1.215.928 0 1.588-.532 1.588-1.323 0-.815-.61-1.323-1.602-1.323h-.874zm6.368 3.247v-6.07h-.078l-1.792 1.3v-.928l1.875-1.348h.874V159h-.879zm9.996-3.652h-.85c-.136-.523-.6-.948-1.357-.948-.947 0-1.543.757-1.543 1.949 0 1.215.606 1.987 1.543 1.987.708 0 1.201-.327 1.357-.923h.85c-.151.967-.937 1.68-2.202 1.68-1.475 0-2.417-1.07-2.417-2.744 0-1.641.937-2.705 2.412-2.705 1.28 0 2.06.766 2.207 1.704zm1.202 3.652v-5.264h.84V159h-.84zm.42-6.28a.588.588 0 0 1-.586-.585c0-.322.263-.586.585-.586.323 0 .586.263.586.586a.588.588 0 0 1-.586.586zm5.971 6.28h-.84v-2.192h-.078c-.283.2-.698.317-1.264.317-1.27 0-1.929-.762-1.929-1.885v-1.504h.84v1.504c0 .694.371 1.138 1.089 1.138.659 0 1.123-.176 1.343-.42v-2.222h.84V159zm5.03 0v-2.383H317.6V159h-.84v-5.264h.84v2.178h2.627v-2.178h.84V159h-.84zm4.214-2.588h.991v-1.973h-.99c-.694 0-1.139.381-1.139 1.021 0 .557.45.952 1.138.952zm.991 2.588v-1.885h-.903L323.186 159h-1l1.469-2.041c-.742-.21-1.191-.757-1.191-1.48 0-1.083.771-1.743 1.977-1.743h1.831V159h-.84zm-47.6 9.617v2.06h-.79v-2.06h-1.964v-.79h1.963v-2.061h.791v2.06h1.963v.791h-1.963zm3.482-2.676c0-1.254.967-2.153 2.314-2.153 1.23 0 2.173.835 2.173 1.978 0 .81-.351 1.396-1.62 2.71l-1.602 1.655v.078h3.34V171h-4.561v-.605l2.383-2.579c.898-.971 1.162-1.337 1.162-1.958 0-.747-.503-1.303-1.333-1.303-.845 0-1.406.551-1.406 1.386h-.85zm11.06 5.225c-1.587 0-2.5-1.348-2.5-3.691 0-2.325.923-3.687 2.5-3.687 1.567 0 2.49 1.367 2.49 3.701 0 2.34-.908 3.677-2.49 3.677zm0-.767c1.04 0 1.606-1.035 1.606-2.924 0-1.87-.576-2.915-1.606-2.915-1.03 0-1.616 1.054-1.616 2.915 0 1.884.576 2.924 1.616 2.924zm6.192.767c-1.587 0-2.5-1.348-2.5-3.691 0-2.325.923-3.687 2.5-3.687 1.567 0 2.49 1.367 2.49 3.701 0 2.34-.908 3.677-2.49 3.677zm0-.767c1.04 0 1.606-1.035 1.606-2.924 0-1.87-.576-2.915-1.606-2.915-1.03 0-1.617 1.054-1.617 2.915 0 1.884.577 2.924 1.617 2.924zm6.191.767c-1.587 0-2.5-1.348-2.5-3.691 0-2.325.923-3.687 2.5-3.687 1.568 0 2.49 1.367 2.49 3.701 0 2.34-.908 3.677-2.49 3.677zm0-.767c1.04 0 1.607-1.035 1.607-2.924 0-1.87-.576-2.915-1.607-2.915-1.03 0-1.616 1.054-1.616 2.915 0 1.884.576 2.924 1.616 2.924zm9.957-3.96h-2.53V171h-.84v-5.264h3.37v.703zm3.736-.795c1.342 0 2.212 1.069 2.212 2.724 0 1.646-.874 2.725-2.212 2.725-.752 0-1.358-.327-1.646-.884h-.078v2.549h-.84v-7.022h.8v.88h.08a1.898 1.898 0 0 1 1.684-.972zm-.2 4.692c.966 0 1.542-.737 1.542-1.968 0-1.23-.576-1.968-1.538-1.968-.952 0-1.552.757-1.552 1.968 0 1.206.6 1.968 1.547 1.968zm7.182.664v-2.383h-2.627V171h-.84v-5.264h.84v2.178h2.627v-2.178h.84V171h-.84z"/>
        <path fill="url(#a)" d="M57 132h253v88a8 8 0 0 1-8 8H65a8 8 0 0 1-8-8v-88z" opacity=".2"/>
        <path fill="url(#b)" d="M24 36h25a8 8 0 0 1 8 8v88H16V44a8 8 0 0 1 8-8z" opacity=".2"/>
        <path fill="url(#c)" d="M319 36a8 8 0 0 1 8 8v88h-16V44a8 8 0 0 1 8-8z" opacity=".2"/>
        <path stroke="#FFF" stroke-linecap="round" d="M120.5 192l.5-112M184.5 80v144M247.5 80v104M310.5 80v64" opacity=".4"/>
        <path stroke="#64D960" stroke-linecap="round" stroke-width="6" d="M16 132h8a14.13 14.13 0 0 1 12.116 6.86l15.51 25.851A15.013 15.013 0 0 0 64.5 172h19c6.54 0 12.626 3.341 16.137 8.858l9.994 15.705A18.217 18.217 0 0 0 125 205h17.875a24 24 0 0 1 19.777 10.403L177.5 237h12l16.432-47.802A24 24 0 0 1 228.628 173H248l17.984-29.495A24 24 0 0 1 286.476 132H303"/>
        <path stroke="#FF6FB6" stroke-linecap="round" stroke-width="6" d="M51.627 164.711A15.013 15.013 0 0 0 64.5 172h19c6.54 0 12.626 3.341 16.137 8.858l9.994 15.705A18.217 18.217 0 0 0 125 205h17.875a24 24 0 0 1 19.777 10.403L177.5 237h12"/>
        <g transform="translate(40 156)">
            <circle cx="16" cy="16" r="16" fill="#ED4899"/>
            <g opacity=".9">
                <path d="M8 8h16v16H8z"/>
                <path stroke="#FFF" stroke-linecap="round" stroke-width="2" d="M20.243 18L16 22.243 11.757 18M16 21V10"/>
            </g>
        </g>
        <g transform="translate(104 188)">
            <circle cx="16" cy="16" r="16" fill="#ED4899"/>
            <g opacity=".9">
                <path d="M8 8h16v16H8z"/>
                <path stroke="#FFF" stroke-linecap="round" stroke-width="2" d="M20.243 18L16 22.243 11.757 18M16 21V10"/>
            </g>
        </g>
        <g transform="translate(168 220)">
            <circle cx="16" cy="16" r="16" fill="#ED4899"/>
            <g opacity=".9">
                <path d="M8 8h16v16H8z"/>
                <path stroke="#FFF" stroke-linecap="round" stroke-width="2" d="M20.243 18L16 22.243 11.757 18M16 21V10"/>
            </g>
        </g>
        <g transform="translate(232 156)">
            <circle cx="16" cy="16" r="16" fill="#44BE40"/>
            <g opacity=".9">
                <path d="M8 24h16V8H8z"/>
                <path stroke="#FFF" stroke-linecap="round" stroke-width="2" d="M20.243 14L16 9.757 11.757 14M16 11v11"/>
            </g>
        </g>
        <g transform="translate(295 116)">
            <circle cx="16" cy="16" r="16" fill="#44BE40"/>
            <g opacity=".9">
                <path d="M8 24h16V8H8z"/>
                <path stroke="#FFF" stroke-linecap="round" stroke-width="2" d="M20.243 14L16 9.757 11.757 14M16 11v11"/>
            </g>
        </g>
    </g>
</svg>
