<svg xmlns="http://www.w3.org/2000/svg" width="343" height="202" viewBox="0 0 343 202">
    <defs>
        <linearGradient id="a" x1="50%" x2="50%" y1="0%" y2="100%">
            <stop offset="0%" stop-color="#FFA8DC"/>
            <stop offset="100%" stop-color="#FF6FB6" stop-opacity="0"/>
        </linearGradient>
        <linearGradient id="b" x1="50%" x2="50%" y1="0%" y2="100%">
            <stop offset="0%" stop-color="#9DEE99" stop-opacity="0"/>
            <stop offset="100%" stop-color="#64D960"/>
        </linearGradient>
    </defs>
    <g fill="none" fill-rule="evenodd">
        <path d="M0 0h343v202H0z" opacity=".1"/>
        <path fill="url(#a)" d="M16 96h217v88a8 8 0 0 1-8 8H24a8 8 0 0 1-8-8V96z" opacity=".2" transform="translate(0 -20)"/>
        <path fill="url(#b)" d="M241 0h78a8 8 0 0 1 8 8v88h-94V8a8 8 0 0 1 8-8z" opacity=".2" transform="translate(0 -20)"/>
        <path stroke="#FFF" stroke-dasharray="6" stroke-linecap="round" d="M16 76h295" opacity=".1"/>
        <path stroke="#FFF" stroke-linecap="round" d="M57 24v86M233 24v64M145 24v104" opacity=".4"/>
        <path stroke="#FF6FB6" stroke-linecap="round" stroke-width="6" d="M16 100h66.281a24 24 0 0 1 21.709 13.766l3.52 7.468A24 24 0 0 0 129.22 135h30.853a24 24 0 0 0 23.186-17.804l5.984-22.392A24 24 0 0 1 212.428 77H327"/>
        <path stroke="#64D960" stroke-linecap="round" stroke-width="6" d="M233 77h94"/>
        <g transform="translate(129 120)">
            <circle cx="16" cy="16" r="16" fill="#ED4899"/>
            <g opacity=".9">
                <path d="M8 8h16v16H8z"/>
                <path stroke="#FFF" stroke-linecap="round" stroke-width="2" d="M20.243 18L16 22.243 11.757 18M16 21V10"/>
            </g>
        </g>
        <g transform="translate(41 84)">
            <circle cx="16" cy="16" r="16" fill="#ED4899"/>
            <g stroke="#FFF" stroke-linecap="round" stroke-width="2">
                <path d="M11.757 11.757l8.486 8.486M20.243 11.757l-8.486 8.486"/>
            </g>
        </g>
        <path fill="#FFF" fill-rule="nonzero" d="M38.7 128v-6.07h-.078l-1.792 1.3v-.928l1.875-1.348h.874V128h-.878zm9.996-3.652h-.85c-.136-.523-.6-.948-1.357-.948-.947 0-1.543.757-1.543 1.949 0 1.215.606 1.987 1.543 1.987.708 0 1.201-.327 1.358-.923h.85c-.152.967-.938 1.68-2.203 1.68-1.475 0-2.417-1.07-2.417-2.744 0-1.641.938-2.705 2.412-2.705 1.28 0 2.06.766 2.207 1.704zm3.33-.962c-.84 0-1.425.615-1.489 1.548h2.9c-.019-.933-.575-1.548-1.41-1.548zm1.387 3.252h.84c-.244.898-1.064 1.455-2.217 1.455-1.46 0-2.373-1.055-2.373-2.72 0-1.655.928-2.73 2.373-2.73 1.421 0 2.285 1.011 2.285 2.647v.322h-3.784v.04c.044 1.04.625 1.699 1.519 1.699.679 0 1.138-.25 1.357-.713zm4.78-3.994c1.344 0 2.213 1.069 2.213 2.724 0 1.646-.874 2.725-2.212 2.725-.752 0-1.358-.327-1.646-.884h-.078v2.549h-.84v-7.022h.801v.88h.078a1.898 1.898 0 0 1 1.685-.972zm-.2 4.692c.967 0 1.544-.737 1.544-1.968 0-1.23-.577-1.968-1.538-1.968-.953 0-1.553.757-1.553 1.968 0 1.206.6 1.968 1.548 1.968zm7.135.664v-4.56H62.55V128h-.84v-5.264h4.258V128h-.84zm5.87 0v-2.383H68.37V128h-.84v-5.264h.84v2.178h2.627v-2.178h.84V128h-.84zm4.213-2.588h.991v-1.973h-.99c-.694 0-1.138.381-1.138 1.021 0 .557.449.952 1.137.952zm.991 2.588v-1.885H75.3L73.956 128h-1l1.47-2.041c-.743-.21-1.192-.757-1.192-1.48 0-1.083.771-1.743 1.977-1.743h1.831V128h-.84zm-36.38 9.563h-3.204v-.795h3.203v.795zm3.779 2.603c-1.333 0-2.29-.82-2.368-2.026h.864c.078.752.683 1.255 1.513 1.255.923 0 1.534-.665 1.534-1.65 0-.953-.61-1.593-1.5-1.593-.668 0-1.196.308-1.474.83h-.825l.405-4.028h3.911v.786H42.44l-.22 2.295h.078c.342-.425.864-.64 1.567-.64 1.182 0 2.159.928 2.159 2.325 0 1.45-.982 2.446-2.422 2.446zm6.104 0c-1.587 0-2.5-1.348-2.5-3.691 0-2.325.922-3.687 2.5-3.687 1.567 0 2.49 1.367 2.49 3.701 0 2.34-.908 3.677-2.49 3.677zm0-.767c1.04 0 1.606-1.035 1.606-2.924 0-1.87-.576-2.915-1.606-2.915-1.03 0-1.617 1.054-1.617 2.915 0 1.884.576 2.924 1.617 2.924zm6.191.767c-1.587 0-2.5-1.348-2.5-3.691 0-2.325.923-3.687 2.5-3.687 1.568 0 2.49 1.367 2.49 3.701 0 2.34-.908 3.677-2.49 3.677zm0-.767c1.04 0 1.607-1.035 1.607-2.924 0-1.87-.577-2.915-1.607-2.915s-1.616 1.054-1.616 2.915c0 1.884.576 2.924 1.616 2.924zm9.957-3.96h-2.53V140h-.84v-5.264h3.37v.703zm3.735-.795c1.343 0 2.212 1.069 2.212 2.724 0 1.646-.874 2.725-2.212 2.725-.752 0-1.357-.327-1.645-.884h-.078v2.549h-.84v-7.022h.8v.88h.079a1.898 1.898 0 0 1 1.684-.972zm-.2 4.692c.967 0 1.543-.737 1.543-1.968 0-1.23-.576-1.968-1.538-1.968-.952 0-1.553.757-1.553 1.968 0 1.206.601 1.968 1.548 1.968zm7.183.664v-2.383h-2.627V140h-.84v-5.264h.84v2.178h2.627v-2.178h.84V140h-.84zM124.16 164v-6.07h-.077l-1.792 1.3v-.928l1.875-1.348h.874V164h-.88zm5.216.166c-1.333 0-2.29-.82-2.368-2.026h.864c.078.752.684 1.255 1.514 1.255.923 0 1.533-.665 1.533-1.65 0-.953-.61-1.593-1.5-1.593-.668 0-1.195.308-1.474.83h-.825l.405-4.028h3.912v.786h-3.223l-.22 2.295h.078c.342-.425.865-.64 1.568-.64 1.181 0 2.158.928 2.158 2.325 0 1.45-.982 2.446-2.422 2.446zm10.86-3.818h-.85c-.136-.523-.6-.948-1.357-.948-.947 0-1.543.757-1.543 1.949 0 1.215.605 1.987 1.543 1.987.708 0 1.201-.327 1.357-.923h.85c-.151.967-.938 1.68-2.202 1.68-1.475 0-2.417-1.07-2.417-2.744 0-1.641.937-2.705 2.412-2.705 1.28 0 2.06.766 2.207 1.704zm3.33-.962c-.84 0-1.426.615-1.489 1.548h2.9c-.02-.933-.576-1.548-1.41-1.548zm1.387 3.252h.84c-.244.898-1.065 1.455-2.217 1.455-1.46 0-2.373-1.055-2.373-2.72 0-1.655.928-2.73 2.373-2.73 1.42 0 2.285 1.011 2.285 2.647v.322h-3.784v.04c.044 1.04.625 1.699 1.519 1.699.678 0 1.137-.25 1.357-.713zm4.78-3.994c1.343 0 2.212 1.069 2.212 2.724 0 1.646-.874 2.725-2.211 2.725-.752 0-1.358-.327-1.646-.884h-.078v2.549h-.84v-7.022h.8v.88h.079a1.898 1.898 0 0 1 1.685-.972zm-.2 4.692c.967 0 1.543-.737 1.543-1.968 0-1.23-.576-1.968-1.538-1.968-.952 0-1.553.757-1.553 1.968 0 1.206.601 1.968 1.548 1.968zm7.134.664v-4.56h-2.578V164h-.84v-5.264h4.258V164h-.84zm5.87 0v-2.383h-2.627V164h-.84v-5.264h.84v2.178h2.627v-2.178h.84V164h-.84zm4.214-2.588h.991v-1.973h-.991c-.693 0-1.138.381-1.138 1.021 0 .557.45.952 1.138.952zm.991 2.588v-1.885h-.903L165.496 164h-1l1.469-2.041c-.742-.21-1.192-.757-1.192-1.48 0-1.083.772-1.743 1.978-1.743h1.831V164h-.84zm-43.113 9.563h-3.203v-.795h3.203v.795zm3.12 2.437v-6.07h-.077l-1.792 1.3v-.928l1.875-1.348h.874V176h-.88zm7.956.166c-1.587 0-2.5-1.348-2.5-3.691 0-2.325.922-3.687 2.5-3.687 1.567 0 2.49 1.367 2.49 3.701 0 2.34-.908 3.677-2.49 3.677zm0-.767c1.04 0 1.606-1.035 1.606-2.924 0-1.87-.576-2.915-1.606-2.915-1.03 0-1.617 1.054-1.617 2.915 0 1.884.576 2.924 1.617 2.924zm6.191.767c-1.587 0-2.5-1.348-2.5-3.691 0-2.325.923-3.687 2.5-3.687 1.568 0 2.49 1.367 2.49 3.701 0 2.34-.908 3.677-2.49 3.677zm0-.767c1.04 0 1.607-1.035 1.607-2.924 0-1.87-.577-2.915-1.607-2.915s-1.616 1.054-1.616 2.915c0 1.884.576 2.924 1.616 2.924zm6.192.767c-1.587 0-2.5-1.348-2.5-3.691 0-2.325.923-3.687 2.5-3.687 1.567 0 2.49 1.367 2.49 3.701 0 2.34-.908 3.677-2.49 3.677zm0-.767c1.04 0 1.606-1.035 1.606-2.924 0-1.87-.576-2.915-1.606-2.915-1.03 0-1.616 1.054-1.616 2.915 0 1.884.576 2.924 1.616 2.924zm9.957-3.96h-2.53V176h-.84v-5.264h3.37v.703zm3.735-.795c1.343 0 2.212 1.069 2.212 2.724 0 1.646-.874 2.725-2.212 2.725-.752 0-1.357-.327-1.645-.884h-.078v2.549h-.84v-7.022h.8v.88h.079a1.898 1.898 0 0 1 1.684-.972zm-.2 4.692c.967 0 1.543-.737 1.543-1.968 0-1.23-.576-1.968-1.538-1.968-.952 0-1.553.757-1.553 1.968 0 1.206.6 1.968 1.548 1.968zm7.183.664v-2.383h-2.627V176h-.84v-5.264h.84v2.178h2.627v-2.178h.84V176h-.84zM210.98 101.617v2.06h-.791v-2.06h-1.963v-.79h1.963v-2.061h.79v2.06h1.963v.791h-1.962zm5.21 2.383v-6.07h-.078l-1.792 1.3v-.928l1.875-1.348h.874V104h-.88zm7.93.166c-1.333 0-2.29-.82-2.368-2.026h.864c.078.752.684 1.255 1.514 1.255.923 0 1.533-.665 1.533-1.65 0-.953-.61-1.593-1.499-1.593-.669 0-1.196.308-1.475.83h-.825l.405-4.028h3.912v.786h-3.223l-.22 2.295h.078c.342-.425.865-.64 1.568-.64 1.181 0 2.158.928 2.158 2.325 0 1.45-.982 2.446-2.422 2.446zm6.104 0c-1.587 0-2.5-1.348-2.5-3.691 0-2.325.923-3.687 2.5-3.687 1.567 0 2.49 1.367 2.49 3.701 0 2.34-.908 3.677-2.49 3.677zm0-.767c1.04 0 1.606-1.035 1.606-2.924 0-1.87-.576-2.915-1.606-2.915-1.03 0-1.616 1.054-1.616 2.915 0 1.884.576 2.924 1.616 2.924zm6.192.767c-1.587 0-2.5-1.348-2.5-3.691 0-2.325.922-3.687 2.5-3.687 1.567 0 2.49 1.367 2.49 3.701 0 2.34-.908 3.677-2.49 3.677zm0-.767c1.04 0 1.606-1.035 1.606-2.924 0-1.87-.576-2.915-1.606-2.915-1.03 0-1.617 1.054-1.617 2.915 0 1.884.576 2.924 1.617 2.924zm9.956-3.96h-2.53V104h-.839v-5.264h3.37v.703zm3.736-.795c1.343 0 2.212 1.069 2.212 2.724 0 1.646-.874 2.725-2.212 2.725-.752 0-1.358-.327-1.646-.884h-.078v2.549h-.84v-7.022h.801v.88h.078a1.898 1.898 0 0 1 1.685-.972zm-.2 4.692c.966 0 1.543-.737 1.543-1.968 0-1.23-.577-1.968-1.539-1.968-.952 0-1.552.757-1.552 1.968 0 1.206.6 1.968 1.548 1.968zm7.182.664v-2.383h-2.626V104h-.84v-5.264h.84v2.178h2.626v-2.178h.84V104h-.84z"/>
        <g transform="translate(217 60)">
            <circle cx="16" cy="16" r="16" fill="#44BE40"/>
            <g opacity=".9">
                <path d="M8 24h16V8H8z"/>
                <path stroke="#FFF" stroke-linecap="round" stroke-width="2" d="M20.243 14L16 9.757 11.757 14M16 11v11"/>
            </g>
        </g>
    </g>
</svg>
