<svg xmlns="http://www.w3.org/2000/svg" width="208" height="209" viewBox="0 0 208 209">
    <g fill="none" fill-rule="evenodd">
        <g transform="translate(24 11)">
            <path fill="#FFF" d="M51.027 21.622h44.108c16.72 9.513 25.081 17.873 25.081 25.08 0 4.646 2.19 17.808-4.757 27.244-1.69 2.296 4.021 5.036 10.379 14.27 2.165 3.145 5.336 9.775 9.513 19.892 2.815 16.466 5.265 28.574 7.352 36.324 1.204 4.474-11.447 42.902-22.92 40.65-17.36-3.41-30.103-10.812-34.594-10.812-3.395 0-12.76 4.275-24.216 6.92-11.243 2.594-17.219 5.603-21.622 0-2.18-2.775-16-27.244-14.702-36.758 1.929-14.146 9.08-39.783 12.973-52.756.716-2.388-.581-4.406-3.892-6.054-1.408-6.115-2.85-10.296-4.325-12.54-9.471-14.416 0-22.777 0-28.541 0-7.112 7.208-14.751 21.622-22.92z"/>
            <path fill="#D8D8D8" d="M59.03 88.009c2.873.353 5.83.538 8.848.538 28.228 0 51.112-16.145 51.112-36.062 0-8.585-4.252-16.47-11.352-22.663 10.686 6.277 17.492 15.749 17.492 26.346 0 18.9-21.647 34.22-48.35 34.22-6.267 0-12.255-.843-17.75-2.38zM37.508 120.826c0 2.152 5.842 35.356 8.301 39.352 1.64 2.665 4.304 7.072 7.994 13.22v9.531l7.993-2.152 20.293 4.304 26.133-2.152c3.688-4.919 5.84-7.379 6.455-7.379.924 0 5.382 3.323 8.303 1.538 1.947-1.19 2.869-3.957 2.765-8.301 4.714-2.46 7.276-3.997 7.687-4.612.41-.615 2.87-9.633 7.377-27.056-3.483-21.93-5.328-33.202-5.533-33.817-.205-.615-2.767-4.92-7.687-12.914 2.255 18.243 3.074 28.39 2.46 30.438-.615 2.049-2.972 10.042-7.07 23.98l-3.997 5.227-1.846 6.148-3.996 12.606c-3.278 1.025-4.918 1.025-4.918 0v-14.45c0 1.23-2.05 5.635-6.151 13.219l-6.148-2.151-6.764 3.382-8.302-12.606 2.77 17.217h-7.688l-3.997-5.842c-.615-7.174-1.23-10.556-1.846-10.146-.615.41-3.381 1.333-8.3 2.768l-17.523-18.446"/>
            <path fill="#FDF39B" stroke="#000" stroke-linecap="round" stroke-linejoin="round" stroke-width="2" d="M54.484 95.407c-.249-1.854-2.502-4.507-4.046-4.95l-4.016-1.152c.247-1.118.34-2.354.283-3.707-.057-1.354-1.059-2.53-3.004-3.531-.536-1.045-1.413-1.743-2.632-2.092-1.219-.35-2.572-.292-4.061.172l-2.9 1.955c-.757 1.343-1.082 2.475-.975 3.397.16 1.383 1.469 3.433 2.695 5.003.817 1.047 2.259 1.46 4.324 1.24-.57.951-.914 2.152-1.033 3.604-.178 2.177 1.852 5.992 4.352 7.377 1.667.924 3.28 1.386 4.84 1.388l.077-.059c.11.777.329 1.403.657 1.879.791 1.145 5.756 5.463 7.576 6.274 1.213.541 2.68.23 4.4-.935-.056 1.107.203 2.33.78 3.667.865 2.006 6.597 5.278 9.454 5.327 1.905.033 3.547-.316 4.925-1.047l3.07-6.676s-.616-2.387-1.706-3.907c-1.09-1.52-6.473-3.662-8.044-3.328l-4.087.869c-.307-1.103-.804-2.239-1.49-3.407-.687-1.168-3.073-2.778-7.159-4.83a3.915 3.915 0 0 0-2.246-.722 9.218 9.218 0 0 0-.034-1.809zM45.66 93.077c1.6-2.696 1.236-4.817-1.095-6.364M66.815 110.691c.726-2.169-1.753-6.813-4.083-8.36M53.616 100.881c1.229-1.93-.053-7.035-1.94-9.1M48.004 99.939c-2.901-1.19-3.886-3.104-2.956-5.742M57.203 107.727c-2.901-1.19-3.886-3.103-2.956-5.741"/>
            <path fill="#FDF39B" stroke="#000" stroke-linecap="round" stroke-linejoin="round" stroke-width="7" d="M71.104 115.46c-2.9-1.19-3.886-3.105-2.955-5.743"/>
            <path fill="#AD2839" stroke="#000" stroke-linecap="round" stroke-linejoin="round" stroke-width="2" d="M27.352 46.424C25.81 47.65 2.407 71.89.218 75.838c-2.189 3.947 12.642-2.145 20.35-2.145 5.14 0 6.682-.306 10.176 2.145"/>
            <path fill="#D8D8D8" d="M84.463 141.703c10.82.607 19.592-8.653 19.592-20.682 0-1.376-.115-2.717-.334-4.01-.216-1.268 10.947-9.07 10.54-10.238-.448-1.283 6.974-12.942 5.83-13.798-6.041-4.514-28.593 6.97-35.628 7.364-10.82.607-19.592 9.866-19.592 20.682 0 10.816 8.771 20.076 19.592 20.682z"/>
            <path fill="#FDF39B" stroke="#000" stroke-linecap="round" stroke-linejoin="round" stroke-width="2" d="M111.931 86.175a9.252 9.252 0 0 1-.341-1.777c-.142-1.865 1.503-4.93 2.917-5.684l3.674-1.962c-.471-1.042-.82-2.232-1.043-3.568-.225-1.336.507-2.696 2.196-4.08.305-1.133 1.016-1.997 2.131-2.593 1.115-.595 2.447-.82 3.994-.676l3.23 1.31c1.016 1.156 1.567 2.196 1.654 3.12.13 1.387-.72 3.664-1.59 5.455-.58 1.194-1.898 1.899-3.957 2.113.753.811 1.337 1.915 1.753 3.31.625 2.093-.563 6.248-2.713 8.123-1.433 1.25-2.909 2.038-4.428 2.364l-.088-.042c.054.783-.03 1.44-.25 1.974-.534 1.286-4.479 6.542-6.084 7.714-1.07.782-2.564.782-4.482 0 .285 1.072.285 2.321 0 3.75-.427 2.142-5.335 6.535-8.11 7.177-1.85.428-3.521.428-5.015 0l-4.376-5.892s.107-2.464.854-4.178 5.55-4.928 7.15-4.928h4.162c.071-1.143.32-2.357.747-3.643.427-1.285 2.419-3.356 5.975-6.213a3.897 3.897 0 0 1 2.04-1.174z"/>
            <circle cx="81.319" cy="117.597" r="16.448" fill="#FDF39B" stroke="#000" stroke-linecap="round" stroke-linejoin="round" stroke-width="2"/>
            <path fill="#000" fill-rule="nonzero" d="M75.121 111.462h1.743v1.739h-1.743z"/>
            <path fill="#000" fill-rule="nonzero" d="M71.872 116.468h8.268v-8.248h-8.268v8.248zm6.577-1.686h-4.913v-4.902h4.913v4.902zM85.106 111.462h1.743v1.739h-1.743z"/>
            <path fill="#000" fill-rule="nonzero" d="M81.857 116.468h8.267v-8.248h-8.267v8.248zm6.577-1.686H83.52v-4.902h4.913v4.902zM75.121 121.423h1.743v1.739h-1.743zM88.302 123.083h1.743v1.74h-1.743zM81.883 123.083h1.743v1.74h-1.743zM85.106 119.973h1.743v5.007h-1.743zM81.883 118.234h1.743v1.74h-1.743z"/>
            <path fill="#000" fill-rule="nonzero" d="M71.872 126.43h8.268v-8.249h-8.268v8.249zm6.577-1.687h-4.913v-4.901h4.913v4.901zM88.381 118.155h1.611v3.426h-1.611zM81.883 124.611h8.162v1.74h-8.162z"/>
            <path fill="#FFF" stroke="#000" stroke-linecap="round" stroke-linejoin="round" stroke-width="2" d="M37.435 109.789c.028 21.959 8.705 38.766 23.127 53.735 2.943.506 30.658-4.065 25.11-12.986-2.788-4.485-9.803-8.246-25.173-35.951"/>
            <path fill="#FFF" stroke="#000" stroke-linecap="round" stroke-linejoin="round" stroke-width="2" d="M69.057 157.362c.03 6.899 5.044 15.93 7.215 15.677 1.163-.136 3.054-.3 6.755-1.656.462-.17-1.219-6.916-2.426-13.19 3.961 5.093 7.431 11.08 7.794 10.913 2.9-1.337 6.063-2.781 6.437-4.264.976-3.856-5.982-9.48-10.453-16.102"/>
            <path stroke="#000" stroke-linecap="round" stroke-linejoin="round" stroke-width="2" d="M36.643 93.77s-3.521 14.985-12.048 50.688c0 0 1.854 21.922 14.427 38.88 0 0 13.334 2.083 22.16-2.142.78-.373 1.23-4.925 1.23-11.698M137.232 122.67a4113.273 4113.273 0 0 1 5.422 21.574s-4.355 25.95-15.968 38.986c0 0-8.987 4.939-17.85-1.319M61.796 180.423c4.92 3.375 25.518 7.057 47.04 1.471 0 0-4.627-13.832 0-24.175M32.728 82.702c-4.525-14.995-5.947-26.987-5.16-31.268 3.968-21.735 31.094-28.16 41.613-29.113 11.287-1.015 21.037-.707 31.155 3.29 32.509 12.788 26.235 41.81 13.779 52.907l-.277.277"/>
            <path fill="#6C97A0" d="M45.106 52.265c1.407 0 2.548-1.158 2.548-2.588 0-.953-.85-2.857-2.548-5.713-1.58 2.856-2.371 4.76-2.371 5.713 0 1.43.964 2.588 2.371 2.588z"/>
            <path stroke="#000" stroke-linecap="round" stroke-linejoin="round" stroke-width="2" d="M113.14 79.013c-21.003 11.659-40.424 11.219-52.574 8.669"/>
            <path fill="#000" fill-rule="nonzero" d="M83.99 51.344c.922.062 5.41.37 5.41.37l5.412.368c.922.061-1.63 5.872-5.81 5.565-4.182-.277-5.934-6.395-5.012-6.303"/>
            <path stroke="#000" stroke-linecap="round" stroke-linejoin="round" stroke-width="2" d="M89.159 56.877s-1.26 7.256-7.102 14.02M90.696 69.79s-.615-6.057-1.845-13.22M80.089 33.511c3.535 6.61 2.46 13.374 2.46 13.374L47.96 38.277"/>
            <path stroke="#000" stroke-linecap="round" stroke-linejoin="round" stroke-width="2" d="M81.473 46.424c-2.368 8.117-10.669 13.097-19.062 11.222-8.455-1.906-13.866-10.146-12.328-18.6M112.586 40.583c1.875 2.06 3.013 4.857 3.013 7.932 0 6.394-4.98 11.621-11.13 11.621-6.026 0-10.914-4.95-11.13-11.16.34-.923 1.17-4.212 1.23-7.287M117.443 41.114s-12.451-3.535-24.288 7.625"/>
            <ellipse cx="67.638" cy="47.654" fill="#000" rx="2.767" ry="4.304"/>
            <ellipse cx="104.531" cy="47.654" fill="#000" rx="2.767" ry="4.304"/>
            <path stroke="#000" stroke-linecap="round" stroke-linejoin="round" stroke-width="2" d="M61.796 159.563l7.071-2.152M127.587 90.704c14.758 24.595 10.663 47.676 0 65.485-2.753 1.152-29.676 2.821-26.743-7.08 2.457-8.292 10.756-10.751 12.601-38.729"/>
            <path fill="#FFF" stroke="#000" stroke-linecap="round" stroke-linejoin="round" stroke-width="2" d="M120.209 155.411c0 6.927-2.982 13.303-5.157 13.534-1.166.125-3.048.382-6.971-.126-.49-.063-.4-7.019-.664-13.408-2.695 5.844-4.703 12.454-5.096 12.371-3.136-.665-7.26-.345-7.26-2.74 0-2.396 3.657-10.574 6.497-18.024"/>
            <path fill="#F64258" stroke="#000" stroke-linecap="round" stroke-linejoin="round" stroke-width="2" d="M27.073 50.728c-.205-13.474 1.332-22.888 4.61-28.243 4.919-8.033 6.893-11.24 22.44-18.792 10.758-5.227 36.27-4.612 43.955 0 5.123 3.074 11.27 13.321 18.443 30.742-16.605-4.993-28.285-7.35-35.041-7.07-24.795 1.024-42.52 8.197-53.177 21.519"/>
            <path fill="#FFF" stroke="#000" stroke-linecap="round" stroke-linejoin="round" stroke-width="2" d="M93.564 18.913C92.547 8.947 87.348 4.68 77.965 6.111c-9.426 1.438-8.814 12.896-7.295 12.802 14.283-.877 30.807 1.167 35.09 2.3"/>
            <path fill="#FDF39B" stroke="#000" stroke-linecap="round" stroke-linejoin="round" stroke-width="2" d="M119.755 80.115c-2.093-2.257-2.188-4.352-.285-6.287M102.904 101.98c-1.234-2.02.156-7.114 2.125-9.096M113.793 89.606c-1.687-1.662-1.57-6.94-.14-9.34M117.75 86.698c3.03-.543 4.368-2.16 4.012-4.85M110.372 96.23c3.03-.544 4.367-2.16 4.011-4.85M98.382 106.682c3.03-.543 4.367-2.16 4.01-4.85"/>
            <path fill="#6C97A0" d="M50.293 116.478l4.434-1.702 1.19 3.1-4.434 1.702 4.958 12.916-3.07 1.178-4.958-12.916-4.264 1.637-1.19-3.1 4.264-1.637-1.454-3.788 3.07-1.179zM119.192 109.77a3.143 3.143 0 1 1 5.974 1.838 3.143 3.143 0 0 1 1.166 6.01 3.143 3.143 0 0 1-3.295 5.149 3.143 3.143 0 1 1-6.224-.76l2.38-12.238z"/>
            <ellipse cx="125.112" cy="114.764" fill="#6C97A0" rx="1.691" ry="1.845" transform="rotate(101 125.112 114.764)"/>
            <ellipse cx="124.173" cy="119.593" fill="#6C97A0" rx="1.691" ry="1.845" transform="rotate(101 124.173 119.593)"/>
            <ellipse cx="120.208" cy="122.267" fill="#6C97A0" rx="1.691" ry="1.845" transform="rotate(101 120.208 122.267)"/>
            <ellipse cx="122.555" cy="110.195" fill="#6C97A0" rx="1.691" ry="1.845" transform="rotate(101 122.555 110.195)"/>
        </g>
    </g>
</svg>
