<svg width="337" height="362" viewBox="0 0 337 362" fill="none" xmlns="http://www.w3.org/2000/svg">
<g filter="url(#filter0_d)">
<path fill-rule="evenodd" clip-rule="evenodd" d="M291.489 228.747C296.514 230.07 301.661 231.417 306.928 232.788L293.27 264.975L310.124 273.417L285.096 312.329L254.938 294.867C253.052 298.002 251.098 301.232 249.077 304.557C248.131 305.798 247.015 306.748 245.732 307.418C245.081 309.226 244.068 310.883 242.753 312.29C241.331 313.811 239.589 315.001 237.649 315.779C237.648 316.768 237.489 317.754 237.18 318.713C235.534 323.8 230.043 326.563 224.913 324.889C224.037 324.604 223.203 324.198 222.439 323.683C221.003 325.199 219.249 326.381 217.299 327.149C215.35 327.916 213.255 328.251 211.156 328.128C211.571 329.851 211.502 331.654 210.956 333.335C209.31 338.418 203.816 341.185 198.687 339.512C193.557 337.838 190.734 332.357 192.38 327.273C192.893 325.69 193.807 324.267 195.037 323.143C196.266 322.019 197.769 321.232 199.398 320.857C198.401 319.124 197.777 317.205 197.567 315.223C197.357 313.243 197.566 311.242 198.178 309.352C198.973 306.885 200.431 304.685 202.396 302.991C202.217 302.822 202.042 302.647 201.873 302.465C200.524 301.057 199.551 299.329 199.048 297.444C198.483 295.319 198.541 293.082 199.215 290.998C200.542 286.897 203.983 284.07 207.962 283.313C208.497 281.982 209.027 280.667 209.552 279.368C207.543 279.356 205.475 279.292 203.352 279.175C187.422 278.299 168.899 274.432 152.73 269.155C135.817 263.638 118.349 255.979 104.836 247.459C102.872 246.221 101.002 244.973 99.2276 243.715C98.9694 244.759 98.708 245.813 98.4436 246.875C102.343 249.744 104.169 254.857 102.612 259.673C101.936 261.756 100.673 263.6 98.9714 264.986C97.503 266.181 95.7615 266.991 93.9043 267.351C93.6088 267.412 93.312 267.461 93.0148 267.499C93.6055 270 93.514 272.628 92.7026 275.134C92.0916 277.027 91.0888 278.767 89.7586 280.247C88.4285 281.727 86.8004 282.91 84.9787 283.724C86.0779 284.99 86.8323 286.514 87.1689 288.149C87.5057 289.785 87.4135 291.476 86.901 293.06C85.2555 298.148 79.7599 300.913 74.6288 299.24C69.4979 297.565 66.6715 292.084 68.3183 286.997C68.8608 285.314 69.859 283.816 71.2038 282.664C69.4343 281.525 67.9335 280.017 66.806 278.246C65.6787 276.474 64.9518 274.482 64.6763 272.408C63.7559 272.373 62.844 272.21 61.9676 271.922C56.8365 270.249 54.0108 264.772 55.6579 259.682C55.9674 258.723 56.4203 257.832 56.9971 257.032C55.882 255.258 55.1692 253.266 54.9087 251.194C54.7454 249.897 54.7621 248.589 54.955 247.306C53.3224 245.496 52.4565 243.389 52.3934 240.961C52.694 237.217 52.9937 233.582 53.2924 230.056L21.6719 226.698L24.1992 180.441L43.5345 183.689L45.2971 172.375L48.6239 148.674C53.3664 150.544 58.0107 152.368 62.5566 154.147C65.3403 142.08 70.5235 126.715 76.1752 114.432C84.238 96.9083 92.2126 87.0076 100.189 88.2918C105.081 89.0777 108.565 93.9054 111.006 102.097C112.213 99.6818 113.44 97.2939 114.684 94.9399C125.766 73.9671 142.808 56.3201 162.514 45.6824C170.377 41.4376 178.498 38.3826 186.729 36.586C187.34 35.8505 188.107 35.0558 189.011 34.2029C191.794 31.5821 195.548 28.8353 199.648 26.5287C210.37 20.4976 221.648 18.2271 231.674 21.4962C245.897 26.133 253.488 35.5859 257.393 49.4196C258.107 51.9495 258.566 53.9759 259.204 57.328C266.426 64.6172 272.324 73.4622 276.79 83.5958C285.555 103.484 288.299 127.455 284.812 150.477C284.462 152.791 284.094 155.105 283.709 157.417C290.124 152.689 295.493 151.065 299.728 153.219C306.919 156.877 307.56 169.574 303.808 188.486C301.168 201.797 296.329 217.34 291.489 228.747ZM213.148 35.2016C218.409 35.806 223.651 36.9456 228.836 38.6376C231.484 39.5014 234.05 40.4922 236.532 41.6053C234.387 37.6115 232.209 35.4571 229.419 34.5473C224.108 32.8156 218.691 33.0235 213.148 35.2016Z" fill="white"/>
<path fill-rule="evenodd" clip-rule="evenodd" d="M291.489 228.747C296.514 230.07 301.661 231.417 306.928 232.788L293.27 264.975L310.124 273.417L285.096 312.329L254.938 294.867C253.052 298.002 251.098 301.232 249.077 304.557C248.131 305.798 247.015 306.748 245.732 307.418C245.081 309.226 244.068 310.883 242.753 312.29C241.331 313.811 239.589 315.001 237.649 315.779C237.648 316.768 237.489 317.754 237.18 318.713C235.534 323.8 230.043 326.563 224.913 324.889C224.037 324.604 223.203 324.198 222.439 323.683C221.003 325.199 219.249 326.381 217.299 327.149C215.35 327.916 213.255 328.251 211.156 328.128C211.571 329.851 211.502 331.654 210.956 333.335C209.31 338.418 203.816 341.185 198.687 339.512C193.557 337.838 190.734 332.357 192.38 327.273C192.893 325.69 193.807 324.267 195.037 323.143C196.266 322.019 197.769 321.232 199.398 320.857C198.401 319.124 197.777 317.205 197.567 315.223C197.357 313.243 197.566 311.242 198.178 309.352C198.973 306.885 200.431 304.685 202.396 302.991C202.217 302.822 202.042 302.647 201.873 302.465C200.524 301.057 199.551 299.329 199.048 297.444C198.483 295.319 198.541 293.082 199.215 290.998C200.542 286.897 203.983 284.07 207.962 283.313C208.497 281.982 209.027 280.667 209.552 279.368C207.543 279.356 205.475 279.292 203.352 279.175C187.422 278.299 168.899 274.432 152.73 269.155C135.817 263.638 118.349 255.979 104.836 247.459C102.872 246.221 101.002 244.973 99.2276 243.715C98.9694 244.759 98.708 245.813 98.4436 246.875C102.343 249.744 104.169 254.857 102.612 259.673C101.936 261.756 100.673 263.6 98.9714 264.986C97.503 266.181 95.7615 266.991 93.9043 267.351C93.6088 267.412 93.312 267.461 93.0148 267.499C93.6055 270 93.514 272.628 92.7026 275.134C92.0916 277.027 91.0888 278.767 89.7586 280.247C88.4285 281.727 86.8004 282.91 84.9787 283.724C86.0779 284.99 86.8323 286.514 87.1689 288.149C87.5057 289.785 87.4135 291.476 86.901 293.06C85.2555 298.148 79.7599 300.913 74.6288 299.24C69.4979 297.565 66.6715 292.084 68.3183 286.997C68.8608 285.314 69.859 283.816 71.2038 282.664C69.4343 281.525 67.9335 280.017 66.806 278.246C65.6787 276.474 64.9518 274.482 64.6763 272.408C63.7559 272.373 62.844 272.21 61.9676 271.922C56.8365 270.249 54.0108 264.772 55.6579 259.682C55.9674 258.723 56.4203 257.832 56.9971 257.032C55.882 255.258 55.1692 253.266 54.9087 251.194C54.7454 249.897 54.7621 248.589 54.955 247.306C53.3224 245.496 52.4565 243.389 52.3934 240.961C52.694 237.217 52.9937 233.582 53.2924 230.056L21.6719 226.698L24.1992 180.441L43.5345 183.689L45.2971 172.375L48.6239 148.674C53.3664 150.544 58.0107 152.368 62.5566 154.147C65.3403 142.08 70.5235 126.715 76.1752 114.432C84.238 96.9083 92.2126 87.0076 100.189 88.2918C105.081 89.0777 108.565 93.9054 111.006 102.097C112.213 99.6818 113.44 97.2939 114.684 94.9399C125.766 73.9671 142.808 56.3201 162.514 45.6824C170.377 41.4376 178.498 38.3826 186.729 36.586C187.34 35.8505 188.107 35.0558 189.011 34.2029C191.794 31.5821 195.548 28.8353 199.648 26.5287C210.37 20.4976 221.648 18.2271 231.674 21.4962C245.897 26.133 253.488 35.5859 257.393 49.4196C258.107 51.9495 258.566 53.9759 259.204 57.328C266.426 64.6172 272.324 73.4622 276.79 83.5958C285.555 103.484 288.299 127.455 284.812 150.477C284.462 152.791 284.094 155.105 283.709 157.417C290.124 152.689 295.493 151.065 299.728 153.219C306.919 156.877 307.56 169.574 303.808 188.486C301.168 201.797 296.329 217.34 291.489 228.747ZM213.148 35.2016C218.409 35.806 223.651 36.9456 228.836 38.6376C231.484 39.5014 234.05 40.4922 236.532 41.6053C234.387 37.6115 232.209 35.4571 229.419 34.5473C224.108 32.8156 218.691 33.0235 213.148 35.2016Z" stroke="white" stroke-width="25"/>
</g>
<path fill-rule="evenodd" clip-rule="evenodd" d="M91.431 274.72C90.767 276.771 89.5979 278.624 88.0292 280.106C86.4607 281.589 84.5423 282.657 82.4479 283.213C83.9182 284.249 85.0201 285.723 85.5926 287.42C86.1652 289.118 86.1785 290.949 85.6305 292.646C84.9459 294.755 83.4453 296.502 81.4587 297.502C79.4721 298.503 77.1622 298.675 75.0371 297.979C72.9112 297.287 71.1432 295.786 70.1219 293.803C69.1006 291.822 68.9095 289.523 69.591 287.412C69.9298 286.363 70.475 285.393 71.1947 284.558C71.9145 283.723 72.7947 283.038 73.7844 282.544C71.5177 281.556 69.5746 279.95 68.1798 277.913C66.785 275.877 65.9954 273.492 65.9022 271.037C64.7152 271.164 63.513 271.036 62.3766 270.662C61.0427 270.227 59.8366 269.47 58.8675 268.457C57.8985 267.444 57.1973 266.21 56.8273 264.863C56.4574 263.517 56.4305 262.103 56.7491 260.749C57.0676 259.393 57.7216 258.142 58.6518 257.106C57.4359 255.445 56.6312 253.523 56.3032 251.498C55.9752 249.473 56.1333 247.404 56.7649 245.458C58.9707 238.642 63.1039 235.188 73.2148 237.175C83.3211 239.165 81.3479 254.589 81.8905 252.911C82.2352 251.844 82.7435 250.878 83.3743 250.023C84.6436 248.313 86.4233 247.049 88.4619 246.406C90.5006 245.764 92.6948 245.776 94.7346 246.442C100.105 248.193 103.063 253.933 101.34 259.257C99.9096 263.677 95.7011 266.421 91.2374 266.223C92.2626 268.959 92.3308 271.953 91.431 274.72Z" fill="white"/>
<path fill-rule="evenodd" clip-rule="evenodd" d="M92.7023 275.134C92.0912 277.027 91.0884 278.767 89.7583 280.247C88.4281 281.727 86.8 282.91 84.9784 283.724C86.0776 284.99 86.8319 286.514 87.1686 288.149C87.5054 289.785 87.4131 291.476 86.9006 293.06C85.2552 298.147 79.7595 300.913 74.6284 299.24C69.4976 297.565 66.6711 292.084 68.3179 286.997C68.8604 285.314 69.8586 283.816 71.2034 282.664C69.434 281.525 67.9331 280.017 66.8056 278.246C65.6783 276.474 64.9514 274.482 64.676 272.408C63.7555 272.373 62.8437 272.21 61.9672 271.922C56.8361 270.249 54.0105 264.772 55.6575 259.682C55.967 258.723 56.4199 257.832 56.9967 257.032C55.8816 255.258 55.1689 253.266 54.9083 251.194C54.6476 249.123 54.8456 247.023 55.4882 245.042C58.1211 236.91 63.4109 233.895 73.4624 235.875C78.4068 236.848 81.1962 240.582 82.4024 245.958C82.5957 246.82 82.738 247.676 82.8433 248.543C84.3256 246.839 86.2828 245.612 88.4701 245.014C90.6575 244.417 92.9779 244.474 95.1411 245.182C101.215 247.162 104.559 253.651 102.611 259.673C101.936 261.756 100.672 263.6 98.9711 264.986C97.2697 266.371 95.2016 267.239 93.0118 267.487C93.6054 269.992 93.5148 272.624 92.7023 275.134ZM90.1556 274.304C90.9643 271.82 90.9029 269.131 89.9814 266.675L89.2837 264.805L91.2878 264.894C93.2208 264.98 95.1248 264.435 96.7094 263.342C98.2941 262.248 99.4724 260.668 100.065 258.84C100.42 257.738 100.554 256.577 100.458 255.422C100.362 254.267 100.038 253.139 99.5049 252.106C98.9719 251.072 98.2401 250.152 97.3513 249.397C96.4625 248.641 95.4342 248.067 94.3249 247.707C92.5527 247.127 90.6459 247.116 88.8743 247.673C87.1025 248.231 85.5557 249.33 84.4523 250.814C83.8882 251.575 83.4525 252.424 83.1622 253.326C83.1138 253.478 83.0648 253.597 82.9761 253.735C82.8212 253.995 82.5783 254.19 82.2909 254.285C82.0214 254.385 81.7262 254.394 81.4494 254.314C81.1726 254.233 80.929 254.065 80.7552 253.835C80.5917 253.637 80.4915 253.396 80.4676 253.142C80.454 253.048 80.4443 252.954 80.4385 252.858C80.4268 252.677 80.3954 251.66 80.3855 251.426C80.3141 249.67 80.1465 248.099 79.7909 246.516C78.7946 242.069 76.6588 239.21 72.9623 238.482C64.226 236.762 60.2528 239.028 58.0361 245.875C57.4692 247.622 57.3276 249.479 57.6226 251.298C57.9174 253.115 58.6407 254.84 59.7328 256.331L60.3695 257.2L59.6515 257.998C58.8695 258.868 58.3196 259.921 58.0518 261.061C57.784 262.2 57.8067 263.389 58.1178 264.522C58.429 265.654 59.0188 266.693 59.8336 267.544C60.6485 268.395 61.6627 269.033 62.7845 269.399C63.7405 269.712 64.7514 269.82 65.7497 269.715L67.186 269.56L67.2388 270.997C67.3226 273.201 68.031 275.341 69.2826 277.169C70.5341 278.999 72.2776 280.441 74.3118 281.331L76.9279 282.469L74.3918 283.735C73.5587 284.148 72.8175 284.722 72.2117 285.426C71.6059 286.128 71.1475 286.944 70.8632 287.827C70.2906 289.602 70.4518 291.535 71.3109 293.202C72.17 294.868 73.657 296.131 75.4448 296.714C77.232 297.297 79.1748 297.155 80.8458 296.313C82.5168 295.472 83.7792 294.003 84.3553 292.229C84.8165 290.802 84.8056 289.262 84.3241 287.835C83.8426 286.408 82.9158 285.167 81.6791 284.297L79.3556 282.659L82.0902 281.93C83.9712 281.432 85.6939 280.473 87.1024 279.141C88.511 277.81 89.5604 276.147 90.1556 274.304Z" fill="#020303"/>
<path fill-rule="evenodd" clip-rule="evenodd" d="M55.9365 259.55C54.294 264.625 57.1155 270.093 62.2343 271.762C67.3585 273.434 72.8437 270.675 74.4861 265.6C74.5396 265.435 74.56 265.26 74.5456 265.085C74.5312 264.912 74.4826 264.742 74.4024 264.587C74.3223 264.431 74.2122 264.293 74.0785 264.179C73.9448 264.066 73.7902 263.979 73.6232 263.924C73.4564 263.871 73.2805 263.849 73.1059 263.862C72.9312 263.875 72.7609 263.922 72.605 264.001C72.4491 264.079 72.3106 264.188 72.1972 264.32C72.0838 264.453 71.9978 264.605 71.9442 264.772C71.3691 266.541 70.109 268.007 68.4411 268.846C66.7732 269.684 64.834 269.828 63.0501 269.244C59.3337 268.032 56.9136 263.602 58.105 259.919C58.3305 259.222 58.3197 258.935 57.6166 258.705C57.4497 258.65 57.2738 258.629 57.0989 258.642C56.9241 258.654 56.7538 258.703 56.5976 258.781C56.4416 258.859 56.3029 258.968 56.1894 259.099C56.0758 259.233 55.9899 259.386 55.9362 259.551L55.9365 259.55ZM81.411 261.65C84.5216 267.192 91.5454 269.217 97.1002 266.172C98.4211 265.448 99.5839 264.472 100.522 263.299C101.46 262.126 102.155 260.778 102.567 259.334C102.979 257.89 103.1 256.377 102.924 254.883C102.747 253.388 102.276 251.941 101.537 250.623C101.364 250.315 101.076 250.086 100.736 249.988C100.395 249.89 100.03 249.929 99.7208 250.097C99.076 250.451 98.954 250.713 99.3131 251.356C101.7 255.613 100.067 261.509 95.7977 263.846C93.7458 264.969 91.3244 265.234 89.0645 264.583C86.8046 263.931 84.8908 262.416 83.7429 260.372C83.6575 260.219 83.5429 260.084 83.4053 259.975C83.2678 259.866 83.1103 259.785 82.9417 259.736C82.7731 259.687 82.5967 259.672 82.4227 259.691C82.2486 259.71 82.0802 259.764 81.9271 259.847C81.7741 259.932 81.6394 260.045 81.5308 260.181C81.4221 260.317 81.3415 260.473 81.2937 260.64C81.2459 260.808 81.2317 260.983 81.252 261.156C81.2725 261.33 81.327 261.496 81.4124 261.65L81.411 261.65Z" fill="#020303"/>
<path fill-rule="evenodd" clip-rule="evenodd" d="M199.453 309.766C198.787 311.818 198.648 314.005 199.049 316.13C199.449 318.255 200.375 320.251 201.743 321.937C199.949 321.909 198.196 322.451 196.741 323.485C195.286 324.519 194.204 325.992 193.654 327.688C193.316 328.732 193.19 329.835 193.28 330.93C193.372 332.026 193.678 333.096 194.184 334.078C194.688 335.058 195.383 335.931 196.226 336.648C197.069 337.364 198.044 337.91 199.096 338.253C201.222 338.945 203.53 338.775 205.515 337.774C207.5 336.773 209 335.027 209.683 332.918C210.024 331.87 210.15 330.765 210.057 329.664C209.965 328.564 209.654 327.492 209.143 326.509C211.555 327.045 214.067 326.892 216.386 326.069C218.706 325.244 220.74 323.782 222.253 321.851C223.11 322.631 224.145 323.244 225.32 323.629C226.653 324.065 228.072 324.164 229.448 323.917C230.824 323.669 232.116 323.084 233.202 322.214C234.289 321.344 235.139 320.215 235.675 318.932C236.21 317.647 236.413 316.25 236.267 314.863C238.222 314.236 239.998 313.157 241.449 311.714C242.899 310.271 243.983 308.503 244.611 306.557C246.817 299.741 245.494 294.509 236.154 290.151C226.817 285.797 219.387 299.437 219.93 297.759C220.276 296.692 220.432 295.609 220.419 294.547C220.393 292.415 219.694 290.342 218.421 288.619C217.149 286.896 215.367 285.611 213.327 284.947C207.959 283.195 202.209 286.091 200.487 291.413C199.057 295.833 200.854 300.536 204.58 303.009C202.15 304.617 200.343 306.998 199.453 309.766Z" fill="white"/>
<path fill-rule="evenodd" clip-rule="evenodd" d="M198.177 309.352C197.565 311.242 197.356 313.244 197.566 315.223C197.776 317.205 198.4 319.124 199.397 320.857C197.768 321.232 196.265 322.019 195.036 323.143C193.807 324.267 192.892 325.69 192.379 327.273C190.733 332.357 193.556 337.838 198.687 339.512C203.815 341.185 209.309 338.418 210.955 333.335C211.501 331.654 211.57 329.851 211.156 328.128C213.254 328.251 215.35 327.916 217.299 327.149C219.248 326.381 221.002 325.199 222.438 323.683C223.202 324.198 224.036 324.604 224.912 324.889C230.042 326.563 235.533 323.8 237.179 318.713C237.488 317.754 237.647 316.768 237.649 315.779C239.588 315.002 241.33 313.811 242.752 312.29C244.175 310.769 245.243 308.954 245.883 306.973C248.513 298.842 246 293.281 236.712 288.953C232.146 286.821 227.704 288.194 223.582 291.832C222.921 292.415 222.305 293.021 221.712 293.663C221.51 291.41 220.645 289.262 219.226 287.488C217.807 285.714 215.897 284.391 213.734 283.688C207.662 281.706 201.162 284.979 199.214 290.998C198.54 293.082 198.482 295.319 199.047 297.444C199.613 299.568 200.777 301.491 202.403 302.985C200.434 304.679 198.973 306.881 198.177 309.352ZM200.724 310.182C201.523 307.696 203.146 305.559 205.327 304.116L206.986 303.014L205.314 301.903C203.7 300.832 202.48 299.268 201.838 297.449C201.197 295.631 201.168 293.658 201.759 291.83C202.115 290.729 202.687 289.711 203.442 288.833C204.195 287.954 205.118 287.235 206.153 286.713C207.189 286.191 208.32 285.878 209.481 285.792C210.642 285.705 211.809 285.848 212.918 286.211C214.691 286.788 216.239 287.905 217.344 289.4C218.451 290.897 219.058 292.699 219.082 294.551C219.094 295.49 218.95 296.429 218.656 297.342C218.606 297.495 218.575 297.619 218.566 297.783C218.54 298.084 218.622 298.384 218.798 298.632C219.162 299.17 219.782 299.329 220.304 299.174C220.617 299.084 220.754 298.975 220.942 298.784C221.006 298.721 221.061 298.652 221.129 298.571C221.248 298.431 221.869 297.627 222.013 297.445C223.099 296.067 224.156 294.895 225.366 293.824C228.776 290.814 232.178 289.762 235.592 291.355C243.661 295.12 245.552 299.298 243.337 306.141C242.773 307.889 241.799 309.475 240.497 310.771C239.195 312.067 237.6 313.035 235.845 313.597L234.821 313.925L234.935 314.993C235.058 316.16 234.886 317.335 234.436 318.415C233.986 319.494 233.272 320.444 232.357 321.176C231.442 321.907 230.358 322.4 229.2 322.608C228.043 322.815 226.85 322.733 225.73 322.366C224.772 322.057 223.891 321.547 223.146 320.872L222.074 319.899L221.191 321.032C219.833 322.764 218.008 324.076 215.925 324.817C213.843 325.556 211.59 325.694 209.423 325.213L206.641 324.593L207.952 327.111C208.383 327.937 208.647 328.838 208.725 329.765C208.804 330.691 208.697 331.621 208.41 332.503C207.835 334.277 206.573 335.744 204.902 336.585C203.233 337.426 201.291 337.569 199.504 336.986C197.718 336.403 196.232 335.142 195.372 333.475C194.514 331.81 194.353 329.877 194.924 328.103C195.387 326.677 196.296 325.437 197.52 324.566C198.744 323.696 200.22 323.24 201.729 323.266L204.567 323.312L202.784 321.11C201.553 319.596 200.722 317.805 200.361 315.896C200.002 313.989 200.127 312.024 200.724 310.182Z" fill="#020303"/>
<path fill-rule="evenodd" clip-rule="evenodd" d="M237.09 318.47C235.444 323.552 229.954 326.316 224.83 324.643C219.702 322.97 216.881 317.494 218.525 312.412C218.632 312.077 218.87 311.8 219.186 311.641C219.501 311.483 219.867 311.454 220.205 311.565C220.542 311.675 220.823 311.913 220.985 312.228C221.146 312.543 221.177 312.907 221.068 313.242C220.784 314.12 220.678 315.047 220.755 315.969C220.831 316.89 221.09 317.788 221.515 318.613C221.94 319.438 222.524 320.172 223.232 320.773C223.941 321.376 224.762 321.833 225.645 322.121C229.367 323.334 233.924 321.175 235.116 317.486C235.342 316.79 235.521 316.563 236.225 316.792C236.928 317.023 237.315 317.774 237.09 318.47ZM215.232 305.119C209.464 307.773 202.591 305.263 199.879 299.514C199.233 298.148 198.865 296.669 198.792 295.165C198.721 293.66 198.948 292.159 199.461 290.745C199.973 289.332 200.761 288.035 201.781 286.928C202.8 285.821 204.03 284.928 205.401 284.297C205.721 284.149 206.088 284.134 206.421 284.255C206.755 284.376 207.028 284.624 207.18 284.944C207.493 285.611 207.441 285.896 206.771 286.204C202.342 288.244 200.208 293.983 202.295 298.4C203.298 300.523 205.105 302.168 207.316 302.975C209.529 303.782 211.966 303.685 214.094 302.706C214.253 302.633 214.425 302.592 214.6 302.585C214.776 302.578 214.951 302.605 215.116 302.666C215.28 302.725 215.432 302.818 215.563 302.936C215.692 303.054 215.797 303.197 215.872 303.354C215.946 303.513 215.989 303.685 215.997 303.859C216.007 304.034 215.98 304.207 215.92 304.371C215.861 304.535 215.77 304.686 215.651 304.814C215.533 304.943 215.391 305.046 215.232 305.119Z" fill="#020303"/>
<path fill-rule="evenodd" clip-rule="evenodd" d="M243.975 209.638C254.89 191.254 286.372 149.398 298.528 155.579C310.683 161.766 297.217 210.36 287.264 231.66C280.63 245.858 267.135 269.695 246.779 303.173C243.439 307.535 236.179 306.869 224.991 301.181C213.806 295.49 208.908 289.969 210.299 284.616C225.473 246.887 236.699 221.894 243.975 209.638Z" fill="#EE4229"/>
<path fill-rule="evenodd" clip-rule="evenodd" d="M241.667 208.275C248.05 197.527 258.933 182.597 268.78 171.621C282.077 156.799 292.537 149.561 299.728 153.219C306.919 156.877 307.561 169.574 303.808 188.486C300.841 203.449 295.094 221.232 289.691 232.791C283.006 247.101 269.476 271.002 249.077 304.557C244.516 310.538 236.013 309.76 223.79 303.54C211.596 297.338 205.896 290.915 207.715 283.93C223.04 245.762 234.302 220.682 241.669 208.274L241.667 208.275ZM243.978 209.638C236.703 221.893 225.48 246.886 210.307 284.613C208.918 289.967 213.813 295.487 224.995 301.177C236.182 306.866 243.444 307.531 246.78 303.17C267.134 269.693 280.628 245.856 287.261 231.66C297.211 210.361 310.677 161.769 298.523 155.581C286.37 149.399 254.894 191.256 243.978 209.638Z" fill="#020303"/>
<path fill-rule="evenodd" clip-rule="evenodd" d="M286.215 192.71C288.085 189.794 289.457 187.516 290.332 185.881C296.856 173.647 298.945 162.031 294.99 159.938C292.993 158.879 292.187 159.768 286.36 163.844C287.077 171.63 287.03 181.248 286.215 192.71Z" fill="#F37D70"/>
<path fill-rule="evenodd" clip-rule="evenodd" d="M112.27 166.859C114.216 145.536 113.272 93.0799 99.7823 90.9112C86.2943 88.7469 68.6729 136.026 64.2347 159.142C61.276 174.55 58.2193 201.807 55.0625 240.919C55.209 246.419 61.4888 250.164 73.8982 252.159C86.3118 254.154 93.5257 252.573 95.5432 247.42C105.397 207.927 110.973 181.072 112.27 166.859Z" fill="#EE4229"/>
<path fill-rule="evenodd" clip-rule="evenodd" d="M114.936 167.12C113.625 181.508 108.028 208.453 98.1462 248.074C95.4174 255.119 87.0246 256.954 73.4948 254.782C59.9348 252.601 52.5832 248.214 52.3945 240.961C55.5644 201.483 58.6274 174.153 61.6075 158.623C64.0168 146.081 69.7983 128.294 76.1764 114.432C84.2392 96.9084 92.2138 87.0077 100.19 88.2919C108.169 89.5736 112.402 101.607 114.477 121.45C116.016 136.145 116.075 154.652 114.936 167.12ZM112.263 166.859C114.207 145.54 113.265 93.0829 99.7795 90.9157C86.2965 88.7516 68.684 136.032 64.2448 159.143C61.2876 174.547 58.2317 201.807 55.0773 240.915C55.2216 246.411 61.4986 250.16 73.906 252.155C86.3152 254.148 93.5247 252.569 95.5402 247.415C105.391 207.924 110.966 181.071 112.263 166.86L112.263 166.859Z" fill="#020303"/>
<path fill-rule="evenodd" clip-rule="evenodd" d="M117.053 96.1887C138.457 55.6851 183.33 26.5794 228.022 41.16C272.713 55.7418 288.808 106.239 282.169 150.062C275.531 193.887 260.833 246.3 244.848 265.389C228.864 284.479 180.951 275.574 153.543 266.633C126.141 257.691 79.4523 236.849 79.7297 211.516C80.0102 186.178 95.6453 136.691 117.053 96.1887Z" fill="#E8A53A"/>
<path fill-rule="evenodd" clip-rule="evenodd" d="M114.684 94.9399C125.767 73.9671 142.809 56.32 162.515 45.6824C183.713 34.2384 206.788 31.4426 228.837 38.6376C250.778 45.7967 267.134 61.6841 276.791 83.5958C285.555 103.484 288.299 127.455 284.813 150.477C277.364 199.659 262.061 249.002 246.908 267.096C238.902 276.658 223.668 280.291 203.353 279.175C187.423 278.299 168.9 274.432 152.73 269.155C135.817 263.638 118.349 255.979 104.837 247.459C87.0625 236.254 76.9183 224.219 77.0561 211.464C77.3453 185.215 93.4375 135.14 114.684 94.9399ZM117.053 96.1895C95.6485 136.691 80.0124 186.178 79.7306 211.514C79.4531 236.848 126.141 257.69 153.546 266.632C180.952 275.573 228.865 284.477 244.846 265.388C260.831 246.298 275.531 193.887 282.167 150.062C288.809 106.238 272.711 55.7458 228.019 41.164C183.33 26.5822 138.459 55.6866 117.053 96.1895Z" fill="#020303"/>
<path fill-rule="evenodd" clip-rule="evenodd" d="M117.806 96.4179C139.731 54.2417 183.546 27.37 227.872 41.834C258.383 51.7893 275.458 78.6231 280.99 108.558C280.827 124.496 265.324 127.123 260.145 116.53C249.808 95.3809 210.734 89.6496 193.583 84.0539C184.098 80.9584 167.826 102.726 144.773 149.355C135.933 142.761 128.601 140.368 122.779 142.178C99.4962 149.413 94.889 187.729 80.7871 210.819C81.0627 185.687 95.8779 138.597 117.805 96.419" fill="#FACA43"/>
<path fill-rule="evenodd" clip-rule="evenodd" d="M220.013 59.3914C255.32 70.913 274.756 108.628 263.432 143.63C252.104 178.634 214.303 197.669 178.997 186.149C143.691 174.628 124.254 136.914 135.581 101.912C146.907 66.9103 184.708 47.8713 220.014 59.3916" fill="#717171"/>
<path fill-rule="evenodd" clip-rule="evenodd" d="M179.408 184.885C214.011 196.179 251.061 177.522 262.162 143.215C273.263 108.909 254.212 71.9446 219.607 60.652C185.005 49.3613 147.955 68.0214 136.854 102.326C125.752 136.634 144.804 173.595 179.408 184.885ZM178.59 187.411C142.583 175.662 122.757 137.197 134.309 101.496C145.861 65.7961 184.417 46.3805 220.423 58.1309C256.433 69.8804 276.258 108.346 264.705 144.046C253.155 179.746 214.599 199.162 178.588 187.41L178.59 187.411Z" fill="#020303"/>
<mask id="mask0" mask-type="alpha" maskUnits="userSpaceOnUse" x="143" y="67" width="112" height="111">
<path d="M215.059 70.7856C244.65 80.8399 261.469 112.115 252.628 140.639C243.786 169.167 212.633 184.142 183.042 174.087C153.454 164.034 136.635 132.759 145.476 104.231C154.316 75.7084 185.47 60.7335 215.059 70.7868" fill="white"/>
</mask>
<g mask="url(#mask0)">
<path d="M215.385 70.489C244.833 80.3467 261.39 111.595 252.37 140.282C243.348 168.974 212.165 184.241 182.717 174.384C153.273 164.528 136.715 133.278 145.736 104.587C154.757 75.9005 185.94 60.6335 215.385 70.4903" fill="#00A7C9"/>
<path fill-rule="evenodd" clip-rule="evenodd" d="M159.955 229.563C156.733 228.975 153.594 227.489 150.701 225.503C150.043 225.053 149.404 224.578 148.784 224.079C148.538 223.882 148.298 223.678 148.066 223.468C147.899 223.313 147.778 223.118 147.717 222.904C147.208 221.097 146.753 219.277 146.353 217.447C143.705 217.909 140.951 217.745 138.319 216.97C136.115 216.322 134.028 215.295 132.157 213.941C131.653 213.578 131.165 213.192 130.697 212.783C130.51 212.619 130.328 212.449 130.153 212.273C130.033 212.149 129.942 212.004 129.883 211.846C128.628 208.478 127.682 204.95 127.014 201.297C125.797 194.631 125.552 187.858 126.01 181.325C126.154 179.233 126.38 177.153 126.687 175.085C126.807 174.298 126.944 173.515 127.098 172.737C127.123 172.618 127.167 172.507 127.23 172.404C134.903 159.913 141.95 148.703 148.212 138.933C150.405 135.517 151.649 134.761 153.313 132.213L154.83 129.895C154.982 129.668 155.111 129.474 155.219 129.309C155.286 129.209 155.329 129.142 155.351 129.107C155.376 129.071 155.404 129.036 155.434 129.004C150.711 122.58 149.54 114.738 150.463 107.077C151.161 101.268 152.343 95.6325 156.859 91.2678C156.996 90.6724 157.152 90.0137 157.328 89.3002C158.452 84.7424 159.845 80.0518 161.483 75.7701C164.115 68.882 166.979 64.0729 170.21 62.0386C170.205 61.8713 170.239 61.7069 170.311 61.5588C170.383 61.4107 170.491 61.2831 170.626 61.1862C170.866 61.0146 171.166 60.9386 171.47 60.9728C171.774 61.0069 172.059 61.1487 172.273 61.3713C173.318 61.4022 174.419 61.9642 175.535 62.9348C176.793 64.0291 178.13 65.6816 179.542 67.812C180.271 68.9111 181.012 70.1242 181.756 71.4292C183.24 74.0339 184.604 76.697 185.847 79.411L185.933 79.5963C186.024 79.806 186.051 80.026 186.017 80.2323C192.022 80.1403 198.87 80.7144 205.814 81.8362C208.184 82.2237 210.534 82.7632 212.847 83.451L212.771 83.3892L212.533 82.9357L212.494 82.6393L212.504 82.4859L212.529 82.3662L212.572 82.2345C212.681 82.0285 212.681 82.0285 212.742 81.9542C212.926 81.7796 212.926 81.7796 212.943 81.7714C212.976 81.7473 213.021 81.7142 213.095 81.6693L213.721 81.2729C217.366 78.9994 221.08 76.8288 224.858 74.7634C233.362 70.1406 238.96 67.8716 241.492 68.8703C241.701 68.9264 241.895 69.0336 242.055 69.1816C243.377 70.1373 243.913 72.3661 244.065 75.8863C244.191 78.7838 244.024 82.5332 243.62 86.9294C243.301 90.4262 242.849 94.1307 242.323 97.8117C242.141 99.0995 241.96 100.293 241.794 101.362L241.634 102.354C241.621 102.455 241.605 102.542 241.594 102.617C241.477 103.32 240.872 103.709 240.235 103.575C240.129 103.553 240.027 103.517 239.93 103.467C241.283 106.191 242.211 109.083 242.681 112.042C243.174 115.045 242.425 119.557 240.75 125.225C239.773 128.536 238.542 132.017 237.205 135.424C236.796 136.464 236.407 137.419 236.052 138.271C235.927 138.569 235.817 138.832 235.661 139.195L235.129 143.555C235.396 143.349 235.657 143.143 235.916 142.932C236.113 142.772 236.649 143.597 236.846 143.469C238.898 142.125 240.492 141.404 241.504 140.136C242.862 138.433 246.159 133.936 247.399 131.358C249.359 127.291 250.509 122.442 251.603 118.539C251.674 118.288 251.743 118.035 251.808 117.781C251.853 117.604 251.942 117.442 252.067 117.309C252.192 117.177 252.349 117.078 252.527 117.02C258.028 115.221 260.79 115.728 264.774 117.399C267.929 118.721 270.418 120.945 272.313 123.717C273.045 124.79 273.638 125.871 274.106 126.909C274.39 127.546 274.573 128.031 274.66 128.322C274.682 128.388 274.695 128.454 274.703 128.521C275.49 134.68 274.372 140.691 271.721 146.576C269.722 151.013 267.073 154.991 263.651 159.171C261.89 161.328 257.935 164.715 252.324 169.035C251.712 169.506 251.085 169.985 250.439 170.47C247.492 172.696 244.514 174.885 241.505 177.036C240.446 177.79 239.469 178.486 238.592 179.103C238.345 179.278 238.118 179.437 237.916 179.575L237.871 180.799C237.485 190.357 237.064 199.913 236.608 209.464C236.6 209.618 236.559 209.77 236.431 210.021L236.258 210.344C235.253 212.2 234.189 214.024 233.069 215.812C230.35 220.175 227.31 224.43 224.016 228.255C219.775 233.178 215.425 237.025 211.011 239.475C210.898 239.539 210.772 239.582 210.642 239.602C210.404 239.637 210.164 239.664 209.924 239.682C209.386 239.724 208.782 239.744 208.119 239.726C205.878 239.682 203.645 239.241 201.528 238.423C198.797 237.37 196.356 235.659 194.436 233.455C191.768 233.27 188.393 232.578 184.458 231.474C180.543 230.378 176.487 228.998 172.587 227.532C172.124 227.359 171.663 227.185 171.203 227.007L171.044 226.946C167.763 229.536 163.988 230.302 159.956 229.564L159.955 229.563Z" fill="#9BD8E5"/>
<path fill-rule="evenodd" clip-rule="evenodd" d="M179.805 153.759L181.69 154.399L182.255 152.575L180.368 151.935L179.805 153.759Z" fill="#020303"/>
<path fill-rule="evenodd" clip-rule="evenodd" d="M177.564 154.751L182.844 156.539L184.421 151.461L179.141 149.674L177.564 154.751ZM175.234 155.893L184.119 158.902L186.774 150.354L177.89 147.345L175.234 155.893ZM190.504 157.323L192.378 157.958L192.938 156.154L191.065 155.521L190.504 157.323Z" fill="#020303"/>
<path fill-rule="evenodd" clip-rule="evenodd" d="M188.171 158.433L193.497 160.242L195.091 155.103L189.765 153.293L188.171 158.433ZM185.818 159.588L194.783 162.634L197.465 153.982L188.5 150.937L185.818 159.588ZM176.338 164.128L178.228 164.77L178.793 162.944L176.903 162.301L176.338 164.128ZM190.091 170.723L191.981 171.365L192.546 169.541L190.656 168.898L190.091 170.723ZM183.131 168.36L185.02 169.001L185.585 167.176L183.696 166.533L183.131 168.36ZM186.573 169.71L188.463 170.353L190.09 165.103L188.2 164.462L186.573 169.71ZM184.707 163.274L186.597 163.916L187.162 162.093L185.271 161.45L184.707 163.274Z" fill="#020303"/>
<path fill-rule="evenodd" clip-rule="evenodd" d="M175.221 165.286L180.595 167.107L182.201 161.938L176.827 160.117L175.221 165.286ZM172.85 166.447L181.893 169.511L184.595 160.812L175.552 157.748L172.85 166.447ZM192.495 167.453L194.253 168.049L195.375 164.436L193.615 163.839L192.495 167.453ZM183.823 170.075L192.748 173.1L193.318 171.264L184.393 168.24L183.823 170.075ZM169.356 96.4199C163.482 95.9066 159.793 97.8377 158.775 102.209C158.697 102.55 158.761 102.913 158.955 103.22C159.149 103.527 159.455 103.752 159.806 103.846C159.981 103.892 160.161 103.905 160.336 103.884C160.512 103.862 160.681 103.807 160.831 103.72C160.982 103.634 161.111 103.519 161.215 103.381C161.317 103.244 161.389 103.086 161.428 102.918C162.125 99.9363 164.567 98.657 169.246 99.0659C174.245 99.5037 177.896 100.741 180.226 102.723C180.4 102.87 180.604 102.976 180.825 103.029C181.045 103.082 181.273 103.082 181.486 103.028C181.702 102.974 181.897 102.869 182.054 102.721C182.213 102.573 182.328 102.387 182.393 102.18C183.153 99.7344 183.485 97.5302 183.378 95.5641C183.37 95.3882 183.327 95.2139 183.251 95.0513C183.175 94.8885 183.067 94.7407 182.934 94.6162C182.801 94.4917 182.646 94.3932 182.476 94.326C182.307 94.2589 182.127 94.2247 181.948 94.2253C181.768 94.226 181.593 94.2615 181.43 94.3297C181.269 94.398 181.123 94.4977 181.004 94.6232C180.884 94.7485 180.791 94.897 180.733 95.0602C180.674 95.2233 180.65 95.3979 180.661 95.5737C180.726 96.7546 180.593 98.0735 180.265 99.5309C177.528 97.8421 173.889 96.8171 169.356 96.4199ZM158.662 92.4611C158.676 92.389 158.691 92.3173 158.709 92.2458L158.849 91.6176C159.022 90.8433 159.205 90.0714 159.396 89.3016C160.538 84.6757 161.956 79.9163 163.61 75.5888C166.296 68.5729 169.227 63.8019 172.118 62.2997C172.981 61.8508 175.134 63.719 177.755 67.6659C178.475 68.752 179.211 69.9541 179.954 71.2544C181.016 73.1224 182.018 75.0205 182.958 76.9454C183.289 77.6129 183.582 78.2327 183.838 78.7827L184.074 79.2909L184.152 79.4668C184.304 79.7865 184.576 80.0414 184.91 80.1769C185.242 80.3123 185.609 80.3177 185.933 80.1919C186.258 80.0662 186.512 79.8192 186.644 79.5035C186.774 79.188 186.773 78.8288 186.637 78.5025L186.551 78.3098L186.306 77.7807C186.013 77.1488 185.71 76.5203 185.399 75.8952C184.435 73.9163 183.406 71.966 182.314 70.0474C181.591 68.7744 180.825 67.5244 180.015 66.2997C178.546 64.0852 177.155 62.3659 175.84 61.2247C174.079 59.6961 172.334 59.1175 170.75 59.9376C167.122 61.828 163.953 66.983 161.057 74.5541C159.36 78.9877 157.915 83.8424 156.75 88.5602C156.501 89.5617 156.267 90.567 156.045 91.5759L155.996 91.8107C155.961 91.9801 155.959 92.1563 155.994 92.3291C156.028 92.502 156.097 92.6681 156.196 92.8181C156.294 92.968 156.422 93.099 156.57 93.2033C156.718 93.3077 156.885 93.3834 157.06 93.4263C157.234 93.4691 157.415 93.4781 157.591 93.4528C157.766 93.4276 157.933 93.3686 158.082 93.279C158.23 93.1896 158.358 93.0715 158.459 92.9313C158.558 92.7913 158.627 92.632 158.663 92.4627L158.662 92.4611Z" fill="#020303"/>
<path fill-rule="evenodd" clip-rule="evenodd" d="M178.509 74.7073L178.48 74.5417C178.459 74.4087 178.432 74.2602 178.402 74.0884C178.306 73.5497 178.203 73.0117 178.094 72.4745C177.763 70.806 177.375 69.1463 176.93 67.4982C176.491 65.8908 176.024 64.4525 175.529 63.2252C174.96 61.8209 174.366 60.7119 173.704 59.9207C173.594 59.7796 173.457 59.6602 173.299 59.5697C173.143 59.4791 172.971 59.4193 172.795 59.3936C172.617 59.3679 172.438 59.3769 172.267 59.4201C172.098 59.4633 171.939 59.5397 171.803 59.6449C171.666 59.7502 171.555 59.882 171.474 60.0328C171.393 60.1834 171.345 60.35 171.331 60.5224C171.319 60.6948 171.342 60.8697 171.399 61.0366C171.456 61.2035 171.546 61.3592 171.665 61.4944C172.107 62.0241 172.58 62.9072 173.053 64.071C173.504 65.1919 173.939 66.5347 174.355 68.0497C174.783 69.6412 175.158 71.2437 175.478 72.8543C175.593 73.421 175.689 73.9434 175.777 74.4136C175.827 74.6901 175.86 74.8876 175.875 74.9899C175.993 75.7043 176.677 76.218 177.403 76.1394C177.577 76.1213 177.742 76.0698 177.891 75.9878C178.041 75.9061 178.17 75.7954 178.273 75.6622C178.376 75.5292 178.449 75.3762 178.49 75.2123C178.53 75.0484 178.537 74.8768 178.509 74.7073ZM216.286 81.9323C216.251 81.9517 216.251 81.9517 216.093 82.0109C216.014 82.0362 216.014 82.0362 215.789 82.0724L215.629 82.0772L215.388 82.0463L215.023 81.9147L214.428 81.317L214.285 80.6163L214.339 80.3402C214.495 80.0089 214.495 80.0089 214.568 79.9251C214.775 79.7228 214.775 79.7228 214.794 79.7143L214.953 79.6079L215.582 79.2076C219.239 76.9044 222.968 74.7046 226.762 72.6109C235.644 67.7329 241.328 65.4374 243.826 66.723C246.529 68.1247 246.779 74.2621 245.771 84.9496C245.418 88.6192 244.974 92.2758 244.44 95.9164C244.255 97.2151 244.074 98.4164 243.9 99.493L243.742 100.495L243.68 100.852C243.651 101.019 243.59 101.177 243.497 101.318C243.404 101.458 243.283 101.578 243.142 101.671C242.999 101.764 242.838 101.828 242.667 101.858C242.497 101.889 242.32 101.886 242.148 101.851C241.974 101.815 241.809 101.746 241.661 101.649C241.511 101.552 241.382 101.429 241.28 101.285C241.178 101.142 241.105 100.982 241.065 100.814C241.026 100.646 241.019 100.473 241.047 100.306L241.104 99.9613C241.152 99.6768 241.206 99.3459 241.265 98.9761C241.435 97.9089 241.615 96.7168 241.801 95.4334C242.329 91.7604 242.788 88.0647 243.116 84.5875C243.522 80.2543 243.696 76.5759 243.583 73.787C243.471 70.942 243.006 69.1803 242.668 69.0048C242.205 68.7663 240.29 69.1672 237.57 70.2627C235 71.3029 231.796 72.8944 228.159 74.8882C224.409 76.9562 220.724 79.1297 217.11 81.4063C216.855 81.5663 216.646 81.7039 216.517 81.7836C216.478 81.8153 216.435 81.8444 216.39 81.8706C216.36 81.8917 216.36 81.8917 216.287 81.9311L216.286 81.9323ZM216.448 81.8325C216.456 81.8298 216.456 81.8298 216.664 81.6317C216.733 81.5486 216.733 81.5486 216.892 81.2165L216.945 80.9387L216.801 80.2418L216.206 79.6429L215.842 79.51L215.6 79.4804L215.441 79.4827L215.382 79.4901C215.215 79.5188 215.215 79.5188 215.137 79.5416C214.982 79.6043 214.982 79.6043 214.949 79.6227C214.896 79.6517 214.896 79.6517 214.91 79.6425C215.203 79.4654 215.563 79.4129 215.91 79.4965C216.257 79.58 216.561 79.7927 216.759 80.0881C217.138 80.6611 217.024 81.3858 216.516 81.7832C216.516 81.7856 216.516 81.7868 216.512 81.7884L216.448 81.8325Z" fill="#020303"/>
<path fill-rule="evenodd" clip-rule="evenodd" d="M231.728 84.3236C231.752 84.2942 231.796 84.2307 231.857 84.1394L232.233 83.615C232.638 83.0513 233.094 82.4207 233.589 81.7454C234.977 79.844 236.402 77.9698 237.866 76.1242C238.731 75.0304 239.557 74.0275 240.325 73.1345C242.115 71.0558 243.545 69.6344 244.427 69.0839C244.723 68.8993 244.925 68.6037 244.991 68.2622C245.057 67.9207 244.979 67.5611 244.777 67.2628C244.574 66.9643 244.263 66.7515 243.911 66.6711C243.56 66.5905 243.195 66.649 242.901 66.8336C241.733 67.5643 240.173 69.1115 238.226 71.3762C237.435 72.2966 236.591 73.322 235.704 74.4395C234.222 76.3099 232.777 78.2093 231.372 80.1365C230.87 80.8208 230.407 81.457 229.998 82.0309L229.616 82.5639L229.482 82.7549C229.384 82.8948 229.317 83.0535 229.282 83.2221C229.248 83.3908 229.248 83.566 229.283 83.7377C229.317 83.9095 229.386 84.0744 229.485 84.2232C229.583 84.3719 229.709 84.5016 229.857 84.6046C230.005 84.7078 230.169 84.7823 230.344 84.824C230.518 84.8657 230.697 84.8739 230.87 84.848C231.221 84.7955 231.529 84.6073 231.728 84.325L231.728 84.3236ZM187.927 103.422C187.05 103.426 182.724 103.461 182.724 103.461C182.724 103.461 178.432 103.511 177.525 103.505C176.651 103.509 179.048 109.081 183.056 109.057C187.09 109.042 188.804 103.419 187.927 103.422Z" fill="#020303"/>
<path fill-rule="evenodd" clip-rule="evenodd" d="M238.143 137.813C238.506 136.945 238.901 135.971 239.315 134.911C240.677 131.434 241.931 127.887 242.926 124.514C244.641 118.72 245.409 114.107 244.912 111.024C243.346 101.234 237.542 93.62 228.705 88.082C222.181 83.9973 214.347 81.3135 207.529 80.2258C194.215 78.0925 181.249 77.9551 173.756 80.6267C159.086 85.8585 151.219 94.7616 149.889 105.735C148.783 114.813 152.445 124.71 158.747 131.539C163.892 137.112 169.827 140.901 176.464 143.26C181.52 145.056 186.492 145.907 192.425 146.307C199.218 146.774 205.926 145.933 212.389 144.092C216.163 143.014 219.621 141.664 222.696 140.18C223.663 139.715 224.614 139.22 225.548 138.695C226.048 138.413 226.397 138.204 226.582 138.083C226.874 137.897 227.072 137.601 227.134 137.261C227.194 136.922 227.115 136.566 226.91 136.271C226.706 135.977 226.395 135.768 226.046 135.691C225.694 135.616 225.335 135.677 225.043 135.864L224.821 135.995C224.628 136.115 224.392 136.251 224.125 136.404C223.238 136.901 222.334 137.37 221.414 137.811C218.245 139.339 214.938 140.596 211.527 141.567C205.342 143.328 198.942 144.131 192.48 143.688C186.78 143.305 182.046 142.494 177.268 140.796C171.057 138.586 165.519 135.051 160.698 129.83C154.918 123.568 151.548 114.445 152.551 106.168C153.763 96.1782 160.97 88.0251 174.781 83.1004C181.742 80.6194 194.327 80.7515 207.224 82.8163C213.688 83.8492 221.168 86.4116 227.337 90.2764C235.53 95.409 240.831 102.361 242.261 111.31C242.676 113.899 241.957 118.227 240.347 123.672C239.374 126.973 238.142 130.456 236.804 133.868C236.396 134.91 236.009 135.87 235.652 136.722C235.527 137.018 235.415 137.281 235.323 137.507C235.263 137.639 235.224 137.731 235.204 137.779C235.157 137.887 235.125 138.004 235.109 138.125L234.269 144.975C234.226 145.318 234.327 145.671 234.547 145.956C234.767 146.24 235.089 146.431 235.442 146.489C235.796 146.546 236.151 146.466 236.431 146.264C236.711 146.061 236.891 145.754 236.934 145.41L237.752 138.741C237.904 138.388 238.017 138.118 238.143 137.813Z" fill="#020303"/>
<path fill-rule="evenodd" clip-rule="evenodd" d="M169.775 115.863C167.021 114.217 165.92 112.395 166.808 110.169C166.871 110.012 166.901 109.843 166.895 109.671C166.891 109.499 166.851 109.328 166.78 109.169C166.636 108.845 166.368 108.586 166.037 108.447C165.873 108.378 165.698 108.34 165.523 108.337C165.347 108.333 165.175 108.364 165.015 108.426C164.691 108.552 164.438 108.802 164.312 109.119C162.851 112.777 164.69 115.819 168.458 118.077C170.151 119.086 171.997 119.818 173.648 120.301C173.82 120.351 173.944 120.383 174.018 120.405C174.228 120.457 174.445 120.461 174.653 120.415C174.86 120.368 175.049 120.274 175.207 120.14L175.357 120.012C175.484 119.905 175.632 119.78 175.8 119.643C176.286 119.242 176.834 118.8 177.434 118.325C179.153 116.969 180.927 115.68 182.754 114.461C183.199 114.163 183.641 113.88 184.071 113.61C184.216 113.519 184.34 113.401 184.435 113.262C184.531 113.122 184.597 112.965 184.628 112.797C184.66 112.63 184.657 112.457 184.621 112.288C184.583 112.118 184.513 111.956 184.414 111.81C184.212 111.516 183.904 111.306 183.556 111.227C183.207 111.147 182.847 111.205 182.555 111.387C182.099 111.673 181.643 111.967 181.18 112.274C179.297 113.531 177.468 114.859 175.695 116.257C175.078 116.745 174.513 117.2 174.015 117.613C173.984 117.635 173.957 117.662 173.925 117.685C172.584 117.265 171.098 116.655 169.774 115.863" fill="#020303"/>
<path fill-rule="evenodd" clip-rule="evenodd" d="M204.89 108.149C204.853 112.79 201.201 115.63 195.905 115.74C190.593 115.849 185.538 113.129 183.67 108.763C183.529 108.434 183.262 108.167 182.93 108.021C182.598 107.875 182.225 107.862 181.897 107.985C181.734 108.045 181.586 108.137 181.463 108.255C181.339 108.373 181.241 108.515 181.175 108.672C181.109 108.83 181.075 109.001 181.078 109.174C181.081 109.347 181.117 109.52 181.187 109.683C186.348 121.727 207.484 121.29 207.588 108.297C207.591 107.947 207.453 107.603 207.201 107.342C206.951 107.08 206.609 106.922 206.251 106.902C205.894 106.883 205.549 107.003 205.294 107.237C205.038 107.471 204.893 107.799 204.89 108.149ZM189.213 128.272C183.459 127.289 179.52 125.95 177.446 124.339C177.16 124.116 176.799 124.009 176.446 124.043C176.092 124.077 175.773 124.249 175.559 124.519C175.345 124.789 175.254 125.138 175.305 125.486C175.356 125.836 175.546 126.157 175.832 126.379C178.368 128.349 182.698 129.819 188.873 130.873C189.219 130.915 189.562 130.826 189.829 130.626C190.098 130.424 190.273 130.124 190.316 129.791C190.359 129.456 190.269 129.111 190.065 128.829C189.859 128.546 189.553 128.347 189.213 128.272Z" fill="#020303"/>
<path fill-rule="evenodd" clip-rule="evenodd" d="M172.996 120.496C173.023 125.028 177.329 127.268 182.852 126.977C187.964 126.708 192.43 124.413 192.59 121.101C192.598 120.929 192.573 120.756 192.513 120.59C192.454 120.426 192.361 120.273 192.243 120.139C192.126 120.006 191.982 119.896 191.823 119.815C191.665 119.735 191.491 119.683 191.316 119.667C191.14 119.651 190.964 119.669 190.798 119.718C190.633 119.77 190.48 119.852 190.349 119.962C190.219 120.071 190.114 120.207 190.038 120.359C189.963 120.511 189.92 120.677 189.912 120.85C189.831 122.449 186.525 124.148 182.58 124.356C178.41 124.576 175.693 123.162 175.681 120.605C175.671 120.261 175.526 119.927 175.273 119.675C175.02 119.424 174.683 119.275 174.33 119.26C173.978 119.246 173.642 119.367 173.392 119.599C173.143 119.83 173 120.152 172.996 120.496ZM191.383 87.818C191.502 87.4953 191.482 87.1335 191.328 86.8124C191.175 86.4913 190.899 86.2373 190.564 86.106C190.228 85.9747 189.859 85.9771 189.539 86.1126C189.218 86.248 188.972 86.5053 188.853 86.8282C187.405 90.7816 187.237 95.1915 188.33 100.03C188.377 100.234 188.471 100.427 188.606 100.592C188.742 100.758 188.913 100.892 189.108 100.983C189.301 101.074 189.512 101.12 189.724 101.117C189.935 101.113 190.139 101.061 190.322 100.964C195.962 97.962 201.188 96.4903 205.998 96.5234C210.677 96.5569 216.475 99.239 223.34 104.648C223.48 104.763 223.64 104.85 223.812 104.905C223.983 104.959 224.163 104.98 224.34 104.966C224.516 104.952 224.687 104.904 224.841 104.824C224.995 104.744 225.129 104.634 225.237 104.5C225.344 104.366 225.424 104.211 225.467 104.045C225.511 103.878 225.521 103.703 225.495 103.529C225.469 103.355 225.409 103.187 225.316 103.033C225.225 102.88 225.102 102.745 224.958 102.635C217.646 96.8722 211.304 93.9375 205.888 93.9C201.084 93.8662 195.99 95.1754 190.603 97.8032C190.022 94.1424 190.285 90.819 191.383 87.818ZM265.201 118.602C267.908 119.735 270.073 121.649 271.746 124.068C272.369 124.964 272.909 125.913 273.359 126.899C273.504 127.216 273.626 127.505 273.719 127.758C273.749 127.831 273.769 127.893 273.785 127.937C274.515 133.639 273.474 139.234 270.978 144.753C269.052 149.012 266.468 152.859 263.112 156.924C261.478 158.908 257.534 162.245 251.97 166.47C251.352 166.941 250.718 167.418 250.07 167.905C245.857 171.046 241.582 174.111 237.25 177.099C237.107 177.197 237.01 177.264 236.959 177.296C236.818 177.393 236.7 177.517 236.609 177.662C236.519 177.806 236.46 177.968 236.435 178.137C236.41 178.305 236.42 178.48 236.463 178.65C236.506 178.818 236.583 178.979 236.689 179.122C236.794 179.264 236.927 179.387 237.078 179.482C237.23 179.576 237.398 179.642 237.571 179.676C237.746 179.708 237.924 179.707 238.094 179.672C238.265 179.638 238.425 179.57 238.567 179.473L238.863 179.27L239.694 178.695C240.587 178.074 241.585 177.377 242.66 176.617C246.379 173.996 250.054 171.313 253.68 168.572C259.401 164.225 263.431 160.815 265.23 158.632C268.711 154.415 271.41 150.397 273.439 145.911C276.134 139.95 277.258 133.853 276.43 127.598C276.42 127.52 276.403 127.445 276.377 127.369C276.213 126.88 276.021 126.398 275.8 125.927C275.281 124.792 274.659 123.7 273.944 122.666C271.98 119.833 269.407 117.557 266.15 116.195C262.042 114.476 257.172 114.372 251.525 116.177C251.322 116.242 251.14 116.355 250.997 116.507C250.851 116.658 250.749 116.844 250.697 117.048L250.489 117.811C249.391 121.741 247.818 126.234 245.839 130.326C244.585 132.914 243.262 135.114 241.89 136.821C238.735 140.741 232.92 145.399 225.421 148.552C225.262 148.619 225.12 148.716 225.001 148.838C224.883 148.961 224.793 149.105 224.734 149.265C224.674 149.425 224.649 149.596 224.658 149.768C224.668 149.94 224.712 150.111 224.789 150.269C224.942 150.591 225.217 150.845 225.553 150.976C225.888 151.107 226.256 151.106 226.576 150.97C234.492 147.645 240.625 142.728 244.028 138.505C245.53 136.637 246.944 134.284 248.273 131.54C250.328 127.295 251.945 122.675 253.079 118.615C257.886 117.068 261.877 117.213 265.201 118.602Z" fill="#020303"/>
<path fill-rule="evenodd" clip-rule="evenodd" d="M258.177 143.876C261.519 145.012 265.29 142.815 266.52 138.846C267.75 134.878 265.933 130.779 262.589 129.643C259.243 128.507 255.472 130.707 254.242 134.676C253.012 138.644 254.832 142.738 258.177 143.875L258.177 143.876ZM257.405 146.365C252.538 144.713 250.028 139.061 251.66 133.798C253.293 128.532 258.494 125.501 263.361 127.154C268.226 128.807 270.737 134.457 269.104 139.723C267.473 144.986 262.271 148.018 257.405 146.365ZM127.245 183.323C127.391 181.262 127.618 179.212 127.928 177.177C128.024 176.541 128.12 175.98 128.211 175.499L128.283 175.13C135.186 163.782 142.194 152.501 149.308 141.286C151.518 137.81 153.47 134.77 155.143 132.182C155.729 131.276 156.023 130.803 156.452 130.146L156.842 129.547L156.972 129.349C157.066 129.207 157.13 129.045 157.158 128.876C157.187 128.706 157.182 128.532 157.142 128.361C157.101 128.19 157.029 128.027 156.925 127.882C156.823 127.737 156.692 127.61 156.542 127.512C156.392 127.414 156.226 127.344 156.051 127.308C155.876 127.271 155.697 127.269 155.525 127.3C155.353 127.33 155.19 127.395 155.046 127.489C154.902 127.583 154.781 127.704 154.687 127.847L154.552 128.047L154.162 128.647C153.726 129.312 153.435 129.785 152.848 130.695C151.169 133.288 149.214 136.333 147 139.814C139.837 151.104 132.783 162.46 125.837 173.885C125.766 174.001 125.713 174.133 125.683 174.266L125.558 174.904C125.464 175.411 125.365 175.997 125.263 176.662C124.973 178.554 124.727 180.683 124.555 183.009C124.067 189.653 124.286 196.535 125.48 203.311C126.134 207.027 127.07 210.612 128.311 214.035C128.378 214.215 128.484 214.381 128.622 214.521C128.998 214.919 129.68 215.529 130.641 216.226C135.045 219.419 140.415 220.986 146.389 219.437C146.534 219.399 146.678 219.362 146.819 219.32C146.994 219.278 147.157 219.203 147.297 219.097C147.438 218.989 147.554 218.856 147.639 218.701C147.722 218.546 147.773 218.376 147.787 218.199C147.8 218.022 147.777 217.843 147.719 217.671C147.66 217.5 147.569 217.34 147.446 217.201C147.325 217.063 147.177 216.948 147.013 216.865C146.848 216.783 146.669 216.733 146.487 216.718C146.306 216.704 146.124 216.727 145.955 216.783C145.829 216.818 145.707 216.852 145.583 216.883C140.507 218.199 135.955 216.873 132.181 214.131C131.748 213.821 131.332 213.488 130.935 213.132C130.861 213.068 130.797 213.009 130.742 212.958C129.59 209.698 128.717 206.363 128.132 202.986C126.981 196.443 126.77 189.767 127.245 183.323ZM234.644 211.159C234.459 211.506 234.24 211.908 233.985 212.359C233.18 213.797 232.342 215.216 231.473 216.615C228.762 220.982 225.733 225.237 222.465 229.052C218.388 233.813 214.229 237.527 210.093 239.888L209.78 239.919C209.318 239.956 208.792 239.972 208.213 239.959C203.619 239.858 199.192 238.135 195.818 233.95C195.736 233.848 195.656 233.745 195.578 233.638C195.469 233.497 195.333 233.376 195.179 233.285C195.025 233.192 194.855 233.129 194.68 233.1C194.504 233.071 194.327 233.075 194.156 233.114C193.985 233.151 193.826 233.223 193.686 233.324C193.547 233.423 193.431 233.551 193.343 233.698C193.256 233.844 193.201 234.007 193.179 234.178C193.158 234.35 193.17 234.525 193.217 234.693C193.265 234.862 193.345 235.022 193.454 235.164C193.547 235.286 193.639 235.403 193.736 235.524C197.702 240.443 202.927 242.478 208.279 242.598C209.45 242.624 210.345 242.552 210.875 242.465C211.025 242.441 211.169 242.391 211.299 242.317C215.802 239.799 220.241 235.851 224.563 230.806C227.92 226.889 231.022 222.532 233.794 218.065C234.764 216.503 235.622 215.038 236.365 213.711C236.677 213.149 236.984 212.584 237.285 212.016C237.366 211.857 237.411 211.684 237.419 211.505C237.929 201.157 238.396 190.804 238.818 180.448C238.832 180.166 238.832 180.166 238.837 179.985C238.875 179.1 238.292 178.463 237.547 178.4C237.371 178.385 237.195 178.404 237.029 178.456C236.864 178.508 236.712 178.593 236.583 178.705C236.454 178.815 236.349 178.952 236.275 179.106C236.201 179.259 236.16 179.427 236.154 179.599L236.127 180.217C236.015 183.027 235.897 185.837 235.773 188.645C235.45 196.091 235.106 203.535 234.741 210.976L234.644 211.158L234.644 211.159ZM195.747 155.924C195.808 155.927 195.925 155.936 196.09 155.947C197.528 156.032 198.967 156.083 200.405 156.102C203.913 156.153 207.471 156.033 210.875 155.689C214.444 155.324 217.64 154.731 220.347 153.864C220.513 153.811 220.665 153.727 220.795 153.615C220.925 153.502 221.028 153.366 221.102 153.211C221.175 153.057 221.216 152.889 221.222 152.715C221.227 152.543 221.198 152.368 221.136 152.204C221.074 152.038 220.98 151.885 220.86 151.752C220.739 151.619 220.594 151.51 220.432 151.43C220.271 151.351 220.096 151.304 219.92 151.291C219.742 151.277 219.566 151.297 219.401 151.351C216.891 152.154 213.867 152.715 210.472 153.062C207.183 153.394 203.725 153.51 200.314 153.462C199.125 153.445 198.019 153.41 197.037 153.362C196.695 153.343 196.394 153.328 196.13 153.312C195.978 153.303 195.874 153.293 195.822 153.292C195.646 153.279 195.47 153.3 195.305 153.354C195.14 153.408 194.988 153.494 194.861 153.607C194.732 153.718 194.628 153.857 194.557 154.012C194.484 154.166 194.444 154.334 194.44 154.507C194.434 154.68 194.464 154.854 194.527 155.018C194.589 155.183 194.684 155.335 194.806 155.467C194.927 155.599 195.072 155.706 195.233 155.785C195.395 155.864 195.57 155.911 195.746 155.923L195.747 155.924Z" fill="#020303"/>
<path fill-rule="evenodd" clip-rule="evenodd" d="M155.969 137.174C157.201 138.355 158.497 139.467 159.853 140.507C163.442 143.266 167.46 145.598 171.636 147.531C173.171 148.241 174.643 148.857 176.021 149.383C176.967 149.745 177.752 150.021 178.343 150.21L178.52 150.265C178.694 150.325 178.877 150.349 179.057 150.338C179.237 150.327 179.411 150.28 179.57 150.201C179.727 150.122 179.866 150.011 179.977 149.877C180.087 149.742 180.17 149.585 180.215 149.415C180.262 149.247 180.273 149.068 180.248 148.892C180.222 148.715 180.16 148.544 180.066 148.388C179.973 148.232 179.849 148.093 179.703 147.983C179.556 147.871 179.389 147.789 179.213 147.742C179.193 147.735 179.147 147.722 179.076 147.698C178.53 147.52 177.793 147.263 176.897 146.92C175.577 146.417 174.166 145.825 172.696 145.145C168.697 143.295 164.864 141.069 161.463 138.454C160.161 137.456 158.944 136.415 157.818 135.332C157.555 135.093 157.212 134.96 156.862 134.96C156.511 134.96 156.181 135.093 155.94 135.332C155.7 135.572 155.569 135.897 155.574 136.24C155.579 136.585 155.72 136.918 155.967 137.174L155.969 137.174ZM184.32 114.59C182.704 115.164 181.473 115.963 180.663 117.007C179.844 118.062 179.387 119.54 179.245 121.427C179.231 121.6 179.254 121.775 179.309 121.943C179.364 122.111 179.453 122.267 179.568 122.405C179.685 122.542 179.827 122.656 179.985 122.742C180.144 122.827 180.317 122.882 180.495 122.902C180.673 122.924 180.85 122.91 181.018 122.865C181.186 122.819 181.342 122.74 181.477 122.633C181.611 122.526 181.722 122.394 181.802 122.242C181.882 122.091 181.93 121.924 181.944 121.752C182.053 120.313 182.37 119.291 182.849 118.675C183.336 118.045 184.159 117.508 185.351 117.089C185.683 116.97 185.947 116.725 186.085 116.407C186.224 116.089 186.224 115.724 186.088 115.393C185.951 115.062 185.687 114.791 185.356 114.641C185.025 114.49 184.651 114.472 184.32 114.59Z" fill="#020303"/>
</g>
<path fill-rule="evenodd" clip-rule="evenodd" d="M98.5131 93.3827C102.63 95.1296 101.574 106.883 96.1574 119.638C90.7404 132.395 83.0143 141.318 78.9015 139.572C74.7848 137.825 75.8407 126.069 81.2591 113.313C86.674 100.562 94.4006 91.6337 98.5131 93.3827Z" fill="#F37D70"/>
<path fill-rule="evenodd" clip-rule="evenodd" d="M310.125 273.417L267.314 251.975L246.654 290.07L285.097 312.329L310.125 273.417Z" fill="white"/>
<path fill-rule="evenodd" clip-rule="evenodd" d="M269.6 246.515L309.615 272.811C310.196 273.192 310.606 273.783 310.759 274.456C310.911 275.13 310.796 275.835 310.435 276.423L287.705 313.338C287.343 313.925 286.763 314.348 286.089 314.516C285.417 314.684 284.702 314.583 284.098 314.236L245.559 292.128C244.962 291.785 244.518 291.227 244.321 290.569C244.126 289.913 244.191 289.208 244.506 288.601L265.755 247.5C265.926 247.17 266.167 246.879 266.459 246.648C266.751 246.417 267.09 246.249 267.452 246.156C267.813 246.063 268.193 246.047 268.563 246.109C268.932 246.172 269.285 246.309 269.6 246.515ZM268.136 248.728L246.882 289.828L285.423 311.94L308.151 275.024L268.136 248.728Z" fill="#020303"/>
<path fill-rule="evenodd" clip-rule="evenodd" d="M274.223 238.82L305.172 233.961L286.022 280.437L246.641 289.554L274.223 238.82Z" fill="#CAC8C8"/>
<path fill-rule="evenodd" clip-rule="evenodd" d="M273.783 236.195L304.732 231.337C306.797 231.013 308.433 233.068 307.643 234.985L288.498 281.46C288.337 281.849 288.085 282.193 287.764 282.466C287.442 282.738 287.059 282.929 286.648 283.025L247.263 292.139C245.018 292.661 243.188 290.289 244.284 288.276L271.862 237.544C272.057 237.188 272.33 236.881 272.664 236.647C272.996 236.413 273.38 236.259 273.783 236.195ZM274.22 238.821L246.639 289.551L286.021 280.437L305.169 233.962L274.22 238.821Z" fill="#020303"/>
<path fill-rule="evenodd" clip-rule="evenodd" d="M24.1992 180.441L71.3886 188.366L65.8017 231.384L21.6719 226.698L24.1992 180.441Z" fill="white"/>
<path fill-rule="evenodd" clip-rule="evenodd" d="M24.6259 177.822L71.8143 185.748C72.4993 185.862 73.1144 186.236 73.5296 186.792C73.9448 187.348 74.1276 188.041 74.0394 188.724L68.4511 231.743C68.3618 232.428 68.0073 233.049 67.4634 233.474C66.9193 233.901 66.2283 234.098 65.5372 234.024L21.4093 229.339C20.7246 229.267 20.0922 228.936 19.6441 228.413C19.196 227.889 18.9667 227.217 19.0039 226.534L21.5311 180.279C21.5518 179.906 21.6508 179.544 21.8219 179.213C21.9928 178.884 22.2321 178.593 22.5239 178.362C22.8158 178.13 23.1537 177.962 23.5158 177.87C23.8779 177.777 24.256 177.762 24.6256 177.824L24.6259 177.822ZM24.2007 180.44L21.6734 226.696L65.8008 231.383L71.3878 188.364L24.2007 180.44Z" fill="#020303"/>
<path fill-rule="evenodd" clip-rule="evenodd" d="M74.8291 174.394L48.867 149.465L40.8184 201.127L66.9481 230.699L74.8291 174.394Z" fill="#CAC8C8"/>
<path fill-rule="evenodd" clip-rule="evenodd" d="M76.6764 172.492C77.298 173.086 77.593 173.939 77.4751 174.782L69.5965 231.079C69.283 233.328 66.4478 234.156 64.9292 232.438L38.8152 202.872C38.5551 202.579 38.3629 202.232 38.2524 201.856C38.142 201.483 38.1159 201.088 38.1762 200.702L46.2187 149.044C46.5504 146.92 49.1591 146.061 50.7248 147.566L76.6751 172.492L76.6764 172.492ZM74.8198 174.396L48.8668 149.471L40.8233 201.127L66.9398 230.694L74.8198 174.396Z" fill="#020303"/>
<path fill-rule="evenodd" clip-rule="evenodd" d="M48.6228 148.674C104.707 170.788 147.048 186.501 175.654 195.817C204.262 205.132 248.018 217.455 306.927 232.788L287.074 279.576C231.492 266.18 189.444 254.84 160.932 245.556C132.421 236.269 92.6014 220.951 41.4746 199.599L48.6228 148.674Z" fill="white"/>
<path fill-rule="evenodd" clip-rule="evenodd" d="M49.588 146.206C105.626 168.303 147.928 184.003 176.471 193.3C205.017 202.596 248.731 214.911 307.593 230.235C307.965 230.332 308.31 230.506 308.609 230.746C308.907 230.987 309.15 231.29 309.32 231.63C309.491 231.972 309.587 232.346 309.6 232.726C309.612 233.107 309.542 233.485 309.394 233.835L289.541 280.628C289.296 281.203 288.854 281.674 288.291 281.954C287.729 282.234 287.083 282.308 286.469 282.158C230.825 268.746 188.714 257.384 160.12 248.074C131.522 238.76 91.642 223.417 40.4518 202.034C39.906 201.805 39.4505 201.406 39.1566 200.895C38.8627 200.385 38.7471 199.793 38.8278 199.212L45.9763 148.279C46.0319 147.883 46.1772 147.507 46.4013 147.176C46.6254 146.845 46.9224 146.569 47.27 146.369C47.6175 146.17 48.0068 146.051 48.4082 146.023C48.8097 145.993 49.2131 146.057 49.5881 146.205L49.588 146.206ZM48.62 148.662L41.4702 199.595C92.6001 220.953 132.419 236.273 160.935 245.56C189.449 254.846 231.496 266.189 287.081 279.587L306.936 232.791C248.023 217.457 204.263 205.129 175.657 195.814C147.05 186.497 104.704 170.779 48.62 148.662Z" fill="#020303"/>
<path fill-rule="evenodd" clip-rule="evenodd" d="M263.414 256.376C263.874 256.525 264.747 256.808 265.363 256.95L266.368 253.856L264.405 253.219C264.13 254.168 263.676 255.566 263.414 256.374L263.414 256.376ZM265.309 251.641C265.656 251.781 266.271 251.921 266.683 252.055C268.133 247.77 270.359 241.564 271.704 237.692C271.045 237.507 270.064 237.189 269.565 237.054C268.408 240.989 266.52 247.455 265.309 251.64L265.309 251.641ZM261.501 251.057C261.723 250.562 261.61 250.169 261.335 249.809C261.032 249.443 260.606 249.188 260.205 248.939C259.764 250.015 259.127 251.145 258.093 251.728C256.846 252.424 255.607 252.349 254.386 251.745C253.269 251.204 252.388 250.204 252.222 248.959C252.002 247.134 252.405 245.152 253.3 243.599C253.966 242.478 254.92 241.572 256.229 241.161C257.498 240.773 259.074 241.015 260.16 242.025C261.084 242.891 261.438 244.581 261.36 245.833C261.867 245.76 262.516 245.616 262.918 245.302C263.269 245.058 263.461 244.737 263.395 244.207C263.234 242.667 262.357 241.281 261.109 240.311C260.466 239.804 259.723 239.434 258.93 239.227C258.137 239.021 257.31 238.981 256.502 239.111C254.609 239.387 253.092 240.35 251.996 241.868C250.582 243.817 249.782 246.558 250.15 248.94C250.415 250.632 251.183 251.98 252.613 252.951C254.116 253.973 256.355 254.495 258.101 253.932C259.569 253.488 260.858 252.392 261.501 251.056L261.501 251.057ZM246.323 245.08C247.211 243.643 247.578 241.769 247.336 240.202C247.171 239.138 246.605 238.093 245.748 237.398C244.818 236.649 243.34 236.195 242.136 236.28C240.883 236.35 239.759 237.027 238.986 238.022C237.977 239.27 237.509 240.992 237.428 242.54C237.364 243.947 238.058 245.423 239.081 246.349C240.113 247.251 241.556 247.721 242.926 247.479C244.415 247.253 245.562 246.316 246.323 245.08ZM248.1 246.191C247.207 247.832 245.259 249.193 243.273 249.379C241.312 249.574 239.045 248.866 237.54 247.572C236.015 246.244 235.317 244.501 235.331 242.512C235.342 240.435 236.187 238.3 237.497 236.676C238.44 235.527 239.897 234.752 241.395 234.492C243.152 234.175 244.941 234.605 246.405 235.558C247.87 236.503 248.914 237.972 249.318 239.658C249.838 241.76 249.188 244.224 248.1 246.191ZM231.708 246.271C233.296 241.375 234.73 236.398 235.947 231.444L234.125 230.851C231.854 232.936 228.568 236.476 226.121 239.192C225.754 235.503 225.246 231.502 224.545 227.736L222.749 227.152C220.726 232.082 219.193 236.343 217.471 241.642L219.404 242.271C220.309 239.203 221.983 234.694 223.205 231.67C223.778 235.099 224.152 238.58 224.381 242.045L225.851 242.524C228.11 239.838 230.512 237.258 232.976 234.759C232.349 237.617 230.911 242.235 229.72 245.626L231.708 246.273L231.708 246.271ZM217.147 236.63C217.368 236.136 217.256 235.743 216.979 235.384C216.676 235.017 216.249 234.761 215.846 234.513C215.409 235.589 214.772 236.719 213.739 237.302C212.49 237.998 211.25 237.921 210.034 237.318C208.914 236.778 208.034 235.778 207.867 234.533C207.647 232.706 208.05 230.726 208.945 229.174C209.61 228.054 210.567 227.146 211.874 226.735C213.141 226.347 214.719 226.589 215.806 227.599C216.727 228.465 217.084 230.152 217.007 231.41C217.513 231.333 218.16 231.189 218.563 230.874C218.913 230.632 219.11 230.311 219.04 229.781C218.878 228.24 218.004 226.856 216.753 225.885C216.11 225.377 215.369 225.008 214.575 224.801C213.782 224.595 212.954 224.555 212.147 224.685C210.253 224.961 208.736 225.923 207.641 227.443C206.226 229.391 205.425 232.13 205.797 234.515C206.059 236.206 206.826 237.553 208.256 238.525C209.758 239.547 211.998 240.069 213.745 239.506C215.213 239.063 216.504 237.965 217.147 236.63ZM201.968 230.652C202.858 229.217 203.224 227.342 202.979 225.776C202.812 224.711 202.247 223.666 201.392 222.972C200.463 222.223 198.983 221.768 197.783 221.854C196.527 221.923 195.405 222.601 194.63 223.595C193.623 224.844 193.152 226.566 193.071 228.114C193.007 229.518 193.702 230.997 194.724 231.923C195.757 232.825 197.198 233.294 198.571 233.053C200.058 232.827 201.208 231.89 201.968 230.652ZM203.745 231.765C202.85 233.406 200.904 234.765 198.917 234.954C196.96 235.148 194.691 234.44 193.184 233.146C191.659 231.82 190.961 230.074 190.976 228.086C190.989 226.009 191.831 223.874 193.143 222.249C194.085 221.102 195.544 220.326 197.041 220.066C198.797 219.749 200.582 220.178 202.051 221.132C203.543 222.093 204.544 223.549 204.962 225.23C205.484 227.335 204.833 229.798 203.743 231.765L203.745 231.765ZM188.047 230.912C188.377 230.542 188.459 230.005 188.31 229.54C187.38 226.874 186.276 224.27 185.005 221.745C187.211 220.684 189.43 219.651 191.664 218.647L190.533 216.852C187.145 218.397 183.809 220.048 180.528 221.804C181.37 219.492 182.497 216.856 183.565 214.496L181.522 213.832C179.486 218.432 177.534 223.239 176.045 228.197L178.06 228.854C178.359 227.85 178.987 225.912 179.372 224.817C180.608 224.051 181.883 223.344 183.189 222.701C184.621 225.515 185.833 228.645 186.782 231.75C187.285 231.584 187.714 231.28 188.047 230.91L188.047 230.912ZM166.812 219.218C167.699 217.782 168.067 215.909 167.823 214.342C167.657 213.278 167.094 212.233 166.235 211.537C165.306 210.788 163.829 210.335 162.626 210.421C161.372 210.489 160.248 211.167 159.476 212.161C158.466 213.41 157.998 215.131 157.915 216.679C157.851 218.085 158.545 219.562 159.569 220.489C160.601 221.39 162.044 221.861 163.416 221.62C164.902 221.393 166.051 220.456 166.811 219.218L166.812 219.218ZM168.587 220.33C167.695 221.972 165.747 223.334 163.76 223.519C161.803 223.713 159.535 223.005 158.029 221.711C156.505 220.386 155.807 218.642 155.819 216.651C155.831 214.574 156.674 212.44 157.983 210.815C158.93 209.669 160.386 208.891 161.884 208.632C163.641 208.314 165.428 208.745 166.894 209.697C168.387 210.66 169.39 212.117 169.808 213.797C170.328 215.899 169.677 218.365 168.587 220.33ZM152.096 220.347C153.367 216.627 154.661 212.35 155.224 208.578C155.434 207.191 155.14 206.143 154.438 205.348C153.932 204.77 153.142 204.334 152.08 203.988C150.418 203.449 146.788 202.771 145.198 202.939C145.025 202.965 144.858 203.027 144.713 203.124C144.566 203.222 144.445 203.35 144.355 203.499C144.15 203.847 143.969 204.325 143.928 204.726C144.325 204.708 144.895 204.716 145.346 204.801C143.371 209.035 142.178 212.159 140.771 216.666L142.704 217.295C144.15 213.036 145.727 208.91 147.544 204.981C149.146 205.147 151.133 205.522 152.459 206.254C153.04 206.591 153.34 207.343 153.228 207.961C152.593 211.857 151.394 215.839 150.11 219.703L152.096 220.349L152.096 220.347ZM143.172 202.518C142.759 202.117 142.04 201.468 141.646 201.099C138.876 204.63 136.022 208.044 132.876 211.333C132.873 206.902 132.523 202.417 131.478 198.032C130.92 198.088 129.91 198.233 129.501 198.283C130.761 203.208 131.026 208.234 131.002 213.31C130.083 214.291 129.064 215.207 128.016 216.116C127.677 216.42 127.107 216.502 126.645 216.353C125.936 216.14 125.253 215.849 124.609 215.485C124.544 215.967 124.494 216.486 124.582 216.962C124.638 217.336 124.841 217.64 125.225 217.765C125.758 217.969 126.248 218.128 126.82 218.225C127.355 218.339 127.814 218.308 128.237 218.209C128.644 218.072 129.038 217.877 129.426 217.524C134.498 213.019 138.298 208.544 143.172 202.518ZM128.218 198.456L128.836 196.546C124.909 195.299 121.027 194.274 117.124 193.6C116.959 193.571 116.79 193.579 116.629 193.625C116.468 193.67 116.32 193.754 116.197 193.865C115.785 194.208 115.519 194.832 115.37 195.291C117.2 195.595 119.019 195.958 120.825 196.381C119.796 200.476 118.49 204.87 117.027 209.003L119.096 209.676C120.578 205.49 121.785 201.212 122.884 196.903C124.669 197.333 126.449 197.88 128.216 198.456L128.218 198.456ZM103.508 194.971C103.692 193.84 103.703 193.072 103.236 191.998C102.719 190.82 101.74 190.026 100.473 189.671C99.2321 189.326 97.9026 189.432 96.7883 190.078C95.7972 190.634 95.0203 191.499 94.5766 192.54C97.339 193.112 100.566 194.015 103.508 194.971ZM105.227 197.463C101.467 196.062 97.7296 194.964 93.9277 194.262C93.4375 195.859 93.5749 197.567 94.7119 198.978C95.7851 200.31 97.9797 201.053 99.7031 200.841C101.24 200.657 102.214 199.694 103.049 198.51C103.459 198.733 103.789 199.108 103.991 199.499C104.186 199.921 104.255 200.358 103.953 200.736C103.07 201.874 101.659 202.604 100.189 202.781C98.3743 202.996 96.117 202.44 94.6228 201.477C93.0492 200.491 91.892 198.774 91.6505 196.915C91.3474 194.705 92.0236 192.157 93.4663 190.308C94.5615 188.879 96.0318 187.96 97.8568 187.721C98.8506 187.597 99.8606 187.671 100.828 187.94C101.795 188.209 102.699 188.667 103.488 189.285C104.709 190.246 105.586 191.899 105.732 193.404C105.864 194.754 105.672 196.091 105.227 197.463ZM88.0767 200.241C88.3051 199.632 88.3983 198.978 88.1805 198.342C87.9757 197.68 87.4452 197.271 86.8548 196.959C86.4752 196.776 86.0837 196.619 85.6827 196.488C87.5962 190.69 89.5274 184.744 90.6992 178.822L88.6828 178.165C87.5146 184.091 85.6557 189.997 83.6781 195.806C81.6836 195.188 75.6446 193.49 72.6963 192.741C74.6072 186.851 76.9396 180.413 79.4837 175.175L77.5246 174.538C74.5358 180.492 72.2225 187.53 70.0566 194.111C75.4857 195.462 80.6351 196.841 85.563 198.62C85.9169 198.735 85.9876 199.265 85.8559 199.578C85.3534 200.754 84.6233 201.793 83.8036 202.747C84.3654 202.959 84.9639 203.155 85.4637 203.198C85.9323 203.23 86.3774 203.167 86.6863 202.674C87.1413 202.018 87.8312 200.904 88.0767 200.241Z" fill="#020303"/>
<path fill-rule="evenodd" clip-rule="evenodd" d="M258.422 60.4263C256.251 48.534 252.948 29.8241 231.265 22.7564C209.581 15.687 185.345 37.1854 186.448 40.1078C187.549 43.0294 193.669 45.9206 198.015 43.879C208.936 33.4672 219.542 29.9362 229.826 33.2892C238.015 35.9587 241.093 49.3035 245.341 60.7185C249.809 63.7709 255.111 64.8344 258.422 60.4263Z" fill="#717171"/>
<path fill-rule="evenodd" clip-rule="evenodd" d="M254.821 50.1141C251.139 37.0718 244.127 28.342 230.859 24.0161C221.657 21.0164 211.106 23.1368 200.973 28.8373C197.06 31.0396 193.48 33.6586 190.855 36.1331C189.711 37.2114 188.817 38.2036 188.26 38.9942C188.068 39.2565 187.905 39.5384 187.772 39.8353C187.756 39.8814 187.762 39.8323 187.694 39.6512C188.625 42.1218 193.928 44.1617 197.251 42.761C208.44 32.1594 219.476 28.523 230.232 32.0303C233.485 33.0899 236.106 35.6109 238.396 39.5192C240.163 42.5368 241.605 46.0321 243.58 51.6955C243.748 52.1654 243.919 52.6601 244.122 53.246C244.198 53.4772 244.279 53.7117 244.387 54.0271C244.524 54.4142 244.592 54.624 244.656 54.8032C245.444 57.093 245.935 58.4861 246.443 59.8656C250.699 62.6471 254.546 62.8543 257.001 60.0622C256.133 55.3328 255.655 53.0684 254.819 50.1154L254.821 50.1141ZM259.737 60.2035L259.839 60.768L259.493 61.2268C255.976 65.9127 250.235 65.6699 244.59 61.8113L244.239 61.5693L244.089 61.1722C243.319 59.0809 242.578 56.9793 241.865 54.8678C241.756 54.5548 241.675 54.3188 241.597 54.0902C241.395 53.5032 241.223 53.0125 241.062 52.5462C237.075 41.1329 234.112 36.0782 229.417 34.5473C219.657 31.365 209.541 34.7327 198.941 44.8395L198.785 44.9859L198.592 45.0771C193.899 47.2843 186.705 44.5758 185.196 40.5613C184.626 39.0568 186.124 36.9265 189.009 34.2029C191.792 31.5821 195.546 28.8353 199.646 26.5287C210.368 20.4976 221.647 18.2271 231.673 21.4962C245.896 26.133 253.486 35.5859 257.391 49.4196C258.288 52.5991 258.783 54.9835 259.737 60.2035Z" fill="#020303"/>
<defs>
<filter id="filter0_d" x="0.542969" y="0.49408" width="335.624" height="361.006" filterUnits="userSpaceOnUse" color-interpolation-filters="sRGB">
<feFlood flood-opacity="0" result="BackgroundImageFix"/>
<feColorMatrix in="SourceAlpha" type="matrix" values="0 0 0 0 0 0 0 0 0 0 0 0 0 0 0 0 0 0 127 0"/>
<feOffset dy="1"/>
<feGaussianBlur stdDeviation="4"/>
<feColorMatrix type="matrix" values="0 0 0 0 0 0 0 0 0 0 0 0 0 0 0 0 0 0 0.1 0"/>
<feBlend mode="normal" in2="BackgroundImageFix" result="effect1_dropShadow"/>
<feBlend mode="normal" in="SourceGraphic" in2="effect1_dropShadow" result="shape"/>
</filter>
</defs>
</svg>
