<svg xmlns="http://www.w3.org/2000/svg" width="160" height="146" viewBox="0 0 160 146">
    <defs>
        <linearGradient id="a" x1="100%" x2="0%" y1="8.367%" y2="91.633%">
            <stop offset="0%" stop-color="#38CEA6"/>
            <stop offset="100%" stop-color="#22A574"/>
        </linearGradient>
    </defs>
    <path fill="url(#a)" fill-rule="evenodd" d="M10.256 0h98.466c17.83 0 24.296 1.857 30.815 5.343 6.518 3.486 11.634 8.602 15.12 15.12C158.143 26.982 160 33.447 160 51.278v43.444c0 17.83-1.857 24.296-5.343 30.815-3.486 6.518-8.602 11.634-15.12 15.12-6.519 3.486-12.984 5.343-30.815 5.343H51.278c-17.83 0-24.296-1.857-30.815-5.343-6.518-3.486-11.634-8.602-15.12-15.12C1.857 119.018 0 112.553 0 94.722V10.256c0-3.567.371-4.86 1.069-6.163a7.27 7.27 0 0 1 3.024-3.024C5.396.37 6.689 0 10.256 0z"/>
</svg>
