<svg xmlns="http://www.w3.org/2000/svg" width="160" height="146" viewBox="0 0 160 146">
    <defs>
        <linearGradient id="a" x1="100%" x2="0%" y1="8.367%" y2="91.633%">
            <stop offset="0%" stop-color="#FF8A5C"/>
            <stop offset="100%" stop-color="#FF4874"/>
        </linearGradient>
    </defs>
    <path fill="url(#a)" fill-rule="evenodd" d="M20.511 0h68.084c15.761 0 28.234 2.97 38.664 8.548 10.43 5.578 18.615 13.763 24.193 24.193C157.03 43.17 160 55.644 160 71.405v54.084c0 7.132-.743 9.718-2.137 12.326a14.538 14.538 0 0 1-6.048 6.048c-2.608 1.394-5.194 2.137-12.326 2.137H20.51c-7.132 0-9.718-.743-12.326-2.137a14.538 14.538 0 0 1-6.048-6.048C.743 135.207 0 132.62 0 125.489V20.51c0-7.132.743-9.718 2.137-12.326a14.538 14.538 0 0 1 6.048-6.048C10.793.743 13.38 0 20.511 0z"/>
</svg>
