<svg xmlns="http://www.w3.org/2000/svg" width="160" height="146" viewBox="0 0 160 146">
    <defs>
        <linearGradient id="a" x1="100%" x2="0%" y1="8.367%" y2="91.633%">
            <stop offset="0%" stop-color="#FF6166"/>
            <stop offset="100%" stop-color="#C7294D"/>
        </linearGradient>
    </defs>
    <path fill="url(#a)" fill-rule="evenodd" d="M10.256 0h89.137c20.285 0 28.23 2.228 36.051 6.411 7.823 4.184 13.961 10.322 18.145 18.145C157.772 32.378 160 40.322 160 60.607v64.882c0 7.132-.743 9.718-2.137 12.326a14.538 14.538 0 0 1-6.048 6.048c-2.608 1.394-5.194 2.137-12.326 2.137H20.51c-7.132 0-9.718-.743-12.326-2.137a14.538 14.538 0 0 1-6.048-6.048C.743 135.207 0 132.62 0 125.489V10.256c0-3.567.371-4.86 1.069-6.163a7.27 7.27 0 0 1 3.024-3.024C5.396.37 6.689 0 10.256 0z"/>
</svg>
