<svg xmlns="http://www.w3.org/2000/svg" width="160" height="146" viewBox="0 0 160 146">
    <defs>
        <linearGradient id="a" x1="100%" x2="0%" y1="8.367%" y2="91.633%">
            <stop offset="0%" stop-color="#FF8A5C"/>
            <stop offset="100%" stop-color="#FF4874"/>
        </linearGradient>
    </defs>
    <path fill="url(#a)" fill-rule="evenodd" d="M20.511 0h98.467c14.264 0 19.437 1.485 24.652 4.274 5.214 2.789 9.307 6.882 12.096 12.096C158.515 21.585 160 26.758 160 41.022V73c0 13.688-3.548 26.362-9.8 37.177a71.174 71.174 0 0 1-26.023 26.023C113.362 142.452 100.688 146 87 146H20.511c-7.132 0-9.718-.743-12.326-2.137a14.538 14.538 0 0 1-6.048-6.048C.743 135.207 0 132.62 0 125.489V20.51c0-7.132.743-9.718 2.137-12.326a14.538 14.538 0 0 1 6.048-6.048C10.793.743 13.38 0 20.511 0z"/>
</svg>
